  0
SECTION
  2
HEADER
  9
$ACADVER
  1
AC1018
  9
$HANDSEED
  5
FFFFFFFF
  9
$ANGBASE
  50
0.0
  9
$ANGDIR
  70
1
  9
$MEASUREMENT
  70
0
  9
$INSUNITS
  70
1
  0
ENDSEC
  0
SECTION
  2
TABLES
  0
TABLE
  2
APPID
  5
1
330
0
100
AcDbSymbolTable
 70
1
  0
APPID
  5
2
330
1
100
AcDbSymbolTableRecord
100
AcDbRegAppTableRecord
  2
ACAD
 70
0
  0
ENDTAB
  0
TABLE
  2
LTYPE
  5
3
330
0
100
AcDbSymbolTable
 70
6
  0
LTYPE
  5
4
330
3
100
AcDbSymbolTableRecord
100
AcDbLinetypeTableRecord
  2
ByBlock
 70
0
  3

 72
65
 73
0
 40
0
  0
LTYPE
  5
5
330
3
100
AcDbSymbolTableRecord
100
AcDbLinetypeTableRecord
  2
ByLayer
 70
0
  3

 72
65
 73
0
 40
0
  0
LTYPE
  5
6
330
3
100
AcDbSymbolTableRecord
100
AcDbLinetypeTableRecord
  2
CONTINUOUS
 70
0
  3
Solid line
 72
65
 73
0
 40
0
  0
LTYPE
  5
7
330
3
100
AcDbSymbolTableRecord
100
AcDbLinetypeTableRecord
  2
DASHDOT
 70
0
  3
Dash Dot ____ _ ____ _
 72
65
 73
4
 40
2
 49
1.25
 74
0
 49
-0.25
 74
0
 49
0.25
 74
0
 49
-0.25
 74
0
  0
LTYPE
  5
8
330
3
100
AcDbSymbolTableRecord
100
AcDbLinetypeTableRecord
  2
DASHED
 70
0
  3
Dashed __ __ __ __ __
 72
65
 73
2
 40
0.75
 49
0.5
 74
0
 49
-0.25
 74
0
  0
LTYPE
  5
9
330
3
100
AcDbSymbolTableRecord
100
AcDbLinetypeTableRecord
  2
DOTTED
 70
0
  3
Dotted .  .  .  .
 72
65
 73
2
 40
0.2
 49
0.0
 74
0
 49
-0.2
 74
0
  0
ENDTAB
  0
TABLE
  2
STYLE
  5
A
330
0
100
AcDbSymbolTable
 70
4
  0
STYLE
  5
B
330
A
100
AcDbSymbolTableRecord
100
AcDbTextStyleTableRecord
  2
KICAD
 70
0
 40
0
 41
1
 42
1
 50
0
 71
0
  3
isocp.shx
  0
STYLE
  5
C
330
A
100
AcDbSymbolTableRecord
100
AcDbTextStyleTableRecord
  2
KICADB
 70
0
 40
0
 41
1
 42
1
 50
0
 71
0
  3
isocp.shx
  0
STYLE
  5
D
330
A
100
AcDbSymbolTableRecord
100
AcDbTextStyleTableRecord
  2
KICADI
 70
0
 40
0
 41
1
 42
1
 50
15
 71
0
  3
isocp.shx
  0
STYLE
  5
E
330
A
100
AcDbSymbolTableRecord
100
AcDbTextStyleTableRecord
  2
KICADBI
 70
0
 40
0
 41
1
 42
1
 50
15
 71
0
  3
isocp.shx
  0
ENDTAB
  0
TABLE
  2
LAYER
  5
F
330
0
100
AcDbSymbolTable
 70
2
  0
LAYER
  5
12
330
F
100
AcDbSymbolTableRecord
100
AcDbLayerTableRecord
  2
0
 70
0
 62
7
  6
CONTINUOUS
390
10
  0
LAYER
  5
13
330
F
100
AcDbSymbolTableRecord
100
AcDbLayerTableRecord
  2
F.Paste
 70
0
 62
253
420
11837594
  6
CONTINUOUS
390
10
  0
ENDTAB
  0
TABLE
  2
VPORT
  5
14
330
0
100
AcDbSymbolTable
 70
0
  0
ENDTAB
  0
TABLE
  2
VIEW
  5
15
330
0
100
AcDbSymbolTable
 70
0
  0
ENDTAB
  0
TABLE
  2
UCS
  5
16
330
0
100
AcDbSymbolTable
 70
0
  0
ENDTAB
  0
TABLE
  2
DIMSTYLE
  5
17
330
0
100
AcDbSymbolTable
 70
1
100
AcDbDimStyleTable
 71
0
  0
DIMSTYLE
105
18
330
17
100
AcDbSymbolTableRecord
100
AcDbDimStyleTableRecord
  2
Standard
 70
0
  0
ENDTAB
  0
TABLE
  2
BLOCK_RECORD
  5
19
330
0
100
AcDbSymbolTable
 70
3
  0
BLOCK_RECORD
  5
1A
330
19
100
AcDbSymbolTableRecord
100
AcDbBlockTableRecord
  2
*Model_Space
340
1D
 70
0
280
1
281
0
  0
BLOCK_RECORD
  5
1B
330
19
100
AcDbSymbolTableRecord
100
AcDbBlockTableRecord
  2
*Paper_Space
340
1E
 70
0
280
1
281
0
  0
BLOCK_RECORD
  5
1C
330
19
100
AcDbSymbolTableRecord
100
AcDbBlockTableRecord
  2
*Paper_Space0
340
1F
 70
0
280
1
281
0
  0
ENDTAB
  0
ENDSEC
  0
SECTION
  2
BLOCKS
  0
BLOCK
  5
23
330
1A
100
AcDbEntity
  8
0
100
AcDbBlockBegin
  2
*Model_Space
 70
0
 10
0.0
 20
0.0
 30
0.0
  3
*Model_Space
  1

  0
ENDBLK
  5
22
330
1A
100
AcDbEntity
  8
0
100
AcDbBlockEnd
  0
BLOCK
  5
25
330
1B
100
AcDbEntity
 67
1
  8
0
100
AcDbBlockBegin
  2
*Paper_Space
 70
0
 10
0.0
 20
0.0
 30
0.0
  3
*Paper_Space
  1

  0
ENDBLK
  5
24
330
1B
100
AcDbEntity
 67
1
  8
0
100
AcDbBlockEnd
  0
BLOCK
  5
27
330
1C
100
AcDbEntity
 67
1
  8
0
100
AcDbBlockBegin
  2
*Paper_Space0
 70
0
 10
0.0
 20
0.0
 30
0.0
  3
*Paper_Space0
  1

  0
ENDBLK
  5
26
330
1C
100
AcDbEntity
 67
1
  8
0
100
AcDbBlockEnd
  0
ENDSEC
  0
SECTION
  2
ENTITIES
  0
LINE
  5
28
330
1A
100
AcDbEntity
  8
F.Paste
  6
CONTINUOUS
100
AcDbLine
 10
2.9133858267716537
 20
-4.4035433070866139
 30
0
 11
2.8543307086614171
 21
-4.4035433070866139
 31
0
  0
LINE
  5
29
330
1A
100
AcDbEntity
  8
F.Paste
  6
CONTINUOUS
100
AcDbLine
 10
2.8543307086614171
 20
-4.4035433070866139
 30
0
 11
2.8543307086614171
 21
-4.356299212598425
 31
0
  0
LINE
  5
2A
330
1A
100
AcDbEntity
  8
F.Paste
  6
CONTINUOUS
100
AcDbLine
 10
2.8543307086614171
 20
-4.356299212598425
 30
0
 11
2.9133858267716537
 21
-4.356299212598425
 31
0
  0
LINE
  5
2B
330
1A
100
AcDbEntity
  8
F.Paste
  6
CONTINUOUS
100
AcDbLine
 10
2.9133858267716537
 20
-4.356299212598425
 30
0
 11
2.9133858267716537
 21
-4.4035433070866139
 31
0
  0
LINE
  5
2C
330
1A
100
AcDbEntity
  8
F.Paste
  6
CONTINUOUS
100
AcDbLine
 10
3.015748031496063
 20
-4.4035433070866139
 30
0
 11
2.9685039370078741
 21
-4.4035433070866139
 31
0
  0
LINE
  5
2D
330
1A
100
AcDbEntity
  8
F.Paste
  6
CONTINUOUS
100
AcDbLine
 10
2.9685039370078741
 20
-4.4035433070866139
 30
0
 11
2.9685039370078741
 21
-4.356299212598425
 31
0
  0
LINE
  5
2E
330
1A
100
AcDbEntity
  8
F.Paste
  6
CONTINUOUS
100
AcDbLine
 10
2.9685039370078741
 20
-4.356299212598425
 30
0
 11
3.015748031496063
 21
-4.356299212598425
 31
0
  0
LINE
  5
2F
330
1A
100
AcDbEntity
  8
F.Paste
  6
CONTINUOUS
100
AcDbLine
 10
3.015748031496063
 20
-4.356299212598425
 30
0
 11
3.015748031496063
 21
-4.4035433070866139
 31
0
  0
LINE
  5
30
330
1A
100
AcDbEntity
  8
F.Paste
  6
CONTINUOUS
100
AcDbLine
 10
3.1574803149606296
 20
-4.4035433070866139
 30
0
 11
3.1102362204724407
 21
-4.4035433070866139
 31
0
  0
LINE
  5
31
330
1A
100
AcDbEntity
  8
F.Paste
  6
CONTINUOUS
100
AcDbLine
 10
3.1102362204724407
 20
-4.4035433070866139
 30
0
 11
3.1102362204724407
 21
-4.356299212598425
 31
0
  0
LINE
  5
32
330
1A
100
AcDbEntity
  8
F.Paste
  6
CONTINUOUS
100
AcDbLine
 10
3.1102362204724407
 20
-4.356299212598425
 30
0
 11
3.1574803149606296
 21
-4.356299212598425
 31
0
  0
LINE
  5
33
330
1A
100
AcDbEntity
  8
F.Paste
  6
CONTINUOUS
100
AcDbLine
 10
3.1574803149606296
 20
-4.356299212598425
 30
0
 11
3.1574803149606296
 21
-4.4035433070866139
 31
0
  0
LINE
  5
34
330
1A
100
AcDbEntity
  8
F.Paste
  6
CONTINUOUS
100
AcDbLine
 10
3.2716535433070866
 20
-4.4035433070866139
 30
0
 11
3.2125984251968505
 21
-4.4035433070866139
 31
0
  0
LINE
  5
35
330
1A
100
AcDbEntity
  8
F.Paste
  6
CONTINUOUS
100
AcDbLine
 10
3.2125984251968505
 20
-4.4035433070866139
 30
0
 11
3.2125984251968505
 21
-4.356299212598425
 31
0
  0
LINE
  5
36
330
1A
100
AcDbEntity
  8
F.Paste
  6
CONTINUOUS
100
AcDbLine
 10
3.2125984251968505
 20
-4.356299212598425
 30
0
 11
3.2716535433070866
 21
-4.356299212598425
 31
0
  0
LINE
  5
37
330
1A
100
AcDbEntity
  8
F.Paste
  6
CONTINUOUS
100
AcDbLine
 10
3.2716535433070866
 20
-4.356299212598425
 30
0
 11
3.2716535433070866
 21
-4.4035433070866139
 31
0
  0
LINE
  5
38
330
1A
100
AcDbEntity
  8
F.Paste
  6
CONTINUOUS
100
AcDbLine
 10
3.0275590551181102
 20
-4.3346456692913389
 30
0
 11
2.9803149606299213
 21
-4.3346456692913389
 31
0
  0
LINE
  5
39
330
1A
100
AcDbEntity
  8
F.Paste
  6
CONTINUOUS
100
AcDbLine
 10
2.9803149606299213
 20
-4.3346456692913389
 30
0
 11
2.9803149606299213
 21
-4.2874015748031491
 31
0
  0
LINE
  5
3A
330
1A
100
AcDbEntity
  8
F.Paste
  6
CONTINUOUS
100
AcDbLine
 10
2.9803149606299213
 20
-4.2874015748031491
 30
0
 11
3.0275590551181102
 21
-4.2874015748031491
 31
0
  0
LINE
  5
3B
330
1A
100
AcDbEntity
  8
F.Paste
  6
CONTINUOUS
100
AcDbLine
 10
3.0275590551181102
 20
-4.2874015748031491
 30
0
 11
3.0275590551181102
 21
-4.3346456692913389
 31
0
  0
LINE
  5
3C
330
1A
100
AcDbEntity
  8
F.Paste
  6
CONTINUOUS
100
AcDbLine
 10
3.1456692913385824
 20
-4.3346456692913389
 30
0
 11
3.0984251968503935
 21
-4.3346456692913389
 31
0
  0
LINE
  5
3D
330
1A
100
AcDbEntity
  8
F.Paste
  6
CONTINUOUS
100
AcDbLine
 10
3.0984251968503935
 20
-4.3346456692913389
 30
0
 11
3.0984251968503935
 21
-4.2874015748031491
 31
0
  0
LINE
  5
3E
330
1A
100
AcDbEntity
  8
F.Paste
  6
CONTINUOUS
100
AcDbLine
 10
3.0984251968503935
 20
-4.2874015748031491
 30
0
 11
3.1456692913385824
 21
-4.2874015748031491
 31
0
  0
LINE
  5
3F
330
1A
100
AcDbEntity
  8
F.Paste
  6
CONTINUOUS
100
AcDbLine
 10
3.1456692913385824
 20
-4.2874015748031491
 30
0
 11
3.1456692913385824
 21
-4.3346456692913389
 31
0
  0
LINE
  5
40
330
1A
100
AcDbEntity
  8
F.Paste
  6
CONTINUOUS
100
AcDbLine
 10
2.9133858267716537
 20
-4.3011811023622046
 30
0
 11
2.8543307086614171
 21
-4.3011811023622046
 31
0
  0
LINE
  5
41
330
1A
100
AcDbEntity
  8
F.Paste
  6
CONTINUOUS
100
AcDbLine
 10
2.8543307086614171
 20
-4.3011811023622046
 30
0
 11
2.8543307086614171
 21
-4.2539370078740157
 31
0
  0
LINE
  5
42
330
1A
100
AcDbEntity
  8
F.Paste
  6
CONTINUOUS
100
AcDbLine
 10
2.8543307086614171
 20
-4.2539370078740157
 30
0
 11
2.9133858267716537
 21
-4.2539370078740157
 31
0
  0
LINE
  5
43
330
1A
100
AcDbEntity
  8
F.Paste
  6
CONTINUOUS
100
AcDbLine
 10
2.9133858267716537
 20
-4.2539370078740157
 30
0
 11
2.9133858267716537
 21
-4.3011811023622046
 31
0
  0
LINE
  5
44
330
1A
100
AcDbEntity
  8
F.Paste
  6
CONTINUOUS
100
AcDbLine
 10
3.2716535433070866
 20
-4.3011811023622046
 30
0
 11
3.2125984251968505
 21
-4.3011811023622046
 31
0
  0
LINE
  5
45
330
1A
100
AcDbEntity
  8
F.Paste
  6
CONTINUOUS
100
AcDbLine
 10
3.2125984251968505
 20
-4.3011811023622046
 30
0
 11
3.2125984251968505
 21
-4.2539370078740157
 31
0
  0
LINE
  5
46
330
1A
100
AcDbEntity
  8
F.Paste
  6
CONTINUOUS
100
AcDbLine
 10
3.2125984251968505
 20
-4.2539370078740157
 30
0
 11
3.2716535433070866
 21
-4.2539370078740157
 31
0
  0
LINE
  5
47
330
1A
100
AcDbEntity
  8
F.Paste
  6
CONTINUOUS
100
AcDbLine
 10
3.2716535433070866
 20
-4.2539370078740157
 30
0
 11
3.2716535433070866
 21
-4.3011811023622046
 31
0
  0
LINE
  5
48
330
1A
100
AcDbEntity
  8
F.Paste
  6
CONTINUOUS
100
AcDbLine
 10
2.938976377952756
 20
-4.2460629921259843
 30
0
 11
2.9192913385826773
 21
-4.2460629921259843
 31
0
  0
LINE
  5
49
330
1A
100
AcDbEntity
  8
F.Paste
  6
CONTINUOUS
100
AcDbLine
 10
2.9192913385826773
 20
-4.2460629921259843
 30
0
 11
2.9192913385826773
 21
-4.1673228346456694
 31
0
  0
LINE
  5
4A
330
1A
100
AcDbEntity
  8
F.Paste
  6
CONTINUOUS
100
AcDbLine
 10
2.9192913385826773
 20
-4.1673228346456694
 30
0
 11
2.938976377952756
 21
-4.1673228346456694
 31
0
  0
LINE
  5
4B
330
1A
100
AcDbEntity
  8
F.Paste
  6
CONTINUOUS
100
AcDbLine
 10
2.938976377952756
 20
-4.1673228346456694
 30
0
 11
2.938976377952756
 21
-4.2460629921259843
 31
0
  0
LINE
  5
4C
330
1A
100
AcDbEntity
  8
F.Paste
  6
CONTINUOUS
100
AcDbLine
 10
3.2066929133858268
 20
-4.2460629921259843
 30
0
 11
3.1870078740157481
 21
-4.2460629921259843
 31
0
  0
LINE
  5
4D
330
1A
100
AcDbEntity
  8
F.Paste
  6
CONTINUOUS
100
AcDbLine
 10
3.1870078740157481
 20
-4.2460629921259843
 30
0
 11
3.1870078740157481
 21
-4.1673228346456694
 31
0
  0
LINE
  5
4E
330
1A
100
AcDbEntity
  8
F.Paste
  6
CONTINUOUS
100
AcDbLine
 10
3.1870078740157481
 20
-4.1673228346456694
 30
0
 11
3.2066929133858268
 21
-4.1673228346456694
 31
0
  0
LINE
  5
4F
330
1A
100
AcDbEntity
  8
F.Paste
  6
CONTINUOUS
100
AcDbLine
 10
3.2066929133858268
 20
-4.1673228346456694
 30
0
 11
3.2066929133858268
 21
-4.2460629921259843
 31
0
  0
LINE
  5
50
330
1A
100
AcDbEntity
  8
F.Paste
  6
CONTINUOUS
100
AcDbLine
 10
2.9596456692913384
 20
-4.2381889763779528
 30
0
 11
2.9498031496062991
 21
-4.2381889763779528
 31
0
  0
LINE
  5
51
330
1A
100
AcDbEntity
  8
F.Paste
  6
CONTINUOUS
100
AcDbLine
 10
2.9498031496062991
 20
-4.2381889763779528
 30
0
 11
2.9498031496062991
 21
-4.1673228346456694
 31
0
  0
LINE
  5
52
330
1A
100
AcDbEntity
  8
F.Paste
  6
CONTINUOUS
100
AcDbLine
 10
2.9498031496062991
 20
-4.1673228346456694
 30
0
 11
2.9596456692913384
 21
-4.1673228346456694
 31
0
  0
LINE
  5
53
330
1A
100
AcDbEntity
  8
F.Paste
  6
CONTINUOUS
100
AcDbLine
 10
2.9596456692913384
 20
-4.1673228346456694
 30
0
 11
2.9596456692913384
 21
-4.2381889763779528
 31
0
  0
LINE
  5
54
330
1A
100
AcDbEntity
  8
F.Paste
  6
CONTINUOUS
100
AcDbLine
 10
2.9793307086614171
 20
-4.2381889763779528
 30
0
 11
2.9694881889763778
 21
-4.2381889763779528
 31
0
  0
LINE
  5
55
330
1A
100
AcDbEntity
  8
F.Paste
  6
CONTINUOUS
100
AcDbLine
 10
2.9694881889763778
 20
-4.2381889763779528
 30
0
 11
2.9694881889763778
 21
-4.1673228346456694
 31
0
  0
LINE
  5
56
330
1A
100
AcDbEntity
  8
F.Paste
  6
CONTINUOUS
100
AcDbLine
 10
2.9694881889763778
 20
-4.1673228346456694
 30
0
 11
2.9793307086614171
 21
-4.1673228346456694
 31
0
  0
LINE
  5
57
330
1A
100
AcDbEntity
  8
F.Paste
  6
CONTINUOUS
100
AcDbLine
 10
2.9793307086614171
 20
-4.1673228346456694
 30
0
 11
2.9793307086614171
 21
-4.2381889763779528
 31
0
  0
LINE
  5
58
330
1A
100
AcDbEntity
  8
F.Paste
  6
CONTINUOUS
100
AcDbLine
 10
2.9990157480314958
 20
-4.2381889763779528
 30
0
 11
2.9891732283464565
 21
-4.2381889763779528
 31
0
  0
LINE
  5
59
330
1A
100
AcDbEntity
  8
F.Paste
  6
CONTINUOUS
100
AcDbLine
 10
2.9891732283464565
 20
-4.2381889763779528
 30
0
 11
2.9891732283464565
 21
-4.1673228346456694
 31
0
  0
LINE
  5
5A
330
1A
100
AcDbEntity
  8
F.Paste
  6
CONTINUOUS
100
AcDbLine
 10
2.9891732283464565
 20
-4.1673228346456694
 30
0
 11
2.9990157480314958
 21
-4.1673228346456694
 31
0
  0
LINE
  5
5B
330
1A
100
AcDbEntity
  8
F.Paste
  6
CONTINUOUS
100
AcDbLine
 10
2.9990157480314958
 20
-4.1673228346456694
 30
0
 11
2.9990157480314958
 21
-4.2381889763779528
 31
0
  0
LINE
  5
5C
330
1A
100
AcDbEntity
  8
F.Paste
  6
CONTINUOUS
100
AcDbLine
 10
3.0187007874015745
 20
-4.2381889763779528
 30
0
 11
3.0088582677165352
 21
-4.2381889763779528
 31
0
  0
LINE
  5
5D
330
1A
100
AcDbEntity
  8
F.Paste
  6
CONTINUOUS
100
AcDbLine
 10
3.0088582677165352
 20
-4.2381889763779528
 30
0
 11
3.0088582677165352
 21
-4.1673228346456694
 31
0
  0
LINE
  5
5E
330
1A
100
AcDbEntity
  8
F.Paste
  6
CONTINUOUS
100
AcDbLine
 10
3.0088582677165352
 20
-4.1673228346456694
 30
0
 11
3.0187007874015745
 21
-4.1673228346456694
 31
0
  0
LINE
  5
5F
330
1A
100
AcDbEntity
  8
F.Paste
  6
CONTINUOUS
100
AcDbLine
 10
3.0187007874015745
 20
-4.1673228346456694
 30
0
 11
3.0187007874015745
 21
-4.2381889763779528
 31
0
  0
LINE
  5
60
330
1A
100
AcDbEntity
  8
F.Paste
  6
CONTINUOUS
100
AcDbLine
 10
3.0383858267716533
 20
-4.2381889763779528
 30
0
 11
3.0285433070866139
 21
-4.2381889763779528
 31
0
  0
LINE
  5
61
330
1A
100
AcDbEntity
  8
F.Paste
  6
CONTINUOUS
100
AcDbLine
 10
3.0285433070866139
 20
-4.2381889763779528
 30
0
 11
3.0285433070866139
 21
-4.1673228346456694
 31
0
  0
LINE
  5
62
330
1A
100
AcDbEntity
  8
F.Paste
  6
CONTINUOUS
100
AcDbLine
 10
3.0285433070866139
 20
-4.1673228346456694
 30
0
 11
3.0383858267716533
 21
-4.1673228346456694
 31
0
  0
LINE
  5
63
330
1A
100
AcDbEntity
  8
F.Paste
  6
CONTINUOUS
100
AcDbLine
 10
3.0383858267716533
 20
-4.1673228346456694
 30
0
 11
3.0383858267716533
 21
-4.2381889763779528
 31
0
  0
LINE
  5
64
330
1A
100
AcDbEntity
  8
F.Paste
  6
CONTINUOUS
100
AcDbLine
 10
3.0580708661417324
 20
-4.2381889763779528
 30
0
 11
3.048228346456693
 21
-4.2381889763779528
 31
0
  0
LINE
  5
65
330
1A
100
AcDbEntity
  8
F.Paste
  6
CONTINUOUS
100
AcDbLine
 10
3.048228346456693
 20
-4.2381889763779528
 30
0
 11
3.048228346456693
 21
-4.1673228346456694
 31
0
  0
LINE
  5
66
330
1A
100
AcDbEntity
  8
F.Paste
  6
CONTINUOUS
100
AcDbLine
 10
3.048228346456693
 20
-4.1673228346456694
 30
0
 11
3.0580708661417324
 21
-4.1673228346456694
 31
0
  0
LINE
  5
67
330
1A
100
AcDbEntity
  8
F.Paste
  6
CONTINUOUS
100
AcDbLine
 10
3.0580708661417324
 20
-4.1673228346456694
 30
0
 11
3.0580708661417324
 21
-4.2381889763779528
 31
0
  0
LINE
  5
68
330
1A
100
AcDbEntity
  8
F.Paste
  6
CONTINUOUS
100
AcDbLine
 10
3.0777559055118111
 20
-4.2381889763779528
 30
0
 11
3.0679133858267718
 21
-4.2381889763779528
 31
0
  0
LINE
  5
69
330
1A
100
AcDbEntity
  8
F.Paste
  6
CONTINUOUS
100
AcDbLine
 10
3.0679133858267718
 20
-4.2381889763779528
 30
0
 11
3.0679133858267718
 21
-4.1673228346456694
 31
0
  0
LINE
  5
6A
330
1A
100
AcDbEntity
  8
F.Paste
  6
CONTINUOUS
100
AcDbLine
 10
3.0679133858267718
 20
-4.1673228346456694
 30
0
 11
3.0777559055118111
 21
-4.1673228346456694
 31
0
  0
LINE
  5
6B
330
1A
100
AcDbEntity
  8
F.Paste
  6
CONTINUOUS
100
AcDbLine
 10
3.0777559055118111
 20
-4.1673228346456694
 30
0
 11
3.0777559055118111
 21
-4.2381889763779528
 31
0
  0
LINE
  5
6C
330
1A
100
AcDbEntity
  8
F.Paste
  6
CONTINUOUS
100
AcDbLine
 10
3.0974409448818898
 20
-4.2381889763779528
 30
0
 11
3.0875984251968505
 21
-4.2381889763779528
 31
0
  0
LINE
  5
6D
330
1A
100
AcDbEntity
  8
F.Paste
  6
CONTINUOUS
100
AcDbLine
 10
3.0875984251968505
 20
-4.2381889763779528
 30
0
 11
3.0875984251968505
 21
-4.1673228346456694
 31
0
  0
LINE
  5
6E
330
1A
100
AcDbEntity
  8
F.Paste
  6
CONTINUOUS
100
AcDbLine
 10
3.0875984251968505
 20
-4.1673228346456694
 30
0
 11
3.0974409448818898
 21
-4.1673228346456694
 31
0
  0
LINE
  5
6F
330
1A
100
AcDbEntity
  8
F.Paste
  6
CONTINUOUS
100
AcDbLine
 10
3.0974409448818898
 20
-4.1673228346456694
 30
0
 11
3.0974409448818898
 21
-4.2381889763779528
 31
0
  0
LINE
  5
70
330
1A
100
AcDbEntity
  8
F.Paste
  6
CONTINUOUS
100
AcDbLine
 10
3.1171259842519685
 20
-4.2381889763779528
 30
0
 11
3.1072834645669292
 21
-4.2381889763779528
 31
0
  0
LINE
  5
71
330
1A
100
AcDbEntity
  8
F.Paste
  6
CONTINUOUS
100
AcDbLine
 10
3.1072834645669292
 20
-4.2381889763779528
 30
0
 11
3.1072834645669292
 21
-4.1673228346456694
 31
0
  0
LINE
  5
72
330
1A
100
AcDbEntity
  8
F.Paste
  6
CONTINUOUS
100
AcDbLine
 10
3.1072834645669292
 20
-4.1673228346456694
 30
0
 11
3.1171259842519685
 21
-4.1673228346456694
 31
0
  0
LINE
  5
73
330
1A
100
AcDbEntity
  8
F.Paste
  6
CONTINUOUS
100
AcDbLine
 10
3.1171259842519685
 20
-4.1673228346456694
 30
0
 11
3.1171259842519685
 21
-4.2381889763779528
 31
0
  0
LINE
  5
74
330
1A
100
AcDbEntity
  8
F.Paste
  6
CONTINUOUS
100
AcDbLine
 10
3.1368110236220472
 20
-4.2381889763779528
 30
0
 11
3.1269685039370079
 21
-4.2381889763779528
 31
0
  0
LINE
  5
75
330
1A
100
AcDbEntity
  8
F.Paste
  6
CONTINUOUS
100
AcDbLine
 10
3.1269685039370079
 20
-4.2381889763779528
 30
0
 11
3.1269685039370079
 21
-4.1673228346456694
 31
0
  0
LINE
  5
76
330
1A
100
AcDbEntity
  8
F.Paste
  6
CONTINUOUS
100
AcDbLine
 10
3.1269685039370079
 20
-4.1673228346456694
 30
0
 11
3.1368110236220472
 21
-4.1673228346456694
 31
0
  0
LINE
  5
77
330
1A
100
AcDbEntity
  8
F.Paste
  6
CONTINUOUS
100
AcDbLine
 10
3.1368110236220472
 20
-4.1673228346456694
 30
0
 11
3.1368110236220472
 21
-4.2381889763779528
 31
0
  0
LINE
  5
78
330
1A
100
AcDbEntity
  8
F.Paste
  6
CONTINUOUS
100
AcDbLine
 10
3.1564960629921259
 20
-4.2381889763779528
 30
0
 11
3.1466535433070866
 21
-4.2381889763779528
 31
0
  0
LINE
  5
79
330
1A
100
AcDbEntity
  8
F.Paste
  6
CONTINUOUS
100
AcDbLine
 10
3.1466535433070866
 20
-4.2381889763779528
 30
0
 11
3.1466535433070866
 21
-4.1673228346456694
 31
0
  0
LINE
  5
7A
330
1A
100
AcDbEntity
  8
F.Paste
  6
CONTINUOUS
100
AcDbLine
 10
3.1466535433070866
 20
-4.1673228346456694
 30
0
 11
3.1564960629921259
 21
-4.1673228346456694
 31
0
  0
LINE
  5
7B
330
1A
100
AcDbEntity
  8
F.Paste
  6
CONTINUOUS
100
AcDbLine
 10
3.1564960629921259
 20
-4.1673228346456694
 30
0
 11
3.1564960629921259
 21
-4.2381889763779528
 31
0
  0
LINE
  5
7C
330
1A
100
AcDbEntity
  8
F.Paste
  6
CONTINUOUS
100
AcDbLine
 10
3.1761811023622046
 20
-4.2381889763779528
 30
0
 11
3.1663385826771653
 21
-4.2381889763779528
 31
0
  0
LINE
  5
7D
330
1A
100
AcDbEntity
  8
F.Paste
  6
CONTINUOUS
100
AcDbLine
 10
3.1663385826771653
 20
-4.2381889763779528
 30
0
 11
3.1663385826771653
 21
-4.1673228346456694
 31
0
  0
LINE
  5
7E
330
1A
100
AcDbEntity
  8
F.Paste
  6
CONTINUOUS
100
AcDbLine
 10
3.1663385826771653
 20
-4.1673228346456694
 30
0
 11
3.1761811023622046
 21
-4.1673228346456694
 31
0
  0
LINE
  5
7F
330
1A
100
AcDbEntity
  8
F.Paste
  6
CONTINUOUS
100
AcDbLine
 10
3.1761811023622046
 20
-4.1673228346456694
 30
0
 11
3.1761811023622046
 21
-4.2381889763779528
 31
0
  0
LINE
  5
80
330
1A
100
AcDbEntity
  8
F.Paste
  6
CONTINUOUS
100
AcDbLine
 10
3.2563206692913385
 20
-4.0882471653543302
 30
0
 11
3.2591244094488188
 21
-4.089865905511811
 31
0
  0
LINE
  5
81
330
1A
100
AcDbEntity
  8
F.Paste
  6
CONTINUOUS
100
AcDbLine
 10
3.2591244094488188
 20
-4.089865905511811
 30
0
 11
3.2614136220472441
 21
-4.0921551181102362
 31
0
  0
LINE
  5
82
330
1A
100
AcDbEntity
  8
F.Paste
  6
CONTINUOUS
100
AcDbLine
 10
3.2614136220472441
 20
-4.0921551181102362
 30
0
 11
3.2630323622047244
 21
-4.0949588582677166
 31
0
  0
LINE
  5
83
330
1A
100
AcDbEntity
  8
F.Paste
  6
CONTINUOUS
100
AcDbLine
 10
3.2630323622047244
 20
-4.0949588582677166
 30
0
 11
3.2638702755905511
 21
-4.0980859842519681
 31
0
  0
LINE
  5
84
330
1A
100
AcDbEntity
  8
F.Paste
  6
CONTINUOUS
100
AcDbLine
 10
3.2638702755905511
 20
-4.0980859842519681
 30
0
 11
3.2639763779527557
 21
-4.0997047244094489
 31
0
  0
LINE
  5
85
330
1A
100
AcDbEntity
  8
F.Paste
  6
CONTINUOUS
100
AcDbLine
 10
3.2639763779527557
 20
-4.0997047244094489
 30
0
 11
3.2639763779527557
 21
-4.1483267716535428
 31
0
  0
LINE
  5
86
330
1A
100
AcDbEntity
  8
F.Paste
  6
CONTINUOUS
100
AcDbLine
 10
3.2639763779527557
 20
-4.1483267716535428
 30
0
 11
3.2638702755905511
 21
-4.1499455118110236
 31
0
  0
LINE
  5
87
330
1A
100
AcDbEntity
  8
F.Paste
  6
CONTINUOUS
100
AcDbLine
 10
3.2638702755905511
 20
-4.1499455118110236
 30
0
 11
3.2630323622047244
 21
-4.1530726377952751
 31
0
  0
LINE
  5
88
330
1A
100
AcDbEntity
  8
F.Paste
  6
CONTINUOUS
100
AcDbLine
 10
3.2630323622047244
 20
-4.1530726377952751
 30
0
 11
3.2614136220472441
 21
-4.1558763779527554
 31
0
  0
LINE
  5
89
330
1A
100
AcDbEntity
  8
F.Paste
  6
CONTINUOUS
100
AcDbLine
 10
3.2614136220472441
 20
-4.1558763779527554
 30
0
 11
3.2591244094488188
 21
-4.1581655905511807
 31
0
  0
LINE
  5
8A
330
1A
100
AcDbEntity
  8
F.Paste
  6
CONTINUOUS
100
AcDbLine
 10
3.2591244094488188
 20
-4.1581655905511807
 30
0
 11
3.2563206692913385
 21
-4.1597843307086615
 31
0
  0
LINE
  5
8B
330
1A
100
AcDbEntity
  8
F.Paste
  6
CONTINUOUS
100
AcDbLine
 10
3.2563206692913385
 20
-4.1597843307086615
 30
0
 11
3.2531935433070864
 21
-4.1606222440944878
 31
0
  0
LINE
  5
8C
330
1A
100
AcDbEntity
  8
F.Paste
  6
CONTINUOUS
100
AcDbLine
 10
3.2531935433070864
 20
-4.1606222440944878
 30
0
 11
3.2499560629921258
 21
-4.1606222440944878
 31
0
  0
LINE
  5
8D
330
1A
100
AcDbEntity
  8
F.Paste
  6
CONTINUOUS
100
AcDbLine
 10
3.2499560629921258
 20
-4.1606222440944878
 30
0
 11
3.2468289370078738
 21
-4.1597843307086615
 31
0
  0
LINE
  5
8E
330
1A
100
AcDbEntity
  8
F.Paste
  6
CONTINUOUS
100
AcDbLine
 10
3.2468289370078738
 20
-4.1597843307086615
 30
0
 11
3.2440251968503935
 21
-4.1581655905511807
 31
0
  0
LINE
  5
8F
330
1A
100
AcDbEntity
  8
F.Paste
  6
CONTINUOUS
100
AcDbLine
 10
3.2440251968503935
 20
-4.1581655905511807
 30
0
 11
3.2417359842519686
 21
-4.1558763779527554
 31
0
  0
LINE
  5
90
330
1A
100
AcDbEntity
  8
F.Paste
  6
CONTINUOUS
100
AcDbLine
 10
3.2417359842519686
 20
-4.1558763779527554
 30
0
 11
3.2401172440944883
 21
-4.1530726377952751
 31
0
  0
LINE
  5
91
330
1A
100
AcDbEntity
  8
F.Paste
  6
CONTINUOUS
100
AcDbLine
 10
3.2401172440944883
 20
-4.1530726377952751
 30
0
 11
3.2392793307086611
 21
-4.1499455118110236
 31
0
  0
LINE
  5
92
330
1A
100
AcDbEntity
  8
F.Paste
  6
CONTINUOUS
100
AcDbLine
 10
3.2392793307086611
 20
-4.1499455118110236
 30
0
 11
3.2391732283464565
 21
-4.1483267716535428
 31
0
  0
LINE
  5
93
330
1A
100
AcDbEntity
  8
F.Paste
  6
CONTINUOUS
100
AcDbLine
 10
3.2391732283464565
 20
-4.1483267716535428
 30
0
 11
3.2391732283464565
 21
-4.0997047244094489
 31
0
  0
LINE
  5
94
330
1A
100
AcDbEntity
  8
F.Paste
  6
CONTINUOUS
100
AcDbLine
 10
3.2391732283464565
 20
-4.0997047244094489
 30
0
 11
3.2392793307086611
 21
-4.0980859842519681
 31
0
  0
LINE
  5
95
330
1A
100
AcDbEntity
  8
F.Paste
  6
CONTINUOUS
100
AcDbLine
 10
3.2392793307086611
 20
-4.0980859842519681
 30
0
 11
3.2401172440944883
 21
-4.0949588582677166
 31
0
  0
LINE
  5
96
330
1A
100
AcDbEntity
  8
F.Paste
  6
CONTINUOUS
100
AcDbLine
 10
3.2401172440944883
 20
-4.0949588582677166
 30
0
 11
3.2417359842519686
 21
-4.0921551181102362
 31
0
  0
LINE
  5
97
330
1A
100
AcDbEntity
  8
F.Paste
  6
CONTINUOUS
100
AcDbLine
 10
3.2417359842519686
 20
-4.0921551181102362
 30
0
 11
3.2440251968503935
 21
-4.089865905511811
 31
0
  0
LINE
  5
98
330
1A
100
AcDbEntity
  8
F.Paste
  6
CONTINUOUS
100
AcDbLine
 10
3.2440251968503935
 20
-4.089865905511811
 30
0
 11
3.2468289370078738
 21
-4.0882471653543302
 31
0
  0
LINE
  5
99
330
1A
100
AcDbEntity
  8
F.Paste
  6
CONTINUOUS
100
AcDbLine
 10
3.2468289370078738
 20
-4.0882471653543302
 30
0
 11
3.2499560629921258
 21
-4.0874092519685039
 31
0
  0
LINE
  5
9A
330
1A
100
AcDbEntity
  8
F.Paste
  6
CONTINUOUS
100
AcDbLine
 10
3.2499560629921258
 20
-4.0874092519685039
 30
0
 11
3.2531935433070864
 21
-4.0874092519685039
 31
0
  0
LINE
  5
9B
330
1A
100
AcDbEntity
  8
F.Paste
  6
CONTINUOUS
100
AcDbLine
 10
3.2531935433070864
 20
-4.0874092519685039
 30
0
 11
3.2563206692913385
 21
-4.0882471653543302
 31
0
  0
LINE
  5
9C
330
1A
100
AcDbEntity
  8
F.Paste
  6
CONTINUOUS
100
AcDbLine
 10
3.30671437007874
 20
-4.0882471653543302
 30
0
 11
3.3095181102362203
 21
-4.089865905511811
 31
0
  0
LINE
  5
9D
330
1A
100
AcDbEntity
  8
F.Paste
  6
CONTINUOUS
100
AcDbLine
 10
3.3095181102362203
 20
-4.089865905511811
 30
0
 11
3.3118073228346456
 21
-4.0921551181102362
 31
0
  0
LINE
  5
9E
330
1A
100
AcDbEntity
  8
F.Paste
  6
CONTINUOUS
100
AcDbLine
 10
3.3118073228346456
 20
-4.0921551181102362
 30
0
 11
3.3134260629921259
 21
-4.0949588582677166
 31
0
  0
LINE
  5
9F
330
1A
100
AcDbEntity
  8
F.Paste
  6
CONTINUOUS
100
AcDbLine
 10
3.3134260629921259
 20
-4.0949588582677166
 30
0
 11
3.3142639763779527
 21
-4.0980859842519681
 31
0
  0
LINE
  5
A0
330
1A
100
AcDbEntity
  8
F.Paste
  6
CONTINUOUS
100
AcDbLine
 10
3.3142639763779527
 20
-4.0980859842519681
 30
0
 11
3.3143700787401573
 21
-4.0997047244094489
 31
0
  0
LINE
  5
A1
330
1A
100
AcDbEntity
  8
F.Paste
  6
CONTINUOUS
100
AcDbLine
 10
3.3143700787401573
 20
-4.0997047244094489
 30
0
 11
3.3143700787401573
 21
-4.1483267716535428
 31
0
  0
LINE
  5
A2
330
1A
100
AcDbEntity
  8
F.Paste
  6
CONTINUOUS
100
AcDbLine
 10
3.3143700787401573
 20
-4.1483267716535428
 30
0
 11
3.3142639763779527
 21
-4.1499455118110236
 31
0
  0
LINE
  5
A3
330
1A
100
AcDbEntity
  8
F.Paste
  6
CONTINUOUS
100
AcDbLine
 10
3.3142639763779527
 20
-4.1499455118110236
 30
0
 11
3.3134260629921259
 21
-4.1530726377952751
 31
0
  0
LINE
  5
A4
330
1A
100
AcDbEntity
  8
F.Paste
  6
CONTINUOUS
100
AcDbLine
 10
3.3134260629921259
 20
-4.1530726377952751
 30
0
 11
3.3118073228346456
 21
-4.1558763779527554
 31
0
  0
LINE
  5
A5
330
1A
100
AcDbEntity
  8
F.Paste
  6
CONTINUOUS
100
AcDbLine
 10
3.3118073228346456
 20
-4.1558763779527554
 30
0
 11
3.3095181102362203
 21
-4.1581655905511807
 31
0
  0
LINE
  5
A6
330
1A
100
AcDbEntity
  8
F.Paste
  6
CONTINUOUS
100
AcDbLine
 10
3.3095181102362203
 20
-4.1581655905511807
 30
0
 11
3.30671437007874
 21
-4.1597843307086615
 31
0
  0
LINE
  5
A7
330
1A
100
AcDbEntity
  8
F.Paste
  6
CONTINUOUS
100
AcDbLine
 10
3.30671437007874
 20
-4.1597843307086615
 30
0
 11
3.303587244094488
 21
-4.1606222440944878
 31
0
  0
LINE
  5
A8
330
1A
100
AcDbEntity
  8
F.Paste
  6
CONTINUOUS
100
AcDbLine
 10
3.303587244094488
 20
-4.1606222440944878
 30
0
 11
3.3003497637795274
 21
-4.1606222440944878
 31
0
  0
LINE
  5
A9
330
1A
100
AcDbEntity
  8
F.Paste
  6
CONTINUOUS
100
AcDbLine
 10
3.3003497637795274
 20
-4.1606222440944878
 30
0
 11
3.2972226377952754
 21
-4.1597843307086615
 31
0
  0
LINE
  5
AA
330
1A
100
AcDbEntity
  8
F.Paste
  6
CONTINUOUS
100
AcDbLine
 10
3.2972226377952754
 20
-4.1597843307086615
 30
0
 11
3.2944188976377951
 21
-4.1581655905511807
 31
0
  0
LINE
  5
AB
330
1A
100
AcDbEntity
  8
F.Paste
  6
CONTINUOUS
100
AcDbLine
 10
3.2944188976377951
 20
-4.1581655905511807
 30
0
 11
3.2921296850393702
 21
-4.1558763779527554
 31
0
  0
LINE
  5
AC
330
1A
100
AcDbEntity
  8
F.Paste
  6
CONTINUOUS
100
AcDbLine
 10
3.2921296850393702
 20
-4.1558763779527554
 30
0
 11
3.2905109448818899
 21
-4.1530726377952751
 31
0
  0
LINE
  5
AD
330
1A
100
AcDbEntity
  8
F.Paste
  6
CONTINUOUS
100
AcDbLine
 10
3.2905109448818899
 20
-4.1530726377952751
 30
0
 11
3.2896730314960627
 21
-4.1499455118110236
 31
0
  0
LINE
  5
AE
330
1A
100
AcDbEntity
  8
F.Paste
  6
CONTINUOUS
100
AcDbLine
 10
3.2896730314960627
 20
-4.1499455118110236
 30
0
 11
3.2895669291338581
 21
-4.1483267716535428
 31
0
  0
LINE
  5
AF
330
1A
100
AcDbEntity
  8
F.Paste
  6
CONTINUOUS
100
AcDbLine
 10
3.2895669291338581
 20
-4.1483267716535428
 30
0
 11
3.2895669291338581
 21
-4.0997047244094489
 31
0
  0
LINE
  5
B0
330
1A
100
AcDbEntity
  8
F.Paste
  6
CONTINUOUS
100
AcDbLine
 10
3.2895669291338581
 20
-4.0997047244094489
 30
0
 11
3.2896730314960627
 21
-4.0980859842519681
 31
0
  0
LINE
  5
B1
330
1A
100
AcDbEntity
  8
F.Paste
  6
CONTINUOUS
100
AcDbLine
 10
3.2896730314960627
 20
-4.0980859842519681
 30
0
 11
3.2905109448818899
 21
-4.0949588582677166
 31
0
  0
LINE
  5
B2
330
1A
100
AcDbEntity
  8
F.Paste
  6
CONTINUOUS
100
AcDbLine
 10
3.2905109448818899
 20
-4.0949588582677166
 30
0
 11
3.2921296850393702
 21
-4.0921551181102362
 31
0
  0
LINE
  5
B3
330
1A
100
AcDbEntity
  8
F.Paste
  6
CONTINUOUS
100
AcDbLine
 10
3.2921296850393702
 20
-4.0921551181102362
 30
0
 11
3.2944188976377951
 21
-4.089865905511811
 31
0
  0
LINE
  5
B4
330
1A
100
AcDbEntity
  8
F.Paste
  6
CONTINUOUS
100
AcDbLine
 10
3.2944188976377951
 20
-4.089865905511811
 30
0
 11
3.2972226377952754
 21
-4.0882471653543302
 31
0
  0
LINE
  5
B5
330
1A
100
AcDbEntity
  8
F.Paste
  6
CONTINUOUS
100
AcDbLine
 10
3.2972226377952754
 20
-4.0882471653543302
 30
0
 11
3.3003497637795274
 21
-4.0874092519685039
 31
0
  0
LINE
  5
B6
330
1A
100
AcDbEntity
  8
F.Paste
  6
CONTINUOUS
100
AcDbLine
 10
3.3003497637795274
 20
-4.0874092519685039
 30
0
 11
3.303587244094488
 21
-4.0874092519685039
 31
0
  0
LINE
  5
B7
330
1A
100
AcDbEntity
  8
F.Paste
  6
CONTINUOUS
100
AcDbLine
 10
3.303587244094488
 20
-4.0874092519685039
 30
0
 11
3.30671437007874
 21
-4.0882471653543302
 31
0
  0
LINE
  5
B8
330
1A
100
AcDbEntity
  8
F.Paste
  6
CONTINUOUS
100
AcDbLine
 10
3.3563206692913385
 20
-4.0882471653543302
 30
0
 11
3.3591244094488188
 21
-4.089865905511811
 31
0
  0
LINE
  5
B9
330
1A
100
AcDbEntity
  8
F.Paste
  6
CONTINUOUS
100
AcDbLine
 10
3.3591244094488188
 20
-4.089865905511811
 30
0
 11
3.3614136220472441
 21
-4.0921551181102362
 31
0
  0
LINE
  5
BA
330
1A
100
AcDbEntity
  8
F.Paste
  6
CONTINUOUS
100
AcDbLine
 10
3.3614136220472441
 20
-4.0921551181102362
 30
0
 11
3.3630323622047245
 21
-4.0949588582677166
 31
0
  0
LINE
  5
BB
330
1A
100
AcDbEntity
  8
F.Paste
  6
CONTINUOUS
100
AcDbLine
 10
3.3630323622047245
 20
-4.0949588582677166
 30
0
 11
3.3638702755905512
 21
-4.0980859842519681
 31
0
  0
LINE
  5
BC
330
1A
100
AcDbEntity
  8
F.Paste
  6
CONTINUOUS
100
AcDbLine
 10
3.3638702755905512
 20
-4.0980859842519681
 30
0
 11
3.3639763779527558
 21
-4.0997047244094489
 31
0
  0
LINE
  5
BD
330
1A
100
AcDbEntity
  8
F.Paste
  6
CONTINUOUS
100
AcDbLine
 10
3.3639763779527558
 20
-4.0997047244094489
 30
0
 11
3.3639763779527558
 21
-4.1483267716535428
 31
0
  0
LINE
  5
BE
330
1A
100
AcDbEntity
  8
F.Paste
  6
CONTINUOUS
100
AcDbLine
 10
3.3639763779527558
 20
-4.1483267716535428
 30
0
 11
3.3638702755905512
 21
-4.1499455118110236
 31
0
  0
LINE
  5
BF
330
1A
100
AcDbEntity
  8
F.Paste
  6
CONTINUOUS
100
AcDbLine
 10
3.3638702755905512
 20
-4.1499455118110236
 30
0
 11
3.3630323622047245
 21
-4.1530726377952751
 31
0
  0
LINE
  5
C0
330
1A
100
AcDbEntity
  8
F.Paste
  6
CONTINUOUS
100
AcDbLine
 10
3.3630323622047245
 20
-4.1530726377952751
 30
0
 11
3.3614136220472441
 21
-4.1558763779527554
 31
0
  0
LINE
  5
C1
330
1A
100
AcDbEntity
  8
F.Paste
  6
CONTINUOUS
100
AcDbLine
 10
3.3614136220472441
 20
-4.1558763779527554
 30
0
 11
3.3591244094488188
 21
-4.1581655905511807
 31
0
  0
LINE
  5
C2
330
1A
100
AcDbEntity
  8
F.Paste
  6
CONTINUOUS
100
AcDbLine
 10
3.3591244094488188
 20
-4.1581655905511807
 30
0
 11
3.3563206692913385
 21
-4.1597843307086615
 31
0
  0
LINE
  5
C3
330
1A
100
AcDbEntity
  8
F.Paste
  6
CONTINUOUS
100
AcDbLine
 10
3.3563206692913385
 20
-4.1597843307086615
 30
0
 11
3.3531935433070865
 21
-4.1606222440944878
 31
0
  0
LINE
  5
C4
330
1A
100
AcDbEntity
  8
F.Paste
  6
CONTINUOUS
100
AcDbLine
 10
3.3531935433070865
 20
-4.1606222440944878
 30
0
 11
3.3499560629921259
 21
-4.1606222440944878
 31
0
  0
LINE
  5
C5
330
1A
100
AcDbEntity
  8
F.Paste
  6
CONTINUOUS
100
AcDbLine
 10
3.3499560629921259
 20
-4.1606222440944878
 30
0
 11
3.3468289370078739
 21
-4.1597843307086615
 31
0
  0
LINE
  5
C6
330
1A
100
AcDbEntity
  8
F.Paste
  6
CONTINUOUS
100
AcDbLine
 10
3.3468289370078739
 20
-4.1597843307086615
 30
0
 11
3.3440251968503936
 21
-4.1581655905511807
 31
0
  0
LINE
  5
C7
330
1A
100
AcDbEntity
  8
F.Paste
  6
CONTINUOUS
100
AcDbLine
 10
3.3440251968503936
 20
-4.1581655905511807
 30
0
 11
3.3417359842519683
 21
-4.1558763779527554
 31
0
  0
LINE
  5
C8
330
1A
100
AcDbEntity
  8
F.Paste
  6
CONTINUOUS
100
AcDbLine
 10
3.3417359842519683
 20
-4.1558763779527554
 30
0
 11
3.340117244094488
 21
-4.1530726377952751
 31
0
  0
LINE
  5
C9
330
1A
100
AcDbEntity
  8
F.Paste
  6
CONTINUOUS
100
AcDbLine
 10
3.340117244094488
 20
-4.1530726377952751
 30
0
 11
3.3392793307086612
 21
-4.1499455118110236
 31
0
  0
LINE
  5
CA
330
1A
100
AcDbEntity
  8
F.Paste
  6
CONTINUOUS
100
AcDbLine
 10
3.3392793307086612
 20
-4.1499455118110236
 30
0
 11
3.3391732283464566
 21
-4.1483267716535428
 31
0
  0
LINE
  5
CB
330
1A
100
AcDbEntity
  8
F.Paste
  6
CONTINUOUS
100
AcDbLine
 10
3.3391732283464566
 20
-4.1483267716535428
 30
0
 11
3.3391732283464566
 21
-4.0997047244094489
 31
0
  0
LINE
  5
CC
330
1A
100
AcDbEntity
  8
F.Paste
  6
CONTINUOUS
100
AcDbLine
 10
3.3391732283464566
 20
-4.0997047244094489
 30
0
 11
3.3392793307086612
 21
-4.0980859842519681
 31
0
  0
LINE
  5
CD
330
1A
100
AcDbEntity
  8
F.Paste
  6
CONTINUOUS
100
AcDbLine
 10
3.3392793307086612
 20
-4.0980859842519681
 30
0
 11
3.340117244094488
 21
-4.0949588582677166
 31
0
  0
LINE
  5
CE
330
1A
100
AcDbEntity
  8
F.Paste
  6
CONTINUOUS
100
AcDbLine
 10
3.340117244094488
 20
-4.0949588582677166
 30
0
 11
3.3417359842519683
 21
-4.0921551181102362
 31
0
  0
LINE
  5
CF
330
1A
100
AcDbEntity
  8
F.Paste
  6
CONTINUOUS
100
AcDbLine
 10
3.3417359842519683
 20
-4.0921551181102362
 30
0
 11
3.3440251968503936
 21
-4.089865905511811
 31
0
  0
LINE
  5
D0
330
1A
100
AcDbEntity
  8
F.Paste
  6
CONTINUOUS
100
AcDbLine
 10
3.3440251968503936
 20
-4.089865905511811
 30
0
 11
3.3468289370078739
 21
-4.0882471653543302
 31
0
  0
LINE
  5
D1
330
1A
100
AcDbEntity
  8
F.Paste
  6
CONTINUOUS
100
AcDbLine
 10
3.3468289370078739
 20
-4.0882471653543302
 30
0
 11
3.3499560629921259
 21
-4.0874092519685039
 31
0
  0
LINE
  5
D2
330
1A
100
AcDbEntity
  8
F.Paste
  6
CONTINUOUS
100
AcDbLine
 10
3.3499560629921259
 20
-4.0874092519685039
 30
0
 11
3.3531935433070865
 21
-4.0874092519685039
 31
0
  0
LINE
  5
D3
330
1A
100
AcDbEntity
  8
F.Paste
  6
CONTINUOUS
100
AcDbLine
 10
3.3531935433070865
 20
-4.0874092519685039
 30
0
 11
3.3563206692913385
 21
-4.0882471653543302
 31
0
  0
LINE
  5
D4
330
1A
100
AcDbEntity
  8
F.Paste
  6
CONTINUOUS
100
AcDbLine
 10
3.4063206692913384
 20
-4.0882471653543302
 30
0
 11
3.4091244094488187
 21
-4.089865905511811
 31
0
  0
LINE
  5
D5
330
1A
100
AcDbEntity
  8
F.Paste
  6
CONTINUOUS
100
AcDbLine
 10
3.4091244094488187
 20
-4.089865905511811
 30
0
 11
3.411413622047244
 21
-4.0921551181102362
 31
0
  0
LINE
  5
D6
330
1A
100
AcDbEntity
  8
F.Paste
  6
CONTINUOUS
100
AcDbLine
 10
3.411413622047244
 20
-4.0921551181102362
 30
0
 11
3.4130323622047243
 21
-4.0949588582677166
 31
0
  0
LINE
  5
D7
330
1A
100
AcDbEntity
  8
F.Paste
  6
CONTINUOUS
100
AcDbLine
 10
3.4130323622047243
 20
-4.0949588582677166
 30
0
 11
3.413870275590551
 21
-4.0980859842519681
 31
0
  0
LINE
  5
D8
330
1A
100
AcDbEntity
  8
F.Paste
  6
CONTINUOUS
100
AcDbLine
 10
3.413870275590551
 20
-4.0980859842519681
 30
0
 11
3.4139763779527557
 21
-4.0997047244094489
 31
0
  0
LINE
  5
D9
330
1A
100
AcDbEntity
  8
F.Paste
  6
CONTINUOUS
100
AcDbLine
 10
3.4139763779527557
 20
-4.0997047244094489
 30
0
 11
3.4139763779527557
 21
-4.1483267716535428
 31
0
  0
LINE
  5
DA
330
1A
100
AcDbEntity
  8
F.Paste
  6
CONTINUOUS
100
AcDbLine
 10
3.4139763779527557
 20
-4.1483267716535428
 30
0
 11
3.413870275590551
 21
-4.1499455118110236
 31
0
  0
LINE
  5
DB
330
1A
100
AcDbEntity
  8
F.Paste
  6
CONTINUOUS
100
AcDbLine
 10
3.413870275590551
 20
-4.1499455118110236
 30
0
 11
3.4130323622047243
 21
-4.1530726377952751
 31
0
  0
LINE
  5
DC
330
1A
100
AcDbEntity
  8
F.Paste
  6
CONTINUOUS
100
AcDbLine
 10
3.4130323622047243
 20
-4.1530726377952751
 30
0
 11
3.411413622047244
 21
-4.1558763779527554
 31
0
  0
LINE
  5
DD
330
1A
100
AcDbEntity
  8
F.Paste
  6
CONTINUOUS
100
AcDbLine
 10
3.411413622047244
 20
-4.1558763779527554
 30
0
 11
3.4091244094488187
 21
-4.1581655905511807
 31
0
  0
LINE
  5
DE
330
1A
100
AcDbEntity
  8
F.Paste
  6
CONTINUOUS
100
AcDbLine
 10
3.4091244094488187
 20
-4.1581655905511807
 30
0
 11
3.4063206692913384
 21
-4.1597843307086615
 31
0
  0
LINE
  5
DF
330
1A
100
AcDbEntity
  8
F.Paste
  6
CONTINUOUS
100
AcDbLine
 10
3.4063206692913384
 20
-4.1597843307086615
 30
0
 11
3.4031935433070863
 21
-4.1606222440944878
 31
0
  0
LINE
  5
E0
330
1A
100
AcDbEntity
  8
F.Paste
  6
CONTINUOUS
100
AcDbLine
 10
3.4031935433070863
 20
-4.1606222440944878
 30
0
 11
3.3999560629921257
 21
-4.1606222440944878
 31
0
  0
LINE
  5
E1
330
1A
100
AcDbEntity
  8
F.Paste
  6
CONTINUOUS
100
AcDbLine
 10
3.3999560629921257
 20
-4.1606222440944878
 30
0
 11
3.3968289370078741
 21
-4.1597843307086615
 31
0
  0
LINE
  5
E2
330
1A
100
AcDbEntity
  8
F.Paste
  6
CONTINUOUS
100
AcDbLine
 10
3.3968289370078741
 20
-4.1597843307086615
 30
0
 11
3.3940251968503938
 21
-4.1581655905511807
 31
0
  0
LINE
  5
E3
330
1A
100
AcDbEntity
  8
F.Paste
  6
CONTINUOUS
100
AcDbLine
 10
3.3940251968503938
 20
-4.1581655905511807
 30
0
 11
3.3917359842519685
 21
-4.1558763779527554
 31
0
  0
LINE
  5
E4
330
1A
100
AcDbEntity
  8
F.Paste
  6
CONTINUOUS
100
AcDbLine
 10
3.3917359842519685
 20
-4.1558763779527554
 30
0
 11
3.3901172440944882
 21
-4.1530726377952751
 31
0
  0
LINE
  5
E5
330
1A
100
AcDbEntity
  8
F.Paste
  6
CONTINUOUS
100
AcDbLine
 10
3.3901172440944882
 20
-4.1530726377952751
 30
0
 11
3.3892793307086615
 21
-4.1499455118110236
 31
0
  0
LINE
  5
E6
330
1A
100
AcDbEntity
  8
F.Paste
  6
CONTINUOUS
100
AcDbLine
 10
3.3892793307086615
 20
-4.1499455118110236
 30
0
 11
3.3891732283464564
 21
-4.1483267716535428
 31
0
  0
LINE
  5
E7
330
1A
100
AcDbEntity
  8
F.Paste
  6
CONTINUOUS
100
AcDbLine
 10
3.3891732283464564
 20
-4.1483267716535428
 30
0
 11
3.3891732283464564
 21
-4.0997047244094489
 31
0
  0
LINE
  5
E8
330
1A
100
AcDbEntity
  8
F.Paste
  6
CONTINUOUS
100
AcDbLine
 10
3.3891732283464564
 20
-4.0997047244094489
 30
0
 11
3.3892793307086615
 21
-4.0980859842519681
 31
0
  0
LINE
  5
E9
330
1A
100
AcDbEntity
  8
F.Paste
  6
CONTINUOUS
100
AcDbLine
 10
3.3892793307086615
 20
-4.0980859842519681
 30
0
 11
3.3901172440944882
 21
-4.0949588582677166
 31
0
  0
LINE
  5
EA
330
1A
100
AcDbEntity
  8
F.Paste
  6
CONTINUOUS
100
AcDbLine
 10
3.3901172440944882
 20
-4.0949588582677166
 30
0
 11
3.3917359842519685
 21
-4.0921551181102362
 31
0
  0
LINE
  5
EB
330
1A
100
AcDbEntity
  8
F.Paste
  6
CONTINUOUS
100
AcDbLine
 10
3.3917359842519685
 20
-4.0921551181102362
 30
0
 11
3.3940251968503938
 21
-4.089865905511811
 31
0
  0
LINE
  5
EC
330
1A
100
AcDbEntity
  8
F.Paste
  6
CONTINUOUS
100
AcDbLine
 10
3.3940251968503938
 20
-4.089865905511811
 30
0
 11
3.3968289370078741
 21
-4.0882471653543302
 31
0
  0
LINE
  5
ED
330
1A
100
AcDbEntity
  8
F.Paste
  6
CONTINUOUS
100
AcDbLine
 10
3.3968289370078741
 20
-4.0882471653543302
 30
0
 11
3.3999560629921257
 21
-4.0874092519685039
 31
0
  0
LINE
  5
EE
330
1A
100
AcDbEntity
  8
F.Paste
  6
CONTINUOUS
100
AcDbLine
 10
3.3999560629921257
 20
-4.0874092519685039
 30
0
 11
3.4031935433070863
 21
-4.0874092519685039
 31
0
  0
LINE
  5
EF
330
1A
100
AcDbEntity
  8
F.Paste
  6
CONTINUOUS
100
AcDbLine
 10
3.4031935433070863
 20
-4.0874092519685039
 30
0
 11
3.4063206692913384
 21
-4.0882471653543302
 31
0
  0
LINE
  5
F0
330
1A
100
AcDbEntity
  8
F.Paste
  6
CONTINUOUS
100
AcDbLine
 10
2.8346456692913384
 20
-4.1574803149606296
 30
0
 11
2.8031496062992125
 21
-4.1574803149606296
 31
0
  0
LINE
  5
F1
330
1A
100
AcDbEntity
  8
F.Paste
  6
CONTINUOUS
100
AcDbLine
 10
2.8031496062992125
 20
-4.1574803149606296
 30
0
 11
2.8031496062992125
 21
-4.090551181102362
 31
0
  0
LINE
  5
F2
330
1A
100
AcDbEntity
  8
F.Paste
  6
CONTINUOUS
100
AcDbLine
 10
2.8031496062992125
 20
-4.090551181102362
 30
0
 11
2.8346456692913384
 21
-4.090551181102362
 31
0
  0
LINE
  5
F3
330
1A
100
AcDbEntity
  8
F.Paste
  6
CONTINUOUS
100
AcDbLine
 10
2.8346456692913384
 20
-4.090551181102362
 30
0
 11
2.8346456692913384
 21
-4.1574803149606296
 31
0
  0
LINE
  5
F4
330
1A
100
AcDbEntity
  8
F.Paste
  6
CONTINUOUS
100
AcDbLine
 10
2.9685039370078741
 20
-4.1574803149606296
 30
0
 11
2.9370078740157481
 21
-4.1574803149606296
 31
0
  0
LINE
  5
F5
330
1A
100
AcDbEntity
  8
F.Paste
  6
CONTINUOUS
100
AcDbLine
 10
2.9370078740157481
 20
-4.1574803149606296
 30
0
 11
2.9370078740157481
 21
-4.090551181102362
 31
0
  0
LINE
  5
F6
330
1A
100
AcDbEntity
  8
F.Paste
  6
CONTINUOUS
100
AcDbLine
 10
2.9370078740157481
 20
-4.090551181102362
 30
0
 11
2.9685039370078741
 21
-4.090551181102362
 31
0
  0
LINE
  5
F7
330
1A
100
AcDbEntity
  8
F.Paste
  6
CONTINUOUS
100
AcDbLine
 10
2.9685039370078741
 20
-4.090551181102362
 30
0
 11
2.9685039370078741
 21
-4.1574803149606296
 31
0
  0
LINE
  5
F8
330
1A
100
AcDbEntity
  8
F.Paste
  6
CONTINUOUS
100
AcDbLine
 10
3.0378511023622048
 20
-4.0631794488188975
 30
0
 11
3.03864937007874
 21
-4.0637128346456688
 31
0
  0
LINE
  5
F9
330
1A
100
AcDbEntity
  8
F.Paste
  6
CONTINUOUS
100
AcDbLine
 10
3.03864937007874
 20
-4.0637128346456688
 30
0
 11
3.0391827559055118
 21
-4.0645111023622045
 31
0
  0
LINE
  5
FA
330
1A
100
AcDbEntity
  8
F.Paste
  6
CONTINUOUS
100
AcDbLine
 10
3.0391827559055118
 20
-4.0645111023622045
 30
0
 11
3.0393700787401574
 21
-4.065452755905512
 31
0
  0
LINE
  5
FB
330
1A
100
AcDbEntity
  8
F.Paste
  6
CONTINUOUS
100
AcDbLine
 10
3.0393700787401574
 20
-4.065452755905512
 30
0
 11
3.0393700787401574
 21
-4.0871062992125982
 31
0
  0
LINE
  5
FC
330
1A
100
AcDbEntity
  8
F.Paste
  6
CONTINUOUS
100
AcDbLine
 10
3.0393700787401574
 20
-4.0871062992125982
 30
0
 11
3.0391827559055118
 21
-4.0880479527559057
 31
0
  0
LINE
  5
FD
330
1A
100
AcDbEntity
  8
F.Paste
  6
CONTINUOUS
100
AcDbLine
 10
3.0391827559055118
 20
-4.0880479527559057
 30
0
 11
3.03864937007874
 21
-4.0888462204724405
 31
0
  0
LINE
  5
FE
330
1A
100
AcDbEntity
  8
F.Paste
  6
CONTINUOUS
100
AcDbLine
 10
3.03864937007874
 20
-4.0888462204724405
 30
0
 11
3.0378511023622048
 21
-4.0893796062992127
 31
0
  0
LINE
  5
FF
330
1A
100
AcDbEntity
  8
F.Paste
  6
CONTINUOUS
100
AcDbLine
 10
3.0378511023622048
 20
-4.0893796062992127
 30
0
 11
3.0369094488188977
 21
-4.0895669291338583
 31
0
  0
LINE
  5
100
330
1A
100
AcDbEntity
  8
F.Paste
  6
CONTINUOUS
100
AcDbLine
 10
3.0369094488188977
 20
-4.0895669291338583
 30
0
 11
3.0319881889763778
 21
-4.0895669291338583
 31
0
  0
LINE
  5
101
330
1A
100
AcDbEntity
  8
F.Paste
  6
CONTINUOUS
100
AcDbLine
 10
3.0319881889763778
 20
-4.0895669291338583
 30
0
 11
3.0310465354330707
 21
-4.0893796062992127
 31
0
  0
LINE
  5
102
330
1A
100
AcDbEntity
  8
F.Paste
  6
CONTINUOUS
100
AcDbLine
 10
3.0310465354330707
 20
-4.0893796062992127
 30
0
 11
3.0302482677165354
 21
-4.0888462204724405
 31
0
  0
LINE
  5
103
330
1A
100
AcDbEntity
  8
F.Paste
  6
CONTINUOUS
100
AcDbLine
 10
3.0302482677165354
 20
-4.0888462204724405
 30
0
 11
3.0297148818897637
 21
-4.0880479527559057
 31
0
  0
LINE
  5
104
330
1A
100
AcDbEntity
  8
F.Paste
  6
CONTINUOUS
100
AcDbLine
 10
3.0297148818897637
 20
-4.0880479527559057
 30
0
 11
3.0295275590551181
 21
-4.0871062992125982
 31
0
  0
LINE
  5
105
330
1A
100
AcDbEntity
  8
F.Paste
  6
CONTINUOUS
100
AcDbLine
 10
3.0295275590551181
 20
-4.0871062992125982
 30
0
 11
3.0295275590551181
 21
-4.065452755905512
 31
0
  0
LINE
  5
106
330
1A
100
AcDbEntity
  8
F.Paste
  6
CONTINUOUS
100
AcDbLine
 10
3.0295275590551181
 20
-4.065452755905512
 30
0
 11
3.0297148818897637
 21
-4.0645111023622045
 31
0
  0
LINE
  5
107
330
1A
100
AcDbEntity
  8
F.Paste
  6
CONTINUOUS
100
AcDbLine
 10
3.0297148818897637
 20
-4.0645111023622045
 30
0
 11
3.0302482677165354
 21
-4.0637128346456688
 31
0
  0
LINE
  5
108
330
1A
100
AcDbEntity
  8
F.Paste
  6
CONTINUOUS
100
AcDbLine
 10
3.0302482677165354
 20
-4.0637128346456688
 30
0
 11
3.0310465354330707
 21
-4.0631794488188975
 31
0
  0
LINE
  5
109
330
1A
100
AcDbEntity
  8
F.Paste
  6
CONTINUOUS
100
AcDbLine
 10
3.0310465354330707
 20
-4.0631794488188975
 30
0
 11
3.0319881889763778
 21
-4.0629921259842519
 31
0
  0
LINE
  5
10A
330
1A
100
AcDbEntity
  8
F.Paste
  6
CONTINUOUS
100
AcDbLine
 10
3.0319881889763778
 20
-4.0629921259842519
 30
0
 11
3.0369094488188977
 21
-4.0629921259842519
 31
0
  0
LINE
  5
10B
330
1A
100
AcDbEntity
  8
F.Paste
  6
CONTINUOUS
100
AcDbLine
 10
3.0369094488188977
 20
-4.0629921259842519
 30
0
 11
3.0378511023622048
 21
-4.0631794488188975
 31
0
  0
LINE
  5
10C
330
1A
100
AcDbEntity
  8
F.Paste
  6
CONTINUOUS
100
AcDbLine
 10
3.0575361417322835
 20
-4.0631794488188975
 30
0
 11
3.0583344094488187
 21
-4.0637128346456688
 31
0
  0
LINE
  5
10D
330
1A
100
AcDbEntity
  8
F.Paste
  6
CONTINUOUS
100
AcDbLine
 10
3.0583344094488187
 20
-4.0637128346456688
 30
0
 11
3.0588677952755905
 21
-4.0645111023622045
 31
0
  0
LINE
  5
10E
330
1A
100
AcDbEntity
  8
F.Paste
  6
CONTINUOUS
100
AcDbLine
 10
3.0588677952755905
 20
-4.0645111023622045
 30
0
 11
3.0590551181102361
 21
-4.065452755905512
 31
0
  0
LINE
  5
10F
330
1A
100
AcDbEntity
  8
F.Paste
  6
CONTINUOUS
100
AcDbLine
 10
3.0590551181102361
 20
-4.065452755905512
 30
0
 11
3.0590551181102361
 21
-4.0871062992125982
 31
0
  0
LINE
  5
110
330
1A
100
AcDbEntity
  8
F.Paste
  6
CONTINUOUS
100
AcDbLine
 10
3.0590551181102361
 20
-4.0871062992125982
 30
0
 11
3.0588677952755905
 21
-4.0880479527559057
 31
0
  0
LINE
  5
111
330
1A
100
AcDbEntity
  8
F.Paste
  6
CONTINUOUS
100
AcDbLine
 10
3.0588677952755905
 20
-4.0880479527559057
 30
0
 11
3.0583344094488187
 21
-4.0888462204724405
 31
0
  0
LINE
  5
112
330
1A
100
AcDbEntity
  8
F.Paste
  6
CONTINUOUS
100
AcDbLine
 10
3.0583344094488187
 20
-4.0888462204724405
 30
0
 11
3.0575361417322835
 21
-4.0893796062992127
 31
0
  0
LINE
  5
113
330
1A
100
AcDbEntity
  8
F.Paste
  6
CONTINUOUS
100
AcDbLine
 10
3.0575361417322835
 20
-4.0893796062992127
 30
0
 11
3.0565944881889764
 21
-4.0895669291338583
 31
0
  0
LINE
  5
114
330
1A
100
AcDbEntity
  8
F.Paste
  6
CONTINUOUS
100
AcDbLine
 10
3.0565944881889764
 20
-4.0895669291338583
 30
0
 11
3.0516732283464565
 21
-4.0895669291338583
 31
0
  0
LINE
  5
115
330
1A
100
AcDbEntity
  8
F.Paste
  6
CONTINUOUS
100
AcDbLine
 10
3.0516732283464565
 20
-4.0895669291338583
 30
0
 11
3.0507315748031494
 21
-4.0893796062992127
 31
0
  0
LINE
  5
116
330
1A
100
AcDbEntity
  8
F.Paste
  6
CONTINUOUS
100
AcDbLine
 10
3.0507315748031494
 20
-4.0893796062992127
 30
0
 11
3.0499333070866141
 21
-4.0888462204724405
 31
0
  0
LINE
  5
117
330
1A
100
AcDbEntity
  8
F.Paste
  6
CONTINUOUS
100
AcDbLine
 10
3.0499333070866141
 20
-4.0888462204724405
 30
0
 11
3.0493999212598424
 21
-4.0880479527559057
 31
0
  0
LINE
  5
118
330
1A
100
AcDbEntity
  8
F.Paste
  6
CONTINUOUS
100
AcDbLine
 10
3.0493999212598424
 20
-4.0880479527559057
 30
0
 11
3.0492125984251968
 21
-4.0871062992125982
 31
0
  0
LINE
  5
119
330
1A
100
AcDbEntity
  8
F.Paste
  6
CONTINUOUS
100
AcDbLine
 10
3.0492125984251968
 20
-4.0871062992125982
 30
0
 11
3.0492125984251968
 21
-4.065452755905512
 31
0
  0
LINE
  5
11A
330
1A
100
AcDbEntity
  8
F.Paste
  6
CONTINUOUS
100
AcDbLine
 10
3.0492125984251968
 20
-4.065452755905512
 30
0
 11
3.0493999212598424
 21
-4.0645111023622045
 31
0
  0
LINE
  5
11B
330
1A
100
AcDbEntity
  8
F.Paste
  6
CONTINUOUS
100
AcDbLine
 10
3.0493999212598424
 20
-4.0645111023622045
 30
0
 11
3.0499333070866141
 21
-4.0637128346456688
 31
0
  0
LINE
  5
11C
330
1A
100
AcDbEntity
  8
F.Paste
  6
CONTINUOUS
100
AcDbLine
 10
3.0499333070866141
 20
-4.0637128346456688
 30
0
 11
3.0507315748031494
 21
-4.0631794488188975
 31
0
  0
LINE
  5
11D
330
1A
100
AcDbEntity
  8
F.Paste
  6
CONTINUOUS
100
AcDbLine
 10
3.0507315748031494
 20
-4.0631794488188975
 30
0
 11
3.0516732283464565
 21
-4.0629921259842519
 31
0
  0
LINE
  5
11E
330
1A
100
AcDbEntity
  8
F.Paste
  6
CONTINUOUS
100
AcDbLine
 10
3.0516732283464565
 20
-4.0629921259842519
 30
0
 11
3.0565944881889764
 21
-4.0629921259842519
 31
0
  0
LINE
  5
11F
330
1A
100
AcDbEntity
  8
F.Paste
  6
CONTINUOUS
100
AcDbLine
 10
3.0565944881889764
 20
-4.0629921259842519
 30
0
 11
3.0575361417322835
 21
-4.0631794488188975
 31
0
  0
LINE
  5
120
330
1A
100
AcDbEntity
  8
F.Paste
  6
CONTINUOUS
100
AcDbLine
 10
3.0772211811023622
 20
-4.0631794488188975
 30
0
 11
3.0780194488188974
 21
-4.0637128346456688
 31
0
  0
LINE
  5
121
330
1A
100
AcDbEntity
  8
F.Paste
  6
CONTINUOUS
100
AcDbLine
 10
3.0780194488188974
 20
-4.0637128346456688
 30
0
 11
3.0785528346456692
 21
-4.0645111023622045
 31
0
  0
LINE
  5
122
330
1A
100
AcDbEntity
  8
F.Paste
  6
CONTINUOUS
100
AcDbLine
 10
3.0785528346456692
 20
-4.0645111023622045
 30
0
 11
3.0787401574803148
 21
-4.065452755905512
 31
0
  0
LINE
  5
123
330
1A
100
AcDbEntity
  8
F.Paste
  6
CONTINUOUS
100
AcDbLine
 10
3.0787401574803148
 20
-4.065452755905512
 30
0
 11
3.0787401574803148
 21
-4.0871062992125982
 31
0
  0
LINE
  5
124
330
1A
100
AcDbEntity
  8
F.Paste
  6
CONTINUOUS
100
AcDbLine
 10
3.0787401574803148
 20
-4.0871062992125982
 30
0
 11
3.0785528346456692
 21
-4.0880479527559057
 31
0
  0
LINE
  5
125
330
1A
100
AcDbEntity
  8
F.Paste
  6
CONTINUOUS
100
AcDbLine
 10
3.0785528346456692
 20
-4.0880479527559057
 30
0
 11
3.0780194488188974
 21
-4.0888462204724405
 31
0
  0
LINE
  5
126
330
1A
100
AcDbEntity
  8
F.Paste
  6
CONTINUOUS
100
AcDbLine
 10
3.0780194488188974
 20
-4.0888462204724405
 30
0
 11
3.0772211811023622
 21
-4.0893796062992127
 31
0
  0
LINE
  5
127
330
1A
100
AcDbEntity
  8
F.Paste
  6
CONTINUOUS
100
AcDbLine
 10
3.0772211811023622
 20
-4.0893796062992127
 30
0
 11
3.0762795275590551
 21
-4.0895669291338583
 31
0
  0
LINE
  5
128
330
1A
100
AcDbEntity
  8
F.Paste
  6
CONTINUOUS
100
AcDbLine
 10
3.0762795275590551
 20
-4.0895669291338583
 30
0
 11
3.0713582677165352
 21
-4.0895669291338583
 31
0
  0
LINE
  5
129
330
1A
100
AcDbEntity
  8
F.Paste
  6
CONTINUOUS
100
AcDbLine
 10
3.0713582677165352
 20
-4.0895669291338583
 30
0
 11
3.0704166141732281
 21
-4.0893796062992127
 31
0
  0
LINE
  5
12A
330
1A
100
AcDbEntity
  8
F.Paste
  6
CONTINUOUS
100
AcDbLine
 10
3.0704166141732281
 20
-4.0893796062992127
 30
0
 11
3.0696183464566928
 21
-4.0888462204724405
 31
0
  0
LINE
  5
12B
330
1A
100
AcDbEntity
  8
F.Paste
  6
CONTINUOUS
100
AcDbLine
 10
3.0696183464566928
 20
-4.0888462204724405
 30
0
 11
3.0690849606299211
 21
-4.0880479527559057
 31
0
  0
LINE
  5
12C
330
1A
100
AcDbEntity
  8
F.Paste
  6
CONTINUOUS
100
AcDbLine
 10
3.0690849606299211
 20
-4.0880479527559057
 30
0
 11
3.0688976377952755
 21
-4.0871062992125982
 31
0
  0
LINE
  5
12D
330
1A
100
AcDbEntity
  8
F.Paste
  6
CONTINUOUS
100
AcDbLine
 10
3.0688976377952755
 20
-4.0871062992125982
 30
0
 11
3.0688976377952755
 21
-4.065452755905512
 31
0
  0
LINE
  5
12E
330
1A
100
AcDbEntity
  8
F.Paste
  6
CONTINUOUS
100
AcDbLine
 10
3.0688976377952755
 20
-4.065452755905512
 30
0
 11
3.0690849606299211
 21
-4.0645111023622045
 31
0
  0
LINE
  5
12F
330
1A
100
AcDbEntity
  8
F.Paste
  6
CONTINUOUS
100
AcDbLine
 10
3.0690849606299211
 20
-4.0645111023622045
 30
0
 11
3.0696183464566928
 21
-4.0637128346456688
 31
0
  0
LINE
  5
130
330
1A
100
AcDbEntity
  8
F.Paste
  6
CONTINUOUS
100
AcDbLine
 10
3.0696183464566928
 20
-4.0637128346456688
 30
0
 11
3.0704166141732281
 21
-4.0631794488188975
 31
0
  0
LINE
  5
131
330
1A
100
AcDbEntity
  8
F.Paste
  6
CONTINUOUS
100
AcDbLine
 10
3.0704166141732281
 20
-4.0631794488188975
 30
0
 11
3.0713582677165352
 21
-4.0629921259842519
 31
0
  0
LINE
  5
132
330
1A
100
AcDbEntity
  8
F.Paste
  6
CONTINUOUS
100
AcDbLine
 10
3.0713582677165352
 20
-4.0629921259842519
 30
0
 11
3.0762795275590551
 21
-4.0629921259842519
 31
0
  0
LINE
  5
133
330
1A
100
AcDbEntity
  8
F.Paste
  6
CONTINUOUS
100
AcDbLine
 10
3.0762795275590551
 20
-4.0629921259842519
 30
0
 11
3.0772211811023622
 21
-4.0631794488188975
 31
0
  0
LINE
  5
134
330
1A
100
AcDbEntity
  8
F.Paste
  6
CONTINUOUS
100
AcDbLine
 10
3.0969062204724409
 20
-4.0631794488188975
 30
0
 11
3.0977044881889761
 21
-4.0637128346456688
 31
0
  0
LINE
  5
135
330
1A
100
AcDbEntity
  8
F.Paste
  6
CONTINUOUS
100
AcDbLine
 10
3.0977044881889761
 20
-4.0637128346456688
 30
0
 11
3.0982378740157479
 21
-4.0645111023622045
 31
0
  0
LINE
  5
136
330
1A
100
AcDbEntity
  8
F.Paste
  6
CONTINUOUS
100
AcDbLine
 10
3.0982378740157479
 20
-4.0645111023622045
 30
0
 11
3.0984251968503935
 21
-4.065452755905512
 31
0
  0
LINE
  5
137
330
1A
100
AcDbEntity
  8
F.Paste
  6
CONTINUOUS
100
AcDbLine
 10
3.0984251968503935
 20
-4.065452755905512
 30
0
 11
3.0984251968503935
 21
-4.0871062992125982
 31
0
  0
LINE
  5
138
330
1A
100
AcDbEntity
  8
F.Paste
  6
CONTINUOUS
100
AcDbLine
 10
3.0984251968503935
 20
-4.0871062992125982
 30
0
 11
3.0982378740157479
 21
-4.0880479527559057
 31
0
  0
LINE
  5
139
330
1A
100
AcDbEntity
  8
F.Paste
  6
CONTINUOUS
100
AcDbLine
 10
3.0982378740157479
 20
-4.0880479527559057
 30
0
 11
3.0977044881889761
 21
-4.0888462204724405
 31
0
  0
LINE
  5
13A
330
1A
100
AcDbEntity
  8
F.Paste
  6
CONTINUOUS
100
AcDbLine
 10
3.0977044881889761
 20
-4.0888462204724405
 30
0
 11
3.0969062204724409
 21
-4.0893796062992127
 31
0
  0
LINE
  5
13B
330
1A
100
AcDbEntity
  8
F.Paste
  6
CONTINUOUS
100
AcDbLine
 10
3.0969062204724409
 20
-4.0893796062992127
 30
0
 11
3.0959645669291338
 21
-4.0895669291338583
 31
0
  0
LINE
  5
13C
330
1A
100
AcDbEntity
  8
F.Paste
  6
CONTINUOUS
100
AcDbLine
 10
3.0959645669291338
 20
-4.0895669291338583
 30
0
 11
3.0910433070866139
 21
-4.0895669291338583
 31
0
  0
LINE
  5
13D
330
1A
100
AcDbEntity
  8
F.Paste
  6
CONTINUOUS
100
AcDbLine
 10
3.0910433070866139
 20
-4.0895669291338583
 30
0
 11
3.0901016535433072
 21
-4.0893796062992127
 31
0
  0
LINE
  5
13E
330
1A
100
AcDbEntity
  8
F.Paste
  6
CONTINUOUS
100
AcDbLine
 10
3.0901016535433072
 20
-4.0893796062992127
 30
0
 11
3.0893033858267716
 21
-4.0888462204724405
 31
0
  0
LINE
  5
13F
330
1A
100
AcDbEntity
  8
F.Paste
  6
CONTINUOUS
100
AcDbLine
 10
3.0893033858267716
 20
-4.0888462204724405
 30
0
 11
3.0887699999999998
 21
-4.0880479527559057
 31
0
  0
LINE
  5
140
330
1A
100
AcDbEntity
  8
F.Paste
  6
CONTINUOUS
100
AcDbLine
 10
3.0887699999999998
 20
-4.0880479527559057
 30
0
 11
3.0885826771653542
 21
-4.0871062992125982
 31
0
  0
LINE
  5
141
330
1A
100
AcDbEntity
  8
F.Paste
  6
CONTINUOUS
100
AcDbLine
 10
3.0885826771653542
 20
-4.0871062992125982
 30
0
 11
3.0885826771653542
 21
-4.065452755905512
 31
0
  0
LINE
  5
142
330
1A
100
AcDbEntity
  8
F.Paste
  6
CONTINUOUS
100
AcDbLine
 10
3.0885826771653542
 20
-4.065452755905512
 30
0
 11
3.0887699999999998
 21
-4.0645111023622045
 31
0
  0
LINE
  5
143
330
1A
100
AcDbEntity
  8
F.Paste
  6
CONTINUOUS
100
AcDbLine
 10
3.0887699999999998
 20
-4.0645111023622045
 30
0
 11
3.0893033858267716
 21
-4.0637128346456688
 31
0
  0
LINE
  5
144
330
1A
100
AcDbEntity
  8
F.Paste
  6
CONTINUOUS
100
AcDbLine
 10
3.0893033858267716
 20
-4.0637128346456688
 30
0
 11
3.0901016535433072
 21
-4.0631794488188975
 31
0
  0
LINE
  5
145
330
1A
100
AcDbEntity
  8
F.Paste
  6
CONTINUOUS
100
AcDbLine
 10
3.0901016535433072
 20
-4.0631794488188975
 30
0
 11
3.0910433070866139
 21
-4.0629921259842519
 31
0
  0
LINE
  5
146
330
1A
100
AcDbEntity
  8
F.Paste
  6
CONTINUOUS
100
AcDbLine
 10
3.0910433070866139
 20
-4.0629921259842519
 30
0
 11
3.0959645669291338
 21
-4.0629921259842519
 31
0
  0
LINE
  5
147
330
1A
100
AcDbEntity
  8
F.Paste
  6
CONTINUOUS
100
AcDbLine
 10
3.0959645669291338
 20
-4.0629921259842519
 30
0
 11
3.0969062204724409
 21
-4.0631794488188975
 31
0
  0
LINE
  5
148
330
1A
100
AcDbEntity
  8
F.Paste
  6
CONTINUOUS
100
AcDbLine
 10
3.0161975590551182
 20
-4.0415259055118113
 30
0
 11
3.0169958267716535
 21
-4.0420592913385827
 31
0
  0
LINE
  5
149
330
1A
100
AcDbEntity
  8
F.Paste
  6
CONTINUOUS
100
AcDbLine
 10
3.0169958267716535
 20
-4.0420592913385827
 30
0
 11
3.0175292125984252
 21
-4.0428575590551183
 31
0
  0
LINE
  5
14A
330
1A
100
AcDbEntity
  8
F.Paste
  6
CONTINUOUS
100
AcDbLine
 10
3.0175292125984252
 20
-4.0428575590551183
 30
0
 11
3.0177165354330708
 21
-4.043799212598425
 31
0
  0
LINE
  5
14B
330
1A
100
AcDbEntity
  8
F.Paste
  6
CONTINUOUS
100
AcDbLine
 10
3.0177165354330708
 20
-4.043799212598425
 30
0
 11
3.0177165354330708
 21
-4.0487204724409445
 31
0
  0
LINE
  5
14C
330
1A
100
AcDbEntity
  8
F.Paste
  6
CONTINUOUS
100
AcDbLine
 10
3.0177165354330708
 20
-4.0487204724409445
 30
0
 11
3.0175292125984252
 21
-4.049662125984252
 31
0
  0
LINE
  5
14D
330
1A
100
AcDbEntity
  8
F.Paste
  6
CONTINUOUS
100
AcDbLine
 10
3.0175292125984252
 20
-4.049662125984252
 30
0
 11
3.0169958267716535
 21
-4.0504603937007877
 31
0
  0
LINE
  5
14E
330
1A
100
AcDbEntity
  8
F.Paste
  6
CONTINUOUS
100
AcDbLine
 10
3.0169958267716535
 20
-4.0504603937007877
 30
0
 11
3.0161975590551182
 21
-4.050993779527559
 31
0
  0
LINE
  5
14F
330
1A
100
AcDbEntity
  8
F.Paste
  6
CONTINUOUS
100
AcDbLine
 10
3.0161975590551182
 20
-4.050993779527559
 30
0
 11
3.0152559055118111
 21
-4.0511811023622046
 31
0
  0
LINE
  5
150
330
1A
100
AcDbEntity
  8
F.Paste
  6
CONTINUOUS
100
AcDbLine
 10
3.0152559055118111
 20
-4.0511811023622046
 30
0
 11
2.9936023622047245
 21
-4.0511811023622046
 31
0
  0
LINE
  5
151
330
1A
100
AcDbEntity
  8
F.Paste
  6
CONTINUOUS
100
AcDbLine
 10
2.9936023622047245
 20
-4.0511811023622046
 30
0
 11
2.9926607086614174
 21
-4.050993779527559
 31
0
  0
LINE
  5
152
330
1A
100
AcDbEntity
  8
F.Paste
  6
CONTINUOUS
100
AcDbLine
 10
2.9926607086614174
 20
-4.050993779527559
 30
0
 11
2.9918624409448817
 21
-4.0504603937007877
 31
0
  0
LINE
  5
153
330
1A
100
AcDbEntity
  8
F.Paste
  6
CONTINUOUS
100
AcDbLine
 10
2.9918624409448817
 20
-4.0504603937007877
 30
0
 11
2.99132905511811
 21
-4.049662125984252
 31
0
  0
LINE
  5
154
330
1A
100
AcDbEntity
  8
F.Paste
  6
CONTINUOUS
100
AcDbLine
 10
2.99132905511811
 20
-4.049662125984252
 30
0
 11
2.9911417322834644
 21
-4.0487204724409445
 31
0
  0
LINE
  5
155
330
1A
100
AcDbEntity
  8
F.Paste
  6
CONTINUOUS
100
AcDbLine
 10
2.9911417322834644
 20
-4.0487204724409445
 30
0
 11
2.9911417322834644
 21
-4.043799212598425
 31
0
  0
LINE
  5
156
330
1A
100
AcDbEntity
  8
F.Paste
  6
CONTINUOUS
100
AcDbLine
 10
2.9911417322834644
 20
-4.043799212598425
 30
0
 11
2.99132905511811
 21
-4.0428575590551183
 31
0
  0
LINE
  5
157
330
1A
100
AcDbEntity
  8
F.Paste
  6
CONTINUOUS
100
AcDbLine
 10
2.99132905511811
 20
-4.0428575590551183
 30
0
 11
2.9918624409448817
 21
-4.0420592913385827
 31
0
  0
LINE
  5
158
330
1A
100
AcDbEntity
  8
F.Paste
  6
CONTINUOUS
100
AcDbLine
 10
2.9918624409448817
 20
-4.0420592913385827
 30
0
 11
2.9926607086614174
 21
-4.0415259055118113
 31
0
  0
LINE
  5
159
330
1A
100
AcDbEntity
  8
F.Paste
  6
CONTINUOUS
100
AcDbLine
 10
2.9926607086614174
 20
-4.0415259055118113
 30
0
 11
2.9936023622047245
 21
-4.0413385826771648
 31
0
  0
LINE
  5
15A
330
1A
100
AcDbEntity
  8
F.Paste
  6
CONTINUOUS
100
AcDbLine
 10
2.9936023622047245
 20
-4.0413385826771648
 30
0
 11
3.0152559055118111
 21
-4.0413385826771648
 31
0
  0
LINE
  5
15B
330
1A
100
AcDbEntity
  8
F.Paste
  6
CONTINUOUS
100
AcDbLine
 10
3.0152559055118111
 20
-4.0413385826771648
 30
0
 11
3.0161975590551182
 21
-4.0415259055118113
 31
0
  0
LINE
  5
15C
330
1A
100
AcDbEntity
  8
F.Paste
  6
CONTINUOUS
100
AcDbLine
 10
3.1352920472440946
 20
-4.0415259055118113
 30
0
 11
3.1360903149606298
 21
-4.0420592913385827
 31
0
  0
LINE
  5
15D
330
1A
100
AcDbEntity
  8
F.Paste
  6
CONTINUOUS
100
AcDbLine
 10
3.1360903149606298
 20
-4.0420592913385827
 30
0
 11
3.1366237007874016
 21
-4.0428575590551183
 31
0
  0
LINE
  5
15E
330
1A
100
AcDbEntity
  8
F.Paste
  6
CONTINUOUS
100
AcDbLine
 10
3.1366237007874016
 20
-4.0428575590551183
 30
0
 11
3.1368110236220472
 21
-4.043799212598425
 31
0
  0
LINE
  5
15F
330
1A
100
AcDbEntity
  8
F.Paste
  6
CONTINUOUS
100
AcDbLine
 10
3.1368110236220472
 20
-4.043799212598425
 30
0
 11
3.1368110236220472
 21
-4.0487204724409445
 31
0
  0
LINE
  5
160
330
1A
100
AcDbEntity
  8
F.Paste
  6
CONTINUOUS
100
AcDbLine
 10
3.1368110236220472
 20
-4.0487204724409445
 30
0
 11
3.1366237007874016
 21
-4.049662125984252
 31
0
  0
LINE
  5
161
330
1A
100
AcDbEntity
  8
F.Paste
  6
CONTINUOUS
100
AcDbLine
 10
3.1366237007874016
 20
-4.049662125984252
 30
0
 11
3.1360903149606298
 21
-4.0504603937007877
 31
0
  0
LINE
  5
162
330
1A
100
AcDbEntity
  8
F.Paste
  6
CONTINUOUS
100
AcDbLine
 10
3.1360903149606298
 20
-4.0504603937007877
 30
0
 11
3.1352920472440946
 21
-4.050993779527559
 31
0
  0
LINE
  5
163
330
1A
100
AcDbEntity
  8
F.Paste
  6
CONTINUOUS
100
AcDbLine
 10
3.1352920472440946
 20
-4.050993779527559
 30
0
 11
3.1343503937007875
 21
-4.0511811023622046
 31
0
  0
LINE
  5
164
330
1A
100
AcDbEntity
  8
F.Paste
  6
CONTINUOUS
100
AcDbLine
 10
3.1343503937007875
 20
-4.0511811023622046
 30
0
 11
3.1126968503937009
 21
-4.0511811023622046
 31
0
  0
LINE
  5
165
330
1A
100
AcDbEntity
  8
F.Paste
  6
CONTINUOUS
100
AcDbLine
 10
3.1126968503937009
 20
-4.0511811023622046
 30
0
 11
3.1117551968503938
 21
-4.050993779527559
 31
0
  0
LINE
  5
166
330
1A
100
AcDbEntity
  8
F.Paste
  6
CONTINUOUS
100
AcDbLine
 10
3.1117551968503938
 20
-4.050993779527559
 30
0
 11
3.1109569291338581
 21
-4.0504603937007877
 31
0
  0
LINE
  5
167
330
1A
100
AcDbEntity
  8
F.Paste
  6
CONTINUOUS
100
AcDbLine
 10
3.1109569291338581
 20
-4.0504603937007877
 30
0
 11
3.1104235433070864
 21
-4.049662125984252
 31
0
  0
LINE
  5
168
330
1A
100
AcDbEntity
  8
F.Paste
  6
CONTINUOUS
100
AcDbLine
 10
3.1104235433070864
 20
-4.049662125984252
 30
0
 11
3.1102362204724407
 21
-4.0487204724409445
 31
0
  0
LINE
  5
169
330
1A
100
AcDbEntity
  8
F.Paste
  6
CONTINUOUS
100
AcDbLine
 10
3.1102362204724407
 20
-4.0487204724409445
 30
0
 11
3.1102362204724407
 21
-4.043799212598425
 31
0
  0
LINE
  5
16A
330
1A
100
AcDbEntity
  8
F.Paste
  6
CONTINUOUS
100
AcDbLine
 10
3.1102362204724407
 20
-4.043799212598425
 30
0
 11
3.1104235433070864
 21
-4.0428575590551183
 31
0
  0
LINE
  5
16B
330
1A
100
AcDbEntity
  8
F.Paste
  6
CONTINUOUS
100
AcDbLine
 10
3.1104235433070864
 20
-4.0428575590551183
 30
0
 11
3.1109569291338581
 21
-4.0420592913385827
 31
0
  0
LINE
  5
16C
330
1A
100
AcDbEntity
  8
F.Paste
  6
CONTINUOUS
100
AcDbLine
 10
3.1109569291338581
 20
-4.0420592913385827
 30
0
 11
3.1117551968503938
 21
-4.0415259055118113
 31
0
  0
LINE
  5
16D
330
1A
100
AcDbEntity
  8
F.Paste
  6
CONTINUOUS
100
AcDbLine
 10
3.1117551968503938
 20
-4.0415259055118113
 30
0
 11
3.1126968503937009
 21
-4.0413385826771648
 31
0
  0
LINE
  5
16E
330
1A
100
AcDbEntity
  8
F.Paste
  6
CONTINUOUS
100
AcDbLine
 10
3.1126968503937009
 20
-4.0413385826771648
 30
0
 11
3.1343503937007875
 21
-4.0413385826771648
 31
0
  0
LINE
  5
16F
330
1A
100
AcDbEntity
  8
F.Paste
  6
CONTINUOUS
100
AcDbLine
 10
3.1343503937007875
 20
-4.0413385826771648
 30
0
 11
3.1352920472440946
 21
-4.0415259055118113
 31
0
  0
LINE
  5
170
330
1A
100
AcDbEntity
  8
F.Paste
  6
CONTINUOUS
100
AcDbLine
 10
3.0557546062992125
 20
-4.0208524803149608
 30
0
 11
3.0582133070866142
 21
-4.0224953543307089
 31
0
  0
LINE
  5
171
330
1A
100
AcDbEntity
  8
F.Paste
  6
CONTINUOUS
100
AcDbLine
 10
3.0582133070866142
 20
-4.0224953543307089
 30
0
 11
3.0598561811023623
 21
-4.0249540551181102
 31
0
  0
LINE
  5
172
330
1A
100
AcDbEntity
  8
F.Paste
  6
CONTINUOUS
100
AcDbLine
 10
3.0598561811023623
 20
-4.0249540551181102
 30
0
 11
3.0604330708661416
 21
-4.0278543307086609
 31
0
  0
LINE
  5
173
330
1A
100
AcDbEntity
  8
F.Paste
  6
CONTINUOUS
100
AcDbLine
 10
3.0604330708661416
 20
-4.0278543307086609
 30
0
 11
3.0604330708661416
 21
-4.0430118110236224
 31
0
  0
LINE
  5
174
330
1A
100
AcDbEntity
  8
F.Paste
  6
CONTINUOUS
100
AcDbLine
 10
3.0604330708661416
 20
-4.0430118110236224
 30
0
 11
3.0598561811023623
 21
-4.0459120866141731
 31
0
  0
LINE
  5
175
330
1A
100
AcDbEntity
  8
F.Paste
  6
CONTINUOUS
100
AcDbLine
 10
3.0598561811023623
 20
-4.0459120866141731
 30
0
 11
3.0582133070866142
 21
-4.0483707874015744
 31
0
  0
LINE
  5
176
330
1A
100
AcDbEntity
  8
F.Paste
  6
CONTINUOUS
100
AcDbLine
 10
3.0582133070866142
 20
-4.0483707874015744
 30
0
 11
3.0557546062992125
 21
-4.0500136614173226
 31
0
  0
LINE
  5
177
330
1A
100
AcDbEntity
  8
F.Paste
  6
CONTINUOUS
100
AcDbLine
 10
3.0557546062992125
 20
-4.0500136614173226
 30
0
 11
3.0528543307086613
 21
-4.0505905511811022
 31
0
  0
LINE
  5
178
330
1A
100
AcDbEntity
  8
F.Paste
  6
CONTINUOUS
100
AcDbLine
 10
3.0528543307086613
 20
-4.0505905511811022
 30
0
 11
3.0376968503937007
 21
-4.0505905511811022
 31
0
  0
LINE
  5
179
330
1A
100
AcDbEntity
  8
F.Paste
  6
CONTINUOUS
100
AcDbLine
 10
3.0376968503937007
 20
-4.0505905511811022
 30
0
 11
3.0347965748031496
 21
-4.0500136614173226
 31
0
  0
LINE
  5
17A
330
1A
100
AcDbEntity
  8
F.Paste
  6
CONTINUOUS
100
AcDbLine
 10
3.0347965748031496
 20
-4.0500136614173226
 30
0
 11
3.0323378740157478
 21
-4.0483707874015744
 31
0
  0
LINE
  5
17B
330
1A
100
AcDbEntity
  8
F.Paste
  6
CONTINUOUS
100
AcDbLine
 10
3.0323378740157478
 20
-4.0483707874015744
 30
0
 11
3.0306950000000001
 21
-4.0459120866141731
 31
0
  0
LINE
  5
17C
330
1A
100
AcDbEntity
  8
F.Paste
  6
CONTINUOUS
100
AcDbLine
 10
3.0306950000000001
 20
-4.0459120866141731
 30
0
 11
3.0301181102362205
 21
-4.0430118110236224
 31
0
  0
LINE
  5
17D
330
1A
100
AcDbEntity
  8
F.Paste
  6
CONTINUOUS
100
AcDbLine
 10
3.0301181102362205
 20
-4.0430118110236224
 30
0
 11
3.0301181102362205
 21
-4.0278543307086609
 31
0
  0
LINE
  5
17E
330
1A
100
AcDbEntity
  8
F.Paste
  6
CONTINUOUS
100
AcDbLine
 10
3.0301181102362205
 20
-4.0278543307086609
 30
0
 11
3.0306950000000001
 21
-4.0249540551181102
 31
0
  0
LINE
  5
17F
330
1A
100
AcDbEntity
  8
F.Paste
  6
CONTINUOUS
100
AcDbLine
 10
3.0306950000000001
 20
-4.0249540551181102
 30
0
 11
3.0323378740157478
 21
-4.0224953543307089
 31
0
  0
LINE
  5
180
330
1A
100
AcDbEntity
  8
F.Paste
  6
CONTINUOUS
100
AcDbLine
 10
3.0323378740157478
 20
-4.0224953543307089
 30
0
 11
3.0347965748031496
 21
-4.0208524803149608
 31
0
  0
LINE
  5
181
330
1A
100
AcDbEntity
  8
F.Paste
  6
CONTINUOUS
100
AcDbLine
 10
3.0347965748031496
 20
-4.0208524803149608
 30
0
 11
3.0376968503937007
 21
-4.0202755905511811
 31
0
  0
LINE
  5
182
330
1A
100
AcDbEntity
  8
F.Paste
  6
CONTINUOUS
100
AcDbLine
 10
3.0376968503937007
 20
-4.0202755905511811
 30
0
 11
3.0528543307086613
 21
-4.0202755905511811
 31
0
  0
LINE
  5
183
330
1A
100
AcDbEntity
  8
F.Paste
  6
CONTINUOUS
100
AcDbLine
 10
3.0528543307086613
 20
-4.0202755905511811
 30
0
 11
3.0557546062992125
 21
-4.0208524803149608
 31
0
  0
LINE
  5
184
330
1A
100
AcDbEntity
  8
F.Paste
  6
CONTINUOUS
100
AcDbLine
 10
3.093156181102362
 20
-4.0208524803149608
 30
0
 11
3.0956148818897637
 21
-4.0224953543307089
 31
0
  0
LINE
  5
185
330
1A
100
AcDbEntity
  8
F.Paste
  6
CONTINUOUS
100
AcDbLine
 10
3.0956148818897637
 20
-4.0224953543307089
 30
0
 11
3.0972577559055119
 21
-4.0249540551181102
 31
0
  0
LINE
  5
186
330
1A
100
AcDbEntity
  8
F.Paste
  6
CONTINUOUS
100
AcDbLine
 10
3.0972577559055119
 20
-4.0249540551181102
 30
0
 11
3.0978346456692911
 21
-4.0278543307086609
 31
0
  0
LINE
  5
187
330
1A
100
AcDbEntity
  8
F.Paste
  6
CONTINUOUS
100
AcDbLine
 10
3.0978346456692911
 20
-4.0278543307086609
 30
0
 11
3.0978346456692911
 21
-4.0430118110236224
 31
0
  0
LINE
  5
188
330
1A
100
AcDbEntity
  8
F.Paste
  6
CONTINUOUS
100
AcDbLine
 10
3.0978346456692911
 20
-4.0430118110236224
 30
0
 11
3.0972577559055119
 21
-4.0459120866141731
 31
0
  0
LINE
  5
189
330
1A
100
AcDbEntity
  8
F.Paste
  6
CONTINUOUS
100
AcDbLine
 10
3.0972577559055119
 20
-4.0459120866141731
 30
0
 11
3.0956148818897637
 21
-4.0483707874015744
 31
0
  0
LINE
  5
18A
330
1A
100
AcDbEntity
  8
F.Paste
  6
CONTINUOUS
100
AcDbLine
 10
3.0956148818897637
 20
-4.0483707874015744
 30
0
 11
3.093156181102362
 21
-4.0500136614173226
 31
0
  0
LINE
  5
18B
330
1A
100
AcDbEntity
  8
F.Paste
  6
CONTINUOUS
100
AcDbLine
 10
3.093156181102362
 20
-4.0500136614173226
 30
0
 11
3.0902559055118108
 21
-4.0505905511811022
 31
0
  0
LINE
  5
18C
330
1A
100
AcDbEntity
  8
F.Paste
  6
CONTINUOUS
100
AcDbLine
 10
3.0902559055118108
 20
-4.0505905511811022
 30
0
 11
3.0750984251968503
 21
-4.0505905511811022
 31
0
  0
LINE
  5
18D
330
1A
100
AcDbEntity
  8
F.Paste
  6
CONTINUOUS
100
AcDbLine
 10
3.0750984251968503
 20
-4.0505905511811022
 30
0
 11
3.0721981496062991
 21
-4.0500136614173226
 31
0
  0
LINE
  5
18E
330
1A
100
AcDbEntity
  8
F.Paste
  6
CONTINUOUS
100
AcDbLine
 10
3.0721981496062991
 20
-4.0500136614173226
 30
0
 11
3.0697394488188974
 21
-4.0483707874015744
 31
0
  0
LINE
  5
18F
330
1A
100
AcDbEntity
  8
F.Paste
  6
CONTINUOUS
100
AcDbLine
 10
3.0697394488188974
 20
-4.0483707874015744
 30
0
 11
3.0680965748031497
 21
-4.0459120866141731
 31
0
  0
LINE
  5
190
330
1A
100
AcDbEntity
  8
F.Paste
  6
CONTINUOUS
100
AcDbLine
 10
3.0680965748031497
 20
-4.0459120866141731
 30
0
 11
3.06751968503937
 21
-4.0430118110236224
 31
0
  0
LINE
  5
191
330
1A
100
AcDbEntity
  8
F.Paste
  6
CONTINUOUS
100
AcDbLine
 10
3.06751968503937
 20
-4.0430118110236224
 30
0
 11
3.06751968503937
 21
-4.0278543307086609
 31
0
  0
LINE
  5
192
330
1A
100
AcDbEntity
  8
F.Paste
  6
CONTINUOUS
100
AcDbLine
 10
3.06751968503937
 20
-4.0278543307086609
 30
0
 11
3.0680965748031497
 21
-4.0249540551181102
 31
0
  0
LINE
  5
193
330
1A
100
AcDbEntity
  8
F.Paste
  6
CONTINUOUS
100
AcDbLine
 10
3.0680965748031497
 20
-4.0249540551181102
 30
0
 11
3.0697394488188974
 21
-4.0224953543307089
 31
0
  0
LINE
  5
194
330
1A
100
AcDbEntity
  8
F.Paste
  6
CONTINUOUS
100
AcDbLine
 10
3.0697394488188974
 20
-4.0224953543307089
 30
0
 11
3.0721981496062991
 21
-4.0208524803149608
 31
0
  0
LINE
  5
195
330
1A
100
AcDbEntity
  8
F.Paste
  6
CONTINUOUS
100
AcDbLine
 10
3.0721981496062991
 20
-4.0208524803149608
 30
0
 11
3.0750984251968503
 21
-4.0202755905511811
 31
0
  0
LINE
  5
196
330
1A
100
AcDbEntity
  8
F.Paste
  6
CONTINUOUS
100
AcDbLine
 10
3.0750984251968503
 20
-4.0202755905511811
 30
0
 11
3.0902559055118108
 21
-4.0202755905511811
 31
0
  0
LINE
  5
197
330
1A
100
AcDbEntity
  8
F.Paste
  6
CONTINUOUS
100
AcDbLine
 10
3.0902559055118108
 20
-4.0202755905511811
 30
0
 11
3.093156181102362
 21
-4.0208524803149608
 31
0
  0
LINE
  5
198
330
1A
100
AcDbEntity
  8
F.Paste
  6
CONTINUOUS
100
AcDbLine
 10
2.7714831102362205
 20
-3.987953937007874
 30
0
 11
2.7746762598425194
 21
-3.9900875196850394
 31
0
  0
LINE
  5
199
330
1A
100
AcDbEntity
  8
F.Paste
  6
CONTINUOUS
100
AcDbLine
 10
2.7746762598425194
 20
-3.9900875196850394
 30
0
 11
2.7768098425196848
 21
-3.9932806692913383
 31
0
  0
LINE
  5
19A
330
1A
100
AcDbEntity
  8
F.Paste
  6
CONTINUOUS
100
AcDbLine
 10
2.7768098425196848
 20
-3.9932806692913383
 30
0
 11
2.7775590551181102
 21
-3.997047244094488
 31
0
  0
LINE
  5
19B
330
1A
100
AcDbEntity
  8
F.Paste
  6
CONTINUOUS
100
AcDbLine
 10
2.7775590551181102
 20
-3.997047244094488
 30
0
 11
2.7775590551181102
 21
-4.034448818897638
 31
0
  0
LINE
  5
19C
330
1A
100
AcDbEntity
  8
F.Paste
  6
CONTINUOUS
100
AcDbLine
 10
2.7775590551181102
 20
-4.034448818897638
 30
0
 11
2.7768098425196848
 21
-4.0382153937007876
 31
0
  0
LINE
  5
19D
330
1A
100
AcDbEntity
  8
F.Paste
  6
CONTINUOUS
100
AcDbLine
 10
2.7768098425196848
 20
-4.0382153937007876
 30
0
 11
2.7746762598425194
 21
-4.0414085433070861
 31
0
  0
LINE
  5
19E
330
1A
100
AcDbEntity
  8
F.Paste
  6
CONTINUOUS
100
AcDbLine
 10
2.7746762598425194
 20
-4.0414085433070861
 30
0
 11
2.7714831102362205
 21
-4.0435421259842519
 31
0
  0
LINE
  5
19F
330
1A
100
AcDbEntity
  8
F.Paste
  6
CONTINUOUS
100
AcDbLine
 10
2.7714831102362205
 20
-4.0435421259842519
 30
0
 11
2.7677165354330708
 21
-4.0442913385826769
 31
0
  0
LINE
  5
1A0
330
1A
100
AcDbEntity
  8
F.Paste
  6
CONTINUOUS
100
AcDbLine
 10
2.7677165354330708
 20
-4.0442913385826769
 30
0
 11
2.7480314960629921
 21
-4.0442913385826769
 31
0
  0
LINE
  5
1A1
330
1A
100
AcDbEntity
  8
F.Paste
  6
CONTINUOUS
100
AcDbLine
 10
2.7480314960629921
 20
-4.0442913385826769
 30
0
 11
2.7442649212598424
 21
-4.0435421259842519
 31
0
  0
LINE
  5
1A2
330
1A
100
AcDbEntity
  8
F.Paste
  6
CONTINUOUS
100
AcDbLine
 10
2.7442649212598424
 20
-4.0435421259842519
 30
0
 11
2.7410717716535431
 21
-4.0414085433070861
 31
0
  0
LINE
  5
1A3
330
1A
100
AcDbEntity
  8
F.Paste
  6
CONTINUOUS
100
AcDbLine
 10
2.7410717716535431
 20
-4.0414085433070861
 30
0
 11
2.7389381889763778
 21
-4.0382153937007876
 31
0
  0
LINE
  5
1A4
330
1A
100
AcDbEntity
  8
F.Paste
  6
CONTINUOUS
100
AcDbLine
 10
2.7389381889763778
 20
-4.0382153937007876
 30
0
 11
2.7381889763779528
 21
-4.034448818897638
 31
0
  0
LINE
  5
1A5
330
1A
100
AcDbEntity
  8
F.Paste
  6
CONTINUOUS
100
AcDbLine
 10
2.7381889763779528
 20
-4.034448818897638
 30
0
 11
2.7381889763779528
 21
-3.997047244094488
 31
0
  0
LINE
  5
1A6
330
1A
100
AcDbEntity
  8
F.Paste
  6
CONTINUOUS
100
AcDbLine
 10
2.7381889763779528
 20
-3.997047244094488
 30
0
 11
2.7389381889763778
 21
-3.9932806692913383
 31
0
  0
LINE
  5
1A7
330
1A
100
AcDbEntity
  8
F.Paste
  6
CONTINUOUS
100
AcDbLine
 10
2.7389381889763778
 20
-3.9932806692913383
 30
0
 11
2.7410717716535431
 21
-3.9900875196850394
 31
0
  0
LINE
  5
1A8
330
1A
100
AcDbEntity
  8
F.Paste
  6
CONTINUOUS
100
AcDbLine
 10
2.7410717716535431
 20
-3.9900875196850394
 30
0
 11
2.7442649212598424
 21
-3.987953937007874
 31
0
  0
LINE
  5
1A9
330
1A
100
AcDbEntity
  8
F.Paste
  6
CONTINUOUS
100
AcDbLine
 10
2.7442649212598424
 20
-3.987953937007874
 30
0
 11
2.7480314960629921
 21
-3.9872047244094486
 31
0
  0
LINE
  5
1AA
330
1A
100
AcDbEntity
  8
F.Paste
  6
CONTINUOUS
100
AcDbLine
 10
2.7480314960629921
 20
-3.9872047244094486
 30
0
 11
2.7677165354330708
 21
-3.9872047244094486
 31
0
  0
LINE
  5
1AB
330
1A
100
AcDbEntity
  8
F.Paste
  6
CONTINUOUS
100
AcDbLine
 10
2.7677165354330708
 20
-3.9872047244094486
 30
0
 11
2.7714831102362205
 21
-3.987953937007874
 31
0
  0
LINE
  5
1AC
330
1A
100
AcDbEntity
  8
F.Paste
  6
CONTINUOUS
100
AcDbLine
 10
2.8462862598425196
 20
-3.987953937007874
 30
0
 11
2.8494794094488189
 21
-3.9900875196850394
 31
0
  0
LINE
  5
1AD
330
1A
100
AcDbEntity
  8
F.Paste
  6
CONTINUOUS
100
AcDbLine
 10
2.8494794094488189
 20
-3.9900875196850394
 30
0
 11
2.8516129921259843
 21
-3.9932806692913383
 31
0
  0
LINE
  5
1AE
330
1A
100
AcDbEntity
  8
F.Paste
  6
CONTINUOUS
100
AcDbLine
 10
2.8516129921259843
 20
-3.9932806692913383
 30
0
 11
2.8523622047244093
 21
-3.997047244094488
 31
0
  0
LINE
  5
1AF
330
1A
100
AcDbEntity
  8
F.Paste
  6
CONTINUOUS
100
AcDbLine
 10
2.8523622047244093
 20
-3.997047244094488
 30
0
 11
2.8523622047244093
 21
-4.034448818897638
 31
0
  0
LINE
  5
1B0
330
1A
100
AcDbEntity
  8
F.Paste
  6
CONTINUOUS
100
AcDbLine
 10
2.8523622047244093
 20
-4.034448818897638
 30
0
 11
2.8516129921259843
 21
-4.0382153937007876
 31
0
  0
LINE
  5
1B1
330
1A
100
AcDbEntity
  8
F.Paste
  6
CONTINUOUS
100
AcDbLine
 10
2.8516129921259843
 20
-4.0382153937007876
 30
0
 11
2.8494794094488189
 21
-4.0414085433070861
 31
0
  0
LINE
  5
1B2
330
1A
100
AcDbEntity
  8
F.Paste
  6
CONTINUOUS
100
AcDbLine
 10
2.8494794094488189
 20
-4.0414085433070861
 30
0
 11
2.8462862598425196
 21
-4.0435421259842519
 31
0
  0
LINE
  5
1B3
330
1A
100
AcDbEntity
  8
F.Paste
  6
CONTINUOUS
100
AcDbLine
 10
2.8462862598425196
 20
-4.0435421259842519
 30
0
 11
2.8425196850393699
 21
-4.0442913385826769
 31
0
  0
LINE
  5
1B4
330
1A
100
AcDbEntity
  8
F.Paste
  6
CONTINUOUS
100
AcDbLine
 10
2.8425196850393699
 20
-4.0442913385826769
 30
0
 11
2.8228346456692912
 21
-4.0442913385826769
 31
0
  0
LINE
  5
1B5
330
1A
100
AcDbEntity
  8
F.Paste
  6
CONTINUOUS
100
AcDbLine
 10
2.8228346456692912
 20
-4.0442913385826769
 30
0
 11
2.8190680708661415
 21
-4.0435421259842519
 31
0
  0
LINE
  5
1B6
330
1A
100
AcDbEntity
  8
F.Paste
  6
CONTINUOUS
100
AcDbLine
 10
2.8190680708661415
 20
-4.0435421259842519
 30
0
 11
2.8158749212598426
 21
-4.0414085433070861
 31
0
  0
LINE
  5
1B7
330
1A
100
AcDbEntity
  8
F.Paste
  6
CONTINUOUS
100
AcDbLine
 10
2.8158749212598426
 20
-4.0414085433070861
 30
0
 11
2.8137413385826773
 21
-4.0382153937007876
 31
0
  0
LINE
  5
1B8
330
1A
100
AcDbEntity
  8
F.Paste
  6
CONTINUOUS
100
AcDbLine
 10
2.8137413385826773
 20
-4.0382153937007876
 30
0
 11
2.8129921259842519
 21
-4.034448818897638
 31
0
  0
LINE
  5
1B9
330
1A
100
AcDbEntity
  8
F.Paste
  6
CONTINUOUS
100
AcDbLine
 10
2.8129921259842519
 20
-4.034448818897638
 30
0
 11
2.8129921259842519
 21
-3.997047244094488
 31
0
  0
LINE
  5
1BA
330
1A
100
AcDbEntity
  8
F.Paste
  6
CONTINUOUS
100
AcDbLine
 10
2.8129921259842519
 20
-3.997047244094488
 30
0
 11
2.8137413385826773
 21
-3.9932806692913383
 31
0
  0
LINE
  5
1BB
330
1A
100
AcDbEntity
  8
F.Paste
  6
CONTINUOUS
100
AcDbLine
 10
2.8137413385826773
 20
-3.9932806692913383
 30
0
 11
2.8158749212598426
 21
-3.9900875196850394
 31
0
  0
LINE
  5
1BC
330
1A
100
AcDbEntity
  8
F.Paste
  6
CONTINUOUS
100
AcDbLine
 10
2.8158749212598426
 20
-3.9900875196850394
 30
0
 11
2.8190680708661415
 21
-3.987953937007874
 31
0
  0
LINE
  5
1BD
330
1A
100
AcDbEntity
  8
F.Paste
  6
CONTINUOUS
100
AcDbLine
 10
2.8190680708661415
 20
-3.987953937007874
 30
0
 11
2.8228346456692912
 21
-3.9872047244094486
 31
0
  0
LINE
  5
1BE
330
1A
100
AcDbEntity
  8
F.Paste
  6
CONTINUOUS
100
AcDbLine
 10
2.8228346456692912
 20
-3.9872047244094486
 30
0
 11
2.8425196850393699
 21
-3.9872047244094486
 31
0
  0
LINE
  5
1BF
330
1A
100
AcDbEntity
  8
F.Paste
  6
CONTINUOUS
100
AcDbLine
 10
2.8425196850393699
 20
-3.9872047244094486
 30
0
 11
2.8462862598425196
 21
-3.987953937007874
 31
0
  0
LINE
  5
1C0
330
1A
100
AcDbEntity
  8
F.Paste
  6
CONTINUOUS
100
AcDbLine
 10
3.0161975590551182
 20
-4.0218408661417318
 30
0
 11
3.0169958267716535
 21
-4.022374251968504
 31
0
  0
LINE
  5
1C1
330
1A
100
AcDbEntity
  8
F.Paste
  6
CONTINUOUS
100
AcDbLine
 10
3.0169958267716535
 20
-4.022374251968504
 30
0
 11
3.0175292125984252
 21
-4.0231725196850396
 31
0
  0
LINE
  5
1C2
330
1A
100
AcDbEntity
  8
F.Paste
  6
CONTINUOUS
100
AcDbLine
 10
3.0175292125984252
 20
-4.0231725196850396
 30
0
 11
3.0177165354330708
 21
-4.0241141732283463
 31
0
  0
LINE
  5
1C3
330
1A
100
AcDbEntity
  8
F.Paste
  6
CONTINUOUS
100
AcDbLine
 10
3.0177165354330708
 20
-4.0241141732283463
 30
0
 11
3.0177165354330708
 21
-4.0290354330708658
 31
0
  0
LINE
  5
1C4
330
1A
100
AcDbEntity
  8
F.Paste
  6
CONTINUOUS
100
AcDbLine
 10
3.0177165354330708
 20
-4.0290354330708658
 30
0
 11
3.0175292125984252
 21
-4.0299770866141733
 31
0
  0
LINE
  5
1C5
330
1A
100
AcDbEntity
  8
F.Paste
  6
CONTINUOUS
100
AcDbLine
 10
3.0175292125984252
 20
-4.0299770866141733
 30
0
 11
3.0169958267716535
 21
-4.030775354330709
 31
0
  0
LINE
  5
1C6
330
1A
100
AcDbEntity
  8
F.Paste
  6
CONTINUOUS
100
AcDbLine
 10
3.0169958267716535
 20
-4.030775354330709
 30
0
 11
3.0161975590551182
 21
-4.0313087401574803
 31
0
  0
LINE
  5
1C7
330
1A
100
AcDbEntity
  8
F.Paste
  6
CONTINUOUS
100
AcDbLine
 10
3.0161975590551182
 20
-4.0313087401574803
 30
0
 11
3.0152559055118111
 21
-4.0314960629921259
 31
0
  0
LINE
  5
1C8
330
1A
100
AcDbEntity
  8
F.Paste
  6
CONTINUOUS
100
AcDbLine
 10
3.0152559055118111
 20
-4.0314960629921259
 30
0
 11
2.9936023622047245
 21
-4.0314960629921259
 31
0
  0
LINE
  5
1C9
330
1A
100
AcDbEntity
  8
F.Paste
  6
CONTINUOUS
100
AcDbLine
 10
2.9936023622047245
 20
-4.0314960629921259
 30
0
 11
2.9926607086614174
 21
-4.0313087401574803
 31
0
  0
LINE
  5
1CA
330
1A
100
AcDbEntity
  8
F.Paste
  6
CONTINUOUS
100
AcDbLine
 10
2.9926607086614174
 20
-4.0313087401574803
 30
0
 11
2.9918624409448817
 21
-4.030775354330709
 31
0
  0
LINE
  5
1CB
330
1A
100
AcDbEntity
  8
F.Paste
  6
CONTINUOUS
100
AcDbLine
 10
2.9918624409448817
 20
-4.030775354330709
 30
0
 11
2.99132905511811
 21
-4.0299770866141733
 31
0
  0
LINE
  5
1CC
330
1A
100
AcDbEntity
  8
F.Paste
  6
CONTINUOUS
100
AcDbLine
 10
2.99132905511811
 20
-4.0299770866141733
 30
0
 11
2.9911417322834644
 21
-4.0290354330708658
 31
0
  0
LINE
  5
1CD
330
1A
100
AcDbEntity
  8
F.Paste
  6
CONTINUOUS
100
AcDbLine
 10
2.9911417322834644
 20
-4.0290354330708658
 30
0
 11
2.9911417322834644
 21
-4.0241141732283463
 31
0
  0
LINE
  5
1CE
330
1A
100
AcDbEntity
  8
F.Paste
  6
CONTINUOUS
100
AcDbLine
 10
2.9911417322834644
 20
-4.0241141732283463
 30
0
 11
2.99132905511811
 21
-4.0231725196850396
 31
0
  0
LINE
  5
1CF
330
1A
100
AcDbEntity
  8
F.Paste
  6
CONTINUOUS
100
AcDbLine
 10
2.99132905511811
 20
-4.0231725196850396
 30
0
 11
2.9918624409448817
 21
-4.022374251968504
 31
0
  0
LINE
  5
1D0
330
1A
100
AcDbEntity
  8
F.Paste
  6
CONTINUOUS
100
AcDbLine
 10
2.9918624409448817
 20
-4.022374251968504
 30
0
 11
2.9926607086614174
 21
-4.0218408661417318
 31
0
  0
LINE
  5
1D1
330
1A
100
AcDbEntity
  8
F.Paste
  6
CONTINUOUS
100
AcDbLine
 10
2.9926607086614174
 20
-4.0218408661417318
 30
0
 11
2.9936023622047245
 21
-4.0216535433070861
 31
0
  0
LINE
  5
1D2
330
1A
100
AcDbEntity
  8
F.Paste
  6
CONTINUOUS
100
AcDbLine
 10
2.9936023622047245
 20
-4.0216535433070861
 30
0
 11
3.0152559055118111
 21
-4.0216535433070861
 31
0
  0
LINE
  5
1D3
330
1A
100
AcDbEntity
  8
F.Paste
  6
CONTINUOUS
100
AcDbLine
 10
3.0152559055118111
 20
-4.0216535433070861
 30
0
 11
3.0161975590551182
 21
-4.0218408661417318
 31
0
  0
LINE
  5
1D4
330
1A
100
AcDbEntity
  8
F.Paste
  6
CONTINUOUS
100
AcDbLine
 10
3.1352920472440946
 20
-4.0218408661417318
 30
0
 11
3.1360903149606298
 21
-4.022374251968504
 31
0
  0
LINE
  5
1D5
330
1A
100
AcDbEntity
  8
F.Paste
  6
CONTINUOUS
100
AcDbLine
 10
3.1360903149606298
 20
-4.022374251968504
 30
0
 11
3.1366237007874016
 21
-4.0231725196850396
 31
0
  0
LINE
  5
1D6
330
1A
100
AcDbEntity
  8
F.Paste
  6
CONTINUOUS
100
AcDbLine
 10
3.1366237007874016
 20
-4.0231725196850396
 30
0
 11
3.1368110236220472
 21
-4.0241141732283463
 31
0
  0
LINE
  5
1D7
330
1A
100
AcDbEntity
  8
F.Paste
  6
CONTINUOUS
100
AcDbLine
 10
3.1368110236220472
 20
-4.0241141732283463
 30
0
 11
3.1368110236220472
 21
-4.0290354330708658
 31
0
  0
LINE
  5
1D8
330
1A
100
AcDbEntity
  8
F.Paste
  6
CONTINUOUS
100
AcDbLine
 10
3.1368110236220472
 20
-4.0290354330708658
 30
0
 11
3.1366237007874016
 21
-4.0299770866141733
 31
0
  0
LINE
  5
1D9
330
1A
100
AcDbEntity
  8
F.Paste
  6
CONTINUOUS
100
AcDbLine
 10
3.1366237007874016
 20
-4.0299770866141733
 30
0
 11
3.1360903149606298
 21
-4.030775354330709
 31
0
  0
LINE
  5
1DA
330
1A
100
AcDbEntity
  8
F.Paste
  6
CONTINUOUS
100
AcDbLine
 10
3.1360903149606298
 20
-4.030775354330709
 30
0
 11
3.1352920472440946
 21
-4.0313087401574803
 31
0
  0
LINE
  5
1DB
330
1A
100
AcDbEntity
  8
F.Paste
  6
CONTINUOUS
100
AcDbLine
 10
3.1352920472440946
 20
-4.0313087401574803
 30
0
 11
3.1343503937007875
 21
-4.0314960629921259
 31
0
  0
LINE
  5
1DC
330
1A
100
AcDbEntity
  8
F.Paste
  6
CONTINUOUS
100
AcDbLine
 10
3.1343503937007875
 20
-4.0314960629921259
 30
0
 11
3.1126968503937009
 21
-4.0314960629921259
 31
0
  0
LINE
  5
1DD
330
1A
100
AcDbEntity
  8
F.Paste
  6
CONTINUOUS
100
AcDbLine
 10
3.1126968503937009
 20
-4.0314960629921259
 30
0
 11
3.1117551968503938
 21
-4.0313087401574803
 31
0
  0
LINE
  5
1DE
330
1A
100
AcDbEntity
  8
F.Paste
  6
CONTINUOUS
100
AcDbLine
 10
3.1117551968503938
 20
-4.0313087401574803
 30
0
 11
3.1109569291338581
 21
-4.030775354330709
 31
0
  0
LINE
  5
1DF
330
1A
100
AcDbEntity
  8
F.Paste
  6
CONTINUOUS
100
AcDbLine
 10
3.1109569291338581
 20
-4.030775354330709
 30
0
 11
3.1104235433070864
 21
-4.0299770866141733
 31
0
  0
LINE
  5
1E0
330
1A
100
AcDbEntity
  8
F.Paste
  6
CONTINUOUS
100
AcDbLine
 10
3.1104235433070864
 20
-4.0299770866141733
 30
0
 11
3.1102362204724407
 21
-4.0290354330708658
 31
0
  0
LINE
  5
1E1
330
1A
100
AcDbEntity
  8
F.Paste
  6
CONTINUOUS
100
AcDbLine
 10
3.1102362204724407
 20
-4.0290354330708658
 30
0
 11
3.1102362204724407
 21
-4.0241141732283463
 31
0
  0
LINE
  5
1E2
330
1A
100
AcDbEntity
  8
F.Paste
  6
CONTINUOUS
100
AcDbLine
 10
3.1102362204724407
 20
-4.0241141732283463
 30
0
 11
3.1104235433070864
 21
-4.0231725196850396
 31
0
  0
LINE
  5
1E3
330
1A
100
AcDbEntity
  8
F.Paste
  6
CONTINUOUS
100
AcDbLine
 10
3.1104235433070864
 20
-4.0231725196850396
 30
0
 11
3.1109569291338581
 21
-4.022374251968504
 31
0
  0
LINE
  5
1E4
330
1A
100
AcDbEntity
  8
F.Paste
  6
CONTINUOUS
100
AcDbLine
 10
3.1109569291338581
 20
-4.022374251968504
 30
0
 11
3.1117551968503938
 21
-4.0218408661417318
 31
0
  0
LINE
  5
1E5
330
1A
100
AcDbEntity
  8
F.Paste
  6
CONTINUOUS
100
AcDbLine
 10
3.1117551968503938
 20
-4.0218408661417318
 30
0
 11
3.1126968503937009
 21
-4.0216535433070861
 31
0
  0
LINE
  5
1E6
330
1A
100
AcDbEntity
  8
F.Paste
  6
CONTINUOUS
100
AcDbLine
 10
3.1126968503937009
 20
-4.0216535433070861
 30
0
 11
3.1343503937007875
 21
-4.0216535433070861
 31
0
  0
LINE
  5
1E7
330
1A
100
AcDbEntity
  8
F.Paste
  6
CONTINUOUS
100
AcDbLine
 10
3.1343503937007875
 20
-4.0216535433070861
 30
0
 11
3.1352920472440946
 21
-4.0218408661417318
 31
0
  0
LINE
  5
1E8
330
1A
100
AcDbEntity
  8
F.Paste
  6
CONTINUOUS
100
AcDbLine
 10
3.0557546062992125
 20
-3.9834509055118108
 30
0
 11
3.0582133070866142
 21
-3.9850937795275589
 31
0
  0
LINE
  5
1E9
330
1A
100
AcDbEntity
  8
F.Paste
  6
CONTINUOUS
100
AcDbLine
 10
3.0582133070866142
 20
-3.9850937795275589
 30
0
 11
3.0598561811023623
 21
-3.9875524803149607
 31
0
  0
LINE
  5
1EA
330
1A
100
AcDbEntity
  8
F.Paste
  6
CONTINUOUS
100
AcDbLine
 10
3.0598561811023623
 20
-3.9875524803149607
 30
0
 11
3.0604330708661416
 21
-3.9904527559055119
 31
0
  0
LINE
  5
1EB
330
1A
100
AcDbEntity
  8
F.Paste
  6
CONTINUOUS
100
AcDbLine
 10
3.0604330708661416
 20
-3.9904527559055119
 30
0
 11
3.0604330708661416
 21
-4.0056102362204724
 31
0
  0
LINE
  5
1EC
330
1A
100
AcDbEntity
  8
F.Paste
  6
CONTINUOUS
100
AcDbLine
 10
3.0604330708661416
 20
-4.0056102362204724
 30
0
 11
3.0598561811023623
 21
-4.0085105118110231
 31
0
  0
LINE
  5
1ED
330
1A
100
AcDbEntity
  8
F.Paste
  6
CONTINUOUS
100
AcDbLine
 10
3.0598561811023623
 20
-4.0085105118110231
 30
0
 11
3.0582133070866142
 21
-4.0109692125984253
 31
0
  0
LINE
  5
1EE
330
1A
100
AcDbEntity
  8
F.Paste
  6
CONTINUOUS
100
AcDbLine
 10
3.0582133070866142
 20
-4.0109692125984253
 30
0
 11
3.0557546062992125
 21
-4.0126120866141735
 31
0
  0
LINE
  5
1EF
330
1A
100
AcDbEntity
  8
F.Paste
  6
CONTINUOUS
100
AcDbLine
 10
3.0557546062992125
 20
-4.0126120866141735
 30
0
 11
3.0528543307086613
 21
-4.0131889763779522
 31
0
  0
LINE
  5
1F0
330
1A
100
AcDbEntity
  8
F.Paste
  6
CONTINUOUS
100
AcDbLine
 10
3.0528543307086613
 20
-4.0131889763779522
 30
0
 11
3.0376968503937007
 21
-4.0131889763779522
 31
0
  0
LINE
  5
1F1
330
1A
100
AcDbEntity
  8
F.Paste
  6
CONTINUOUS
100
AcDbLine
 10
3.0376968503937007
 20
-4.0131889763779522
 30
0
 11
3.0347965748031496
 21
-4.0126120866141735
 31
0
  0
LINE
  5
1F2
330
1A
100
AcDbEntity
  8
F.Paste
  6
CONTINUOUS
100
AcDbLine
 10
3.0347965748031496
 20
-4.0126120866141735
 30
0
 11
3.0323378740157478
 21
-4.0109692125984253
 31
0
  0
LINE
  5
1F3
330
1A
100
AcDbEntity
  8
F.Paste
  6
CONTINUOUS
100
AcDbLine
 10
3.0323378740157478
 20
-4.0109692125984253
 30
0
 11
3.0306950000000001
 21
-4.0085105118110231
 31
0
  0
LINE
  5
1F4
330
1A
100
AcDbEntity
  8
F.Paste
  6
CONTINUOUS
100
AcDbLine
 10
3.0306950000000001
 20
-4.0085105118110231
 30
0
 11
3.0301181102362205
 21
-4.0056102362204724
 31
0
  0
LINE
  5
1F5
330
1A
100
AcDbEntity
  8
F.Paste
  6
CONTINUOUS
100
AcDbLine
 10
3.0301181102362205
 20
-4.0056102362204724
 30
0
 11
3.0301181102362205
 21
-3.9904527559055119
 31
0
  0
LINE
  5
1F6
330
1A
100
AcDbEntity
  8
F.Paste
  6
CONTINUOUS
100
AcDbLine
 10
3.0301181102362205
 20
-3.9904527559055119
 30
0
 11
3.0306950000000001
 21
-3.9875524803149607
 31
0
  0
LINE
  5
1F7
330
1A
100
AcDbEntity
  8
F.Paste
  6
CONTINUOUS
100
AcDbLine
 10
3.0306950000000001
 20
-3.9875524803149607
 30
0
 11
3.0323378740157478
 21
-3.9850937795275589
 31
0
  0
LINE
  5
1F8
330
1A
100
AcDbEntity
  8
F.Paste
  6
CONTINUOUS
100
AcDbLine
 10
3.0323378740157478
 20
-3.9850937795275589
 30
0
 11
3.0347965748031496
 21
-3.9834509055118108
 31
0
  0
LINE
  5
1F9
330
1A
100
AcDbEntity
  8
F.Paste
  6
CONTINUOUS
100
AcDbLine
 10
3.0347965748031496
 20
-3.9834509055118108
 30
0
 11
3.0376968503937007
 21
-3.9828740157480316
 31
0
  0
LINE
  5
1FA
330
1A
100
AcDbEntity
  8
F.Paste
  6
CONTINUOUS
100
AcDbLine
 10
3.0376968503937007
 20
-3.9828740157480316
 30
0
 11
3.0528543307086613
 21
-3.9828740157480316
 31
0
  0
LINE
  5
1FB
330
1A
100
AcDbEntity
  8
F.Paste
  6
CONTINUOUS
100
AcDbLine
 10
3.0528543307086613
 20
-3.9828740157480316
 30
0
 11
3.0557546062992125
 21
-3.9834509055118108
 31
0
  0
LINE
  5
1FC
330
1A
100
AcDbEntity
  8
F.Paste
  6
CONTINUOUS
100
AcDbLine
 10
3.093156181102362
 20
-3.9834509055118108
 30
0
 11
3.0956148818897637
 21
-3.9850937795275589
 31
0
  0
LINE
  5
1FD
330
1A
100
AcDbEntity
  8
F.Paste
  6
CONTINUOUS
100
AcDbLine
 10
3.0956148818897637
 20
-3.9850937795275589
 30
0
 11
3.0972577559055119
 21
-3.9875524803149607
 31
0
  0
LINE
  5
1FE
330
1A
100
AcDbEntity
  8
F.Paste
  6
CONTINUOUS
100
AcDbLine
 10
3.0972577559055119
 20
-3.9875524803149607
 30
0
 11
3.0978346456692911
 21
-3.9904527559055119
 31
0
  0
LINE
  5
1FF
330
1A
100
AcDbEntity
  8
F.Paste
  6
CONTINUOUS
100
AcDbLine
 10
3.0978346456692911
 20
-3.9904527559055119
 30
0
 11
3.0978346456692911
 21
-4.0056102362204724
 31
0
  0
LINE
  5
200
330
1A
100
AcDbEntity
  8
F.Paste
  6
CONTINUOUS
100
AcDbLine
 10
3.0978346456692911
 20
-4.0056102362204724
 30
0
 11
3.0972577559055119
 21
-4.0085105118110231
 31
0
  0
LINE
  5
201
330
1A
100
AcDbEntity
  8
F.Paste
  6
CONTINUOUS
100
AcDbLine
 10
3.0972577559055119
 20
-4.0085105118110231
 30
0
 11
3.0956148818897637
 21
-4.0109692125984253
 31
0
  0
LINE
  5
202
330
1A
100
AcDbEntity
  8
F.Paste
  6
CONTINUOUS
100
AcDbLine
 10
3.0956148818897637
 20
-4.0109692125984253
 30
0
 11
3.093156181102362
 21
-4.0126120866141735
 31
0
  0
LINE
  5
203
330
1A
100
AcDbEntity
  8
F.Paste
  6
CONTINUOUS
100
AcDbLine
 10
3.093156181102362
 20
-4.0126120866141735
 30
0
 11
3.0902559055118108
 21
-4.0131889763779522
 31
0
  0
LINE
  5
204
330
1A
100
AcDbEntity
  8
F.Paste
  6
CONTINUOUS
100
AcDbLine
 10
3.0902559055118108
 20
-4.0131889763779522
 30
0
 11
3.0750984251968503
 21
-4.0131889763779522
 31
0
  0
LINE
  5
205
330
1A
100
AcDbEntity
  8
F.Paste
  6
CONTINUOUS
100
AcDbLine
 10
3.0750984251968503
 20
-4.0131889763779522
 30
0
 11
3.0721981496062991
 21
-4.0126120866141735
 31
0
  0
LINE
  5
206
330
1A
100
AcDbEntity
  8
F.Paste
  6
CONTINUOUS
100
AcDbLine
 10
3.0721981496062991
 20
-4.0126120866141735
 30
0
 11
3.0697394488188974
 21
-4.0109692125984253
 31
0
  0
LINE
  5
207
330
1A
100
AcDbEntity
  8
F.Paste
  6
CONTINUOUS
100
AcDbLine
 10
3.0697394488188974
 20
-4.0109692125984253
 30
0
 11
3.0680965748031497
 21
-4.0085105118110231
 31
0
  0
LINE
  5
208
330
1A
100
AcDbEntity
  8
F.Paste
  6
CONTINUOUS
100
AcDbLine
 10
3.0680965748031497
 20
-4.0085105118110231
 30
0
 11
3.06751968503937
 21
-4.0056102362204724
 31
0
  0
LINE
  5
209
330
1A
100
AcDbEntity
  8
F.Paste
  6
CONTINUOUS
100
AcDbLine
 10
3.06751968503937
 20
-4.0056102362204724
 30
0
 11
3.06751968503937
 21
-3.9904527559055119
 31
0
  0
LINE
  5
20A
330
1A
100
AcDbEntity
  8
F.Paste
  6
CONTINUOUS
100
AcDbLine
 10
3.06751968503937
 20
-3.9904527559055119
 30
0
 11
3.0680965748031497
 21
-3.9875524803149607
 31
0
  0
LINE
  5
20B
330
1A
100
AcDbEntity
  8
F.Paste
  6
CONTINUOUS
100
AcDbLine
 10
3.0680965748031497
 20
-3.9875524803149607
 30
0
 11
3.0697394488188974
 21
-3.9850937795275589
 31
0
  0
LINE
  5
20C
330
1A
100
AcDbEntity
  8
F.Paste
  6
CONTINUOUS
100
AcDbLine
 10
3.0697394488188974
 20
-3.9850937795275589
 30
0
 11
3.0721981496062991
 21
-3.9834509055118108
 31
0
  0
LINE
  5
20D
330
1A
100
AcDbEntity
  8
F.Paste
  6
CONTINUOUS
100
AcDbLine
 10
3.0721981496062991
 20
-3.9834509055118108
 30
0
 11
3.0750984251968503
 21
-3.9828740157480316
 31
0
  0
LINE
  5
20E
330
1A
100
AcDbEntity
  8
F.Paste
  6
CONTINUOUS
100
AcDbLine
 10
3.0750984251968503
 20
-3.9828740157480316
 30
0
 11
3.0902559055118108
 21
-3.9828740157480316
 31
0
  0
LINE
  5
20F
330
1A
100
AcDbEntity
  8
F.Paste
  6
CONTINUOUS
100
AcDbLine
 10
3.0902559055118108
 20
-3.9828740157480316
 30
0
 11
3.093156181102362
 21
-3.9834509055118108
 31
0
  0
LINE
  5
210
330
1A
100
AcDbEntity
  8
F.Paste
  6
CONTINUOUS
100
AcDbLine
 10
3.0161975590551182
 20
-4.002155826771653
 30
0
 11
3.0169958267716535
 21
-4.0026892125984253
 31
0
  0
LINE
  5
211
330
1A
100
AcDbEntity
  8
F.Paste
  6
CONTINUOUS
100
AcDbLine
 10
3.0169958267716535
 20
-4.0026892125984253
 30
0
 11
3.0175292125984252
 21
-4.0034874803149609
 31
0
  0
LINE
  5
212
330
1A
100
AcDbEntity
  8
F.Paste
  6
CONTINUOUS
100
AcDbLine
 10
3.0175292125984252
 20
-4.0034874803149609
 30
0
 11
3.0177165354330708
 21
-4.0044291338582676
 31
0
  0
LINE
  5
213
330
1A
100
AcDbEntity
  8
F.Paste
  6
CONTINUOUS
100
AcDbLine
 10
3.0177165354330708
 20
-4.0044291338582676
 30
0
 11
3.0177165354330708
 21
-4.0093503937007871
 31
0
  0
LINE
  5
214
330
1A
100
AcDbEntity
  8
F.Paste
  6
CONTINUOUS
100
AcDbLine
 10
3.0177165354330708
 20
-4.0093503937007871
 30
0
 11
3.0175292125984252
 21
-4.0102920472440946
 31
0
  0
LINE
  5
215
330
1A
100
AcDbEntity
  8
F.Paste
  6
CONTINUOUS
100
AcDbLine
 10
3.0175292125984252
 20
-4.0102920472440946
 30
0
 11
3.0169958267716535
 21
-4.0110903149606294
 31
0
  0
LINE
  5
216
330
1A
100
AcDbEntity
  8
F.Paste
  6
CONTINUOUS
100
AcDbLine
 10
3.0169958267716535
 20
-4.0110903149606294
 30
0
 11
3.0161975590551182
 21
-4.0116237007874016
 31
0
  0
LINE
  5
217
330
1A
100
AcDbEntity
  8
F.Paste
  6
CONTINUOUS
100
AcDbLine
 10
3.0161975590551182
 20
-4.0116237007874016
 30
0
 11
3.0152559055118111
 21
-4.0118110236220472
 31
0
  0
LINE
  5
218
330
1A
100
AcDbEntity
  8
F.Paste
  6
CONTINUOUS
100
AcDbLine
 10
3.0152559055118111
 20
-4.0118110236220472
 30
0
 11
2.9936023622047245
 21
-4.0118110236220472
 31
0
  0
LINE
  5
219
330
1A
100
AcDbEntity
  8
F.Paste
  6
CONTINUOUS
100
AcDbLine
 10
2.9936023622047245
 20
-4.0118110236220472
 30
0
 11
2.9926607086614174
 21
-4.0116237007874016
 31
0
  0
LINE
  5
21A
330
1A
100
AcDbEntity
  8
F.Paste
  6
CONTINUOUS
100
AcDbLine
 10
2.9926607086614174
 20
-4.0116237007874016
 30
0
 11
2.9918624409448817
 21
-4.0110903149606294
 31
0
  0
LINE
  5
21B
330
1A
100
AcDbEntity
  8
F.Paste
  6
CONTINUOUS
100
AcDbLine
 10
2.9918624409448817
 20
-4.0110903149606294
 30
0
 11
2.99132905511811
 21
-4.0102920472440946
 31
0
  0
LINE
  5
21C
330
1A
100
AcDbEntity
  8
F.Paste
  6
CONTINUOUS
100
AcDbLine
 10
2.99132905511811
 20
-4.0102920472440946
 30
0
 11
2.9911417322834644
 21
-4.0093503937007871
 31
0
  0
LINE
  5
21D
330
1A
100
AcDbEntity
  8
F.Paste
  6
CONTINUOUS
100
AcDbLine
 10
2.9911417322834644
 20
-4.0093503937007871
 30
0
 11
2.9911417322834644
 21
-4.0044291338582676
 31
0
  0
LINE
  5
21E
330
1A
100
AcDbEntity
  8
F.Paste
  6
CONTINUOUS
100
AcDbLine
 10
2.9911417322834644
 20
-4.0044291338582676
 30
0
 11
2.99132905511811
 21
-4.0034874803149609
 31
0
  0
LINE
  5
21F
330
1A
100
AcDbEntity
  8
F.Paste
  6
CONTINUOUS
100
AcDbLine
 10
2.99132905511811
 20
-4.0034874803149609
 30
0
 11
2.9918624409448817
 21
-4.0026892125984253
 31
0
  0
LINE
  5
220
330
1A
100
AcDbEntity
  8
F.Paste
  6
CONTINUOUS
100
AcDbLine
 10
2.9918624409448817
 20
-4.0026892125984253
 30
0
 11
2.9926607086614174
 21
-4.002155826771653
 31
0
  0
LINE
  5
221
330
1A
100
AcDbEntity
  8
F.Paste
  6
CONTINUOUS
100
AcDbLine
 10
2.9926607086614174
 20
-4.002155826771653
 30
0
 11
2.9936023622047245
 21
-4.0019685039370074
 31
0
  0
LINE
  5
222
330
1A
100
AcDbEntity
  8
F.Paste
  6
CONTINUOUS
100
AcDbLine
 10
2.9936023622047245
 20
-4.0019685039370074
 30
0
 11
3.0152559055118111
 21
-4.0019685039370074
 31
0
  0
LINE
  5
223
330
1A
100
AcDbEntity
  8
F.Paste
  6
CONTINUOUS
100
AcDbLine
 10
3.0152559055118111
 20
-4.0019685039370074
 30
0
 11
3.0161975590551182
 21
-4.002155826771653
 31
0
  0
LINE
  5
224
330
1A
100
AcDbEntity
  8
F.Paste
  6
CONTINUOUS
100
AcDbLine
 10
3.1352920472440946
 20
-4.002155826771653
 30
0
 11
3.1360903149606298
 21
-4.0026892125984253
 31
0
  0
LINE
  5
225
330
1A
100
AcDbEntity
  8
F.Paste
  6
CONTINUOUS
100
AcDbLine
 10
3.1360903149606298
 20
-4.0026892125984253
 30
0
 11
3.1366237007874016
 21
-4.0034874803149609
 31
0
  0
LINE
  5
226
330
1A
100
AcDbEntity
  8
F.Paste
  6
CONTINUOUS
100
AcDbLine
 10
3.1366237007874016
 20
-4.0034874803149609
 30
0
 11
3.1368110236220472
 21
-4.0044291338582676
 31
0
  0
LINE
  5
227
330
1A
100
AcDbEntity
  8
F.Paste
  6
CONTINUOUS
100
AcDbLine
 10
3.1368110236220472
 20
-4.0044291338582676
 30
0
 11
3.1368110236220472
 21
-4.0093503937007871
 31
0
  0
LINE
  5
228
330
1A
100
AcDbEntity
  8
F.Paste
  6
CONTINUOUS
100
AcDbLine
 10
3.1368110236220472
 20
-4.0093503937007871
 30
0
 11
3.1366237007874016
 21
-4.0102920472440946
 31
0
  0
LINE
  5
229
330
1A
100
AcDbEntity
  8
F.Paste
  6
CONTINUOUS
100
AcDbLine
 10
3.1366237007874016
 20
-4.0102920472440946
 30
0
 11
3.1360903149606298
 21
-4.0110903149606294
 31
0
  0
LINE
  5
22A
330
1A
100
AcDbEntity
  8
F.Paste
  6
CONTINUOUS
100
AcDbLine
 10
3.1360903149606298
 20
-4.0110903149606294
 30
0
 11
3.1352920472440946
 21
-4.0116237007874016
 31
0
  0
LINE
  5
22B
330
1A
100
AcDbEntity
  8
F.Paste
  6
CONTINUOUS
100
AcDbLine
 10
3.1352920472440946
 20
-4.0116237007874016
 30
0
 11
3.1343503937007875
 21
-4.0118110236220472
 31
0
  0
LINE
  5
22C
330
1A
100
AcDbEntity
  8
F.Paste
  6
CONTINUOUS
100
AcDbLine
 10
3.1343503937007875
 20
-4.0118110236220472
 30
0
 11
3.1126968503937009
 21
-4.0118110236220472
 31
0
  0
LINE
  5
22D
330
1A
100
AcDbEntity
  8
F.Paste
  6
CONTINUOUS
100
AcDbLine
 10
3.1126968503937009
 20
-4.0118110236220472
 30
0
 11
3.1117551968503938
 21
-4.0116237007874016
 31
0
  0
LINE
  5
22E
330
1A
100
AcDbEntity
  8
F.Paste
  6
CONTINUOUS
100
AcDbLine
 10
3.1117551968503938
 20
-4.0116237007874016
 30
0
 11
3.1109569291338581
 21
-4.0110903149606294
 31
0
  0
LINE
  5
22F
330
1A
100
AcDbEntity
  8
F.Paste
  6
CONTINUOUS
100
AcDbLine
 10
3.1109569291338581
 20
-4.0110903149606294
 30
0
 11
3.1104235433070864
 21
-4.0102920472440946
 31
0
  0
LINE
  5
230
330
1A
100
AcDbEntity
  8
F.Paste
  6
CONTINUOUS
100
AcDbLine
 10
3.1104235433070864
 20
-4.0102920472440946
 30
0
 11
3.1102362204724407
 21
-4.0093503937007871
 31
0
  0
LINE
  5
231
330
1A
100
AcDbEntity
  8
F.Paste
  6
CONTINUOUS
100
AcDbLine
 10
3.1102362204724407
 20
-4.0093503937007871
 30
0
 11
3.1102362204724407
 21
-4.0044291338582676
 31
0
  0
LINE
  5
232
330
1A
100
AcDbEntity
  8
F.Paste
  6
CONTINUOUS
100
AcDbLine
 10
3.1102362204724407
 20
-4.0044291338582676
 30
0
 11
3.1104235433070864
 21
-4.0034874803149609
 31
0
  0
LINE
  5
233
330
1A
100
AcDbEntity
  8
F.Paste
  6
CONTINUOUS
100
AcDbLine
 10
3.1104235433070864
 20
-4.0034874803149609
 30
0
 11
3.1109569291338581
 21
-4.0026892125984253
 31
0
  0
LINE
  5
234
330
1A
100
AcDbEntity
  8
F.Paste
  6
CONTINUOUS
100
AcDbLine
 10
3.1109569291338581
 20
-4.0026892125984253
 30
0
 11
3.1117551968503938
 21
-4.002155826771653
 31
0
  0
LINE
  5
235
330
1A
100
AcDbEntity
  8
F.Paste
  6
CONTINUOUS
100
AcDbLine
 10
3.1117551968503938
 20
-4.002155826771653
 30
0
 11
3.1126968503937009
 21
-4.0019685039370074
 31
0
  0
LINE
  5
236
330
1A
100
AcDbEntity
  8
F.Paste
  6
CONTINUOUS
100
AcDbLine
 10
3.1126968503937009
 20
-4.0019685039370074
 30
0
 11
3.1343503937007875
 21
-4.0019685039370074
 31
0
  0
LINE
  5
237
330
1A
100
AcDbEntity
  8
F.Paste
  6
CONTINUOUS
100
AcDbLine
 10
3.1343503937007875
 20
-4.0019685039370074
 30
0
 11
3.1352920472440946
 21
-4.002155826771653
 31
0
  0
LINE
  5
238
330
1A
100
AcDbEntity
  8
F.Paste
  6
CONTINUOUS
100
AcDbLine
 10
3.0161975590551182
 20
-3.9824707874015748
 30
0
 11
3.0169958267716535
 21
-3.9830041732283465
 31
0
  0
LINE
  5
239
330
1A
100
AcDbEntity
  8
F.Paste
  6
CONTINUOUS
100
AcDbLine
 10
3.0169958267716535
 20
-3.9830041732283465
 30
0
 11
3.0175292125984252
 21
-3.9838024409448818
 31
0
  0
LINE
  5
23A
330
1A
100
AcDbEntity
  8
F.Paste
  6
CONTINUOUS
100
AcDbLine
 10
3.0175292125984252
 20
-3.9838024409448818
 30
0
 11
3.0177165354330708
 21
-3.9847440944881889
 31
0
  0
LINE
  5
23B
330
1A
100
AcDbEntity
  8
F.Paste
  6
CONTINUOUS
100
AcDbLine
 10
3.0177165354330708
 20
-3.9847440944881889
 30
0
 11
3.0177165354330708
 21
-3.9896653543307088
 31
0
  0
LINE
  5
23C
330
1A
100
AcDbEntity
  8
F.Paste
  6
CONTINUOUS
100
AcDbLine
 10
3.0177165354330708
 20
-3.9896653543307088
 30
0
 11
3.0175292125984252
 21
-3.9906070078740155
 31
0
  0
LINE
  5
23D
330
1A
100
AcDbEntity
  8
F.Paste
  6
CONTINUOUS
100
AcDbLine
 10
3.0175292125984252
 20
-3.9906070078740155
 30
0
 11
3.0169958267716535
 21
-3.9914052755905511
 31
0
  0
LINE
  5
23E
330
1A
100
AcDbEntity
  8
F.Paste
  6
CONTINUOUS
100
AcDbLine
 10
3.0169958267716535
 20
-3.9914052755905511
 30
0
 11
3.0161975590551182
 21
-3.9919386614173229
 31
0
  0
LINE
  5
23F
330
1A
100
AcDbEntity
  8
F.Paste
  6
CONTINUOUS
100
AcDbLine
 10
3.0161975590551182
 20
-3.9919386614173229
 30
0
 11
3.0152559055118111
 21
-3.9921259842519685
 31
0
  0
LINE
  5
240
330
1A
100
AcDbEntity
  8
F.Paste
  6
CONTINUOUS
100
AcDbLine
 10
3.0152559055118111
 20
-3.9921259842519685
 30
0
 11
2.9936023622047245
 21
-3.9921259842519685
 31
0
  0
LINE
  5
241
330
1A
100
AcDbEntity
  8
F.Paste
  6
CONTINUOUS
100
AcDbLine
 10
2.9936023622047245
 20
-3.9921259842519685
 30
0
 11
2.9926607086614174
 21
-3.9919386614173229
 31
0
  0
LINE
  5
242
330
1A
100
AcDbEntity
  8
F.Paste
  6
CONTINUOUS
100
AcDbLine
 10
2.9926607086614174
 20
-3.9919386614173229
 30
0
 11
2.9918624409448817
 21
-3.9914052755905511
 31
0
  0
LINE
  5
243
330
1A
100
AcDbEntity
  8
F.Paste
  6
CONTINUOUS
100
AcDbLine
 10
2.9918624409448817
 20
-3.9914052755905511
 30
0
 11
2.99132905511811
 21
-3.9906070078740155
 31
0
  0
LINE
  5
244
330
1A
100
AcDbEntity
  8
F.Paste
  6
CONTINUOUS
100
AcDbLine
 10
2.99132905511811
 20
-3.9906070078740155
 30
0
 11
2.9911417322834644
 21
-3.9896653543307088
 31
0
  0
LINE
  5
245
330
1A
100
AcDbEntity
  8
F.Paste
  6
CONTINUOUS
100
AcDbLine
 10
2.9911417322834644
 20
-3.9896653543307088
 30
0
 11
2.9911417322834644
 21
-3.9847440944881889
 31
0
  0
LINE
  5
246
330
1A
100
AcDbEntity
  8
F.Paste
  6
CONTINUOUS
100
AcDbLine
 10
2.9911417322834644
 20
-3.9847440944881889
 30
0
 11
2.99132905511811
 21
-3.9838024409448818
 31
0
  0
LINE
  5
247
330
1A
100
AcDbEntity
  8
F.Paste
  6
CONTINUOUS
100
AcDbLine
 10
2.99132905511811
 20
-3.9838024409448818
 30
0
 11
2.9918624409448817
 21
-3.9830041732283465
 31
0
  0
LINE
  5
248
330
1A
100
AcDbEntity
  8
F.Paste
  6
CONTINUOUS
100
AcDbLine
 10
2.9918624409448817
 20
-3.9830041732283465
 30
0
 11
2.9926607086614174
 21
-3.9824707874015748
 31
0
  0
LINE
  5
249
330
1A
100
AcDbEntity
  8
F.Paste
  6
CONTINUOUS
100
AcDbLine
 10
2.9926607086614174
 20
-3.9824707874015748
 30
0
 11
2.9936023622047245
 21
-3.9822834645669292
 31
0
  0
LINE
  5
24A
330
1A
100
AcDbEntity
  8
F.Paste
  6
CONTINUOUS
100
AcDbLine
 10
2.9936023622047245
 20
-3.9822834645669292
 30
0
 11
3.0152559055118111
 21
-3.9822834645669292
 31
0
  0
LINE
  5
24B
330
1A
100
AcDbEntity
  8
F.Paste
  6
CONTINUOUS
100
AcDbLine
 10
3.0152559055118111
 20
-3.9822834645669292
 30
0
 11
3.0161975590551182
 21
-3.9824707874015748
 31
0
  0
LINE
  5
24C
330
1A
100
AcDbEntity
  8
F.Paste
  6
CONTINUOUS
100
AcDbLine
 10
3.1352920472440946
 20
-3.9824707874015748
 30
0
 11
3.1360903149606298
 21
-3.9830041732283465
 31
0
  0
LINE
  5
24D
330
1A
100
AcDbEntity
  8
F.Paste
  6
CONTINUOUS
100
AcDbLine
 10
3.1360903149606298
 20
-3.9830041732283465
 30
0
 11
3.1366237007874016
 21
-3.9838024409448818
 31
0
  0
LINE
  5
24E
330
1A
100
AcDbEntity
  8
F.Paste
  6
CONTINUOUS
100
AcDbLine
 10
3.1366237007874016
 20
-3.9838024409448818
 30
0
 11
3.1368110236220472
 21
-3.9847440944881889
 31
0
  0
LINE
  5
24F
330
1A
100
AcDbEntity
  8
F.Paste
  6
CONTINUOUS
100
AcDbLine
 10
3.1368110236220472
 20
-3.9847440944881889
 30
0
 11
3.1368110236220472
 21
-3.9896653543307088
 31
0
  0
LINE
  5
250
330
1A
100
AcDbEntity
  8
F.Paste
  6
CONTINUOUS
100
AcDbLine
 10
3.1368110236220472
 20
-3.9896653543307088
 30
0
 11
3.1366237007874016
 21
-3.9906070078740155
 31
0
  0
LINE
  5
251
330
1A
100
AcDbEntity
  8
F.Paste
  6
CONTINUOUS
100
AcDbLine
 10
3.1366237007874016
 20
-3.9906070078740155
 30
0
 11
3.1360903149606298
 21
-3.9914052755905511
 31
0
  0
LINE
  5
252
330
1A
100
AcDbEntity
  8
F.Paste
  6
CONTINUOUS
100
AcDbLine
 10
3.1360903149606298
 20
-3.9914052755905511
 30
0
 11
3.1352920472440946
 21
-3.9919386614173229
 31
0
  0
LINE
  5
253
330
1A
100
AcDbEntity
  8
F.Paste
  6
CONTINUOUS
100
AcDbLine
 10
3.1352920472440946
 20
-3.9919386614173229
 30
0
 11
3.1343503937007875
 21
-3.9921259842519685
 31
0
  0
LINE
  5
254
330
1A
100
AcDbEntity
  8
F.Paste
  6
CONTINUOUS
100
AcDbLine
 10
3.1343503937007875
 20
-3.9921259842519685
 30
0
 11
3.1126968503937009
 21
-3.9921259842519685
 31
0
  0
LINE
  5
255
330
1A
100
AcDbEntity
  8
F.Paste
  6
CONTINUOUS
100
AcDbLine
 10
3.1126968503937009
 20
-3.9921259842519685
 30
0
 11
3.1117551968503938
 21
-3.9919386614173229
 31
0
  0
LINE
  5
256
330
1A
100
AcDbEntity
  8
F.Paste
  6
CONTINUOUS
100
AcDbLine
 10
3.1117551968503938
 20
-3.9919386614173229
 30
0
 11
3.1109569291338581
 21
-3.9914052755905511
 31
0
  0
LINE
  5
257
330
1A
100
AcDbEntity
  8
F.Paste
  6
CONTINUOUS
100
AcDbLine
 10
3.1109569291338581
 20
-3.9914052755905511
 30
0
 11
3.1104235433070864
 21
-3.9906070078740155
 31
0
  0
LINE
  5
258
330
1A
100
AcDbEntity
  8
F.Paste
  6
CONTINUOUS
100
AcDbLine
 10
3.1104235433070864
 20
-3.9906070078740155
 30
0
 11
3.1102362204724407
 21
-3.9896653543307088
 31
0
  0
LINE
  5
259
330
1A
100
AcDbEntity
  8
F.Paste
  6
CONTINUOUS
100
AcDbLine
 10
3.1102362204724407
 20
-3.9896653543307088
 30
0
 11
3.1102362204724407
 21
-3.9847440944881889
 31
0
  0
LINE
  5
25A
330
1A
100
AcDbEntity
  8
F.Paste
  6
CONTINUOUS
100
AcDbLine
 10
3.1102362204724407
 20
-3.9847440944881889
 30
0
 11
3.1104235433070864
 21
-3.9838024409448818
 31
0
  0
LINE
  5
25B
330
1A
100
AcDbEntity
  8
F.Paste
  6
CONTINUOUS
100
AcDbLine
 10
3.1104235433070864
 20
-3.9838024409448818
 30
0
 11
3.1109569291338581
 21
-3.9830041732283465
 31
0
  0
LINE
  5
25C
330
1A
100
AcDbEntity
  8
F.Paste
  6
CONTINUOUS
100
AcDbLine
 10
3.1109569291338581
 20
-3.9830041732283465
 30
0
 11
3.1117551968503938
 21
-3.9824707874015748
 31
0
  0
LINE
  5
25D
330
1A
100
AcDbEntity
  8
F.Paste
  6
CONTINUOUS
100
AcDbLine
 10
3.1117551968503938
 20
-3.9824707874015748
 30
0
 11
3.1126968503937009
 21
-3.9822834645669292
 31
0
  0
LINE
  5
25E
330
1A
100
AcDbEntity
  8
F.Paste
  6
CONTINUOUS
100
AcDbLine
 10
3.1126968503937009
 20
-3.9822834645669292
 30
0
 11
3.1343503937007875
 21
-3.9822834645669292
 31
0
  0
LINE
  5
25F
330
1A
100
AcDbEntity
  8
F.Paste
  6
CONTINUOUS
100
AcDbLine
 10
3.1343503937007875
 20
-3.9822834645669292
 30
0
 11
3.1352920472440946
 21
-3.9824707874015748
 31
0
  0
LINE
  5
260
330
1A
100
AcDbEntity
  8
F.Paste
  6
CONTINUOUS
100
AcDbLine
 10
3.1616141732283465
 20
-3.9744094488188977
 30
0
 11
3.1360236220472442
 21
-3.9744094488188977
 31
0
  0
LINE
  5
261
330
1A
100
AcDbEntity
  8
F.Paste
  6
CONTINUOUS
100
AcDbLine
 10
3.1360236220472442
 20
-3.9744094488188977
 30
0
 11
3.1360236220472442
 21
-3.9468503937007875
 31
0
  0
LINE
  5
262
330
1A
100
AcDbEntity
  8
F.Paste
  6
CONTINUOUS
100
AcDbLine
 10
3.1360236220472442
 20
-3.9468503937007875
 30
0
 11
3.1616141732283465
 21
-3.9468503937007875
 31
0
  0
LINE
  5
263
330
1A
100
AcDbEntity
  8
F.Paste
  6
CONTINUOUS
100
AcDbLine
 10
3.1616141732283465
 20
-3.9468503937007875
 30
0
 11
3.1616141732283465
 21
-3.9744094488188977
 31
0
  0
LINE
  5
264
330
1A
100
AcDbEntity
  8
F.Paste
  6
CONTINUOUS
100
AcDbLine
 10
3.1986220472440943
 20
-3.9744094488188977
 30
0
 11
3.173031496062992
 21
-3.9744094488188977
 31
0
  0
LINE
  5
265
330
1A
100
AcDbEntity
  8
F.Paste
  6
CONTINUOUS
100
AcDbLine
 10
3.173031496062992
 20
-3.9744094488188977
 30
0
 11
3.173031496062992
 21
-3.9468503937007875
 31
0
  0
LINE
  5
266
330
1A
100
AcDbEntity
  8
F.Paste
  6
CONTINUOUS
100
AcDbLine
 10
3.173031496062992
 20
-3.9468503937007875
 30
0
 11
3.1986220472440943
 21
-3.9468503937007875
 31
0
  0
LINE
  5
267
330
1A
100
AcDbEntity
  8
F.Paste
  6
CONTINUOUS
100
AcDbLine
 10
3.1986220472440943
 20
-3.9468503937007875
 30
0
 11
3.1986220472440943
 21
-3.9744094488188977
 31
0
  0
LINE
  5
268
330
1A
100
AcDbEntity
  8
F.Paste
  6
CONTINUOUS
100
AcDbLine
 10
3.0378511023622048
 20
-3.9440849606299211
 30
0
 11
3.03864937007874
 21
-3.9446183464566928
 31
0
  0
LINE
  5
269
330
1A
100
AcDbEntity
  8
F.Paste
  6
CONTINUOUS
100
AcDbLine
 10
3.03864937007874
 20
-3.9446183464566928
 30
0
 11
3.0391827559055118
 21
-3.9454166141732281
 31
0
  0
LINE
  5
26A
330
1A
100
AcDbEntity
  8
F.Paste
  6
CONTINUOUS
100
AcDbLine
 10
3.0391827559055118
 20
-3.9454166141732281
 30
0
 11
3.0393700787401574
 21
-3.9463582677165352
 31
0
  0
LINE
  5
26B
330
1A
100
AcDbEntity
  8
F.Paste
  6
CONTINUOUS
100
AcDbLine
 10
3.0393700787401574
 20
-3.9463582677165352
 30
0
 11
3.0393700787401574
 21
-3.9680118110236218
 31
0
  0
LINE
  5
26C
330
1A
100
AcDbEntity
  8
F.Paste
  6
CONTINUOUS
100
AcDbLine
 10
3.0393700787401574
 20
-3.9680118110236218
 30
0
 11
3.0391827559055118
 21
-3.9689534645669289
 31
0
  0
LINE
  5
26D
330
1A
100
AcDbEntity
  8
F.Paste
  6
CONTINUOUS
100
AcDbLine
 10
3.0391827559055118
 20
-3.9689534645669289
 30
0
 11
3.03864937007874
 21
-3.9697517322834646
 31
0
  0
LINE
  5
26E
330
1A
100
AcDbEntity
  8
F.Paste
  6
CONTINUOUS
100
AcDbLine
 10
3.03864937007874
 20
-3.9697517322834646
 30
0
 11
3.0378511023622048
 21
-3.9702851181102363
 31
0
  0
LINE
  5
26F
330
1A
100
AcDbEntity
  8
F.Paste
  6
CONTINUOUS
100
AcDbLine
 10
3.0378511023622048
 20
-3.9702851181102363
 30
0
 11
3.0369094488188977
 21
-3.9704724409448819
 31
0
  0
LINE
  5
270
330
1A
100
AcDbEntity
  8
F.Paste
  6
CONTINUOUS
100
AcDbLine
 10
3.0369094488188977
 20
-3.9704724409448819
 30
0
 11
3.0319881889763778
 21
-3.9704724409448819
 31
0
  0
LINE
  5
271
330
1A
100
AcDbEntity
  8
F.Paste
  6
CONTINUOUS
100
AcDbLine
 10
3.0319881889763778
 20
-3.9704724409448819
 30
0
 11
3.0310465354330707
 21
-3.9702851181102363
 31
0
  0
LINE
  5
272
330
1A
100
AcDbEntity
  8
F.Paste
  6
CONTINUOUS
100
AcDbLine
 10
3.0310465354330707
 20
-3.9702851181102363
 30
0
 11
3.0302482677165354
 21
-3.9697517322834646
 31
0
  0
LINE
  5
273
330
1A
100
AcDbEntity
  8
F.Paste
  6
CONTINUOUS
100
AcDbLine
 10
3.0302482677165354
 20
-3.9697517322834646
 30
0
 11
3.0297148818897637
 21
-3.9689534645669289
 31
0
  0
LINE
  5
274
330
1A
100
AcDbEntity
  8
F.Paste
  6
CONTINUOUS
100
AcDbLine
 10
3.0297148818897637
 20
-3.9689534645669289
 30
0
 11
3.0295275590551181
 21
-3.9680118110236218
 31
0
  0
LINE
  5
275
330
1A
100
AcDbEntity
  8
F.Paste
  6
CONTINUOUS
100
AcDbLine
 10
3.0295275590551181
 20
-3.9680118110236218
 30
0
 11
3.0295275590551181
 21
-3.9463582677165352
 31
0
  0
LINE
  5
276
330
1A
100
AcDbEntity
  8
F.Paste
  6
CONTINUOUS
100
AcDbLine
 10
3.0295275590551181
 20
-3.9463582677165352
 30
0
 11
3.0297148818897637
 21
-3.9454166141732281
 31
0
  0
LINE
  5
277
330
1A
100
AcDbEntity
  8
F.Paste
  6
CONTINUOUS
100
AcDbLine
 10
3.0297148818897637
 20
-3.9454166141732281
 30
0
 11
3.0302482677165354
 21
-3.9446183464566928
 31
0
  0
LINE
  5
278
330
1A
100
AcDbEntity
  8
F.Paste
  6
CONTINUOUS
100
AcDbLine
 10
3.0302482677165354
 20
-3.9446183464566928
 30
0
 11
3.0310465354330707
 21
-3.9440849606299211
 31
0
  0
LINE
  5
279
330
1A
100
AcDbEntity
  8
F.Paste
  6
CONTINUOUS
100
AcDbLine
 10
3.0310465354330707
 20
-3.9440849606299211
 30
0
 11
3.0319881889763778
 21
-3.9438976377952755
 31
0
  0
LINE
  5
27A
330
1A
100
AcDbEntity
  8
F.Paste
  6
CONTINUOUS
100
AcDbLine
 10
3.0319881889763778
 20
-3.9438976377952755
 30
0
 11
3.0369094488188977
 21
-3.9438976377952755
 31
0
  0
LINE
  5
27B
330
1A
100
AcDbEntity
  8
F.Paste
  6
CONTINUOUS
100
AcDbLine
 10
3.0369094488188977
 20
-3.9438976377952755
 30
0
 11
3.0378511023622048
 21
-3.9440849606299211
 31
0
  0
LINE
  5
27C
330
1A
100
AcDbEntity
  8
F.Paste
  6
CONTINUOUS
100
AcDbLine
 10
3.0575361417322835
 20
-3.9440849606299211
 30
0
 11
3.0583344094488187
 21
-3.9446183464566928
 31
0
  0
LINE
  5
27D
330
1A
100
AcDbEntity
  8
F.Paste
  6
CONTINUOUS
100
AcDbLine
 10
3.0583344094488187
 20
-3.9446183464566928
 30
0
 11
3.0588677952755905
 21
-3.9454166141732281
 31
0
  0
LINE
  5
27E
330
1A
100
AcDbEntity
  8
F.Paste
  6
CONTINUOUS
100
AcDbLine
 10
3.0588677952755905
 20
-3.9454166141732281
 30
0
 11
3.0590551181102361
 21
-3.9463582677165352
 31
0
  0
LINE
  5
27F
330
1A
100
AcDbEntity
  8
F.Paste
  6
CONTINUOUS
100
AcDbLine
 10
3.0590551181102361
 20
-3.9463582677165352
 30
0
 11
3.0590551181102361
 21
-3.9680118110236218
 31
0
  0
LINE
  5
280
330
1A
100
AcDbEntity
  8
F.Paste
  6
CONTINUOUS
100
AcDbLine
 10
3.0590551181102361
 20
-3.9680118110236218
 30
0
 11
3.0588677952755905
 21
-3.9689534645669289
 31
0
  0
LINE
  5
281
330
1A
100
AcDbEntity
  8
F.Paste
  6
CONTINUOUS
100
AcDbLine
 10
3.0588677952755905
 20
-3.9689534645669289
 30
0
 11
3.0583344094488187
 21
-3.9697517322834646
 31
0
  0
LINE
  5
282
330
1A
100
AcDbEntity
  8
F.Paste
  6
CONTINUOUS
100
AcDbLine
 10
3.0583344094488187
 20
-3.9697517322834646
 30
0
 11
3.0575361417322835
 21
-3.9702851181102363
 31
0
  0
LINE
  5
283
330
1A
100
AcDbEntity
  8
F.Paste
  6
CONTINUOUS
100
AcDbLine
 10
3.0575361417322835
 20
-3.9702851181102363
 30
0
 11
3.0565944881889764
 21
-3.9704724409448819
 31
0
  0
LINE
  5
284
330
1A
100
AcDbEntity
  8
F.Paste
  6
CONTINUOUS
100
AcDbLine
 10
3.0565944881889764
 20
-3.9704724409448819
 30
0
 11
3.0516732283464565
 21
-3.9704724409448819
 31
0
  0
LINE
  5
285
330
1A
100
AcDbEntity
  8
F.Paste
  6
CONTINUOUS
100
AcDbLine
 10
3.0516732283464565
 20
-3.9704724409448819
 30
0
 11
3.0507315748031494
 21
-3.9702851181102363
 31
0
  0
LINE
  5
286
330
1A
100
AcDbEntity
  8
F.Paste
  6
CONTINUOUS
100
AcDbLine
 10
3.0507315748031494
 20
-3.9702851181102363
 30
0
 11
3.0499333070866141
 21
-3.9697517322834646
 31
0
  0
LINE
  5
287
330
1A
100
AcDbEntity
  8
F.Paste
  6
CONTINUOUS
100
AcDbLine
 10
3.0499333070866141
 20
-3.9697517322834646
 30
0
 11
3.0493999212598424
 21
-3.9689534645669289
 31
0
  0
LINE
  5
288
330
1A
100
AcDbEntity
  8
F.Paste
  6
CONTINUOUS
100
AcDbLine
 10
3.0493999212598424
 20
-3.9689534645669289
 30
0
 11
3.0492125984251968
 21
-3.9680118110236218
 31
0
  0
LINE
  5
289
330
1A
100
AcDbEntity
  8
F.Paste
  6
CONTINUOUS
100
AcDbLine
 10
3.0492125984251968
 20
-3.9680118110236218
 30
0
 11
3.0492125984251968
 21
-3.9463582677165352
 31
0
  0
LINE
  5
28A
330
1A
100
AcDbEntity
  8
F.Paste
  6
CONTINUOUS
100
AcDbLine
 10
3.0492125984251968
 20
-3.9463582677165352
 30
0
 11
3.0493999212598424
 21
-3.9454166141732281
 31
0
  0
LINE
  5
28B
330
1A
100
AcDbEntity
  8
F.Paste
  6
CONTINUOUS
100
AcDbLine
 10
3.0493999212598424
 20
-3.9454166141732281
 30
0
 11
3.0499333070866141
 21
-3.9446183464566928
 31
0
  0
LINE
  5
28C
330
1A
100
AcDbEntity
  8
F.Paste
  6
CONTINUOUS
100
AcDbLine
 10
3.0499333070866141
 20
-3.9446183464566928
 30
0
 11
3.0507315748031494
 21
-3.9440849606299211
 31
0
  0
LINE
  5
28D
330
1A
100
AcDbEntity
  8
F.Paste
  6
CONTINUOUS
100
AcDbLine
 10
3.0507315748031494
 20
-3.9440849606299211
 30
0
 11
3.0516732283464565
 21
-3.9438976377952755
 31
0
  0
LINE
  5
28E
330
1A
100
AcDbEntity
  8
F.Paste
  6
CONTINUOUS
100
AcDbLine
 10
3.0516732283464565
 20
-3.9438976377952755
 30
0
 11
3.0565944881889764
 21
-3.9438976377952755
 31
0
  0
LINE
  5
28F
330
1A
100
AcDbEntity
  8
F.Paste
  6
CONTINUOUS
100
AcDbLine
 10
3.0565944881889764
 20
-3.9438976377952755
 30
0
 11
3.0575361417322835
 21
-3.9440849606299211
 31
0
  0
LINE
  5
290
330
1A
100
AcDbEntity
  8
F.Paste
  6
CONTINUOUS
100
AcDbLine
 10
3.0772211811023622
 20
-3.9440849606299211
 30
0
 11
3.0780194488188974
 21
-3.9446183464566928
 31
0
  0
LINE
  5
291
330
1A
100
AcDbEntity
  8
F.Paste
  6
CONTINUOUS
100
AcDbLine
 10
3.0780194488188974
 20
-3.9446183464566928
 30
0
 11
3.0785528346456692
 21
-3.9454166141732281
 31
0
  0
LINE
  5
292
330
1A
100
AcDbEntity
  8
F.Paste
  6
CONTINUOUS
100
AcDbLine
 10
3.0785528346456692
 20
-3.9454166141732281
 30
0
 11
3.0787401574803148
 21
-3.9463582677165352
 31
0
  0
LINE
  5
293
330
1A
100
AcDbEntity
  8
F.Paste
  6
CONTINUOUS
100
AcDbLine
 10
3.0787401574803148
 20
-3.9463582677165352
 30
0
 11
3.0787401574803148
 21
-3.9680118110236218
 31
0
  0
LINE
  5
294
330
1A
100
AcDbEntity
  8
F.Paste
  6
CONTINUOUS
100
AcDbLine
 10
3.0787401574803148
 20
-3.9680118110236218
 30
0
 11
3.0785528346456692
 21
-3.9689534645669289
 31
0
  0
LINE
  5
295
330
1A
100
AcDbEntity
  8
F.Paste
  6
CONTINUOUS
100
AcDbLine
 10
3.0785528346456692
 20
-3.9689534645669289
 30
0
 11
3.0780194488188974
 21
-3.9697517322834646
 31
0
  0
LINE
  5
296
330
1A
100
AcDbEntity
  8
F.Paste
  6
CONTINUOUS
100
AcDbLine
 10
3.0780194488188974
 20
-3.9697517322834646
 30
0
 11
3.0772211811023622
 21
-3.9702851181102363
 31
0
  0
LINE
  5
297
330
1A
100
AcDbEntity
  8
F.Paste
  6
CONTINUOUS
100
AcDbLine
 10
3.0772211811023622
 20
-3.9702851181102363
 30
0
 11
3.0762795275590551
 21
-3.9704724409448819
 31
0
  0
LINE
  5
298
330
1A
100
AcDbEntity
  8
F.Paste
  6
CONTINUOUS
100
AcDbLine
 10
3.0762795275590551
 20
-3.9704724409448819
 30
0
 11
3.0713582677165352
 21
-3.9704724409448819
 31
0
  0
LINE
  5
299
330
1A
100
AcDbEntity
  8
F.Paste
  6
CONTINUOUS
100
AcDbLine
 10
3.0713582677165352
 20
-3.9704724409448819
 30
0
 11
3.0704166141732281
 21
-3.9702851181102363
 31
0
  0
LINE
  5
29A
330
1A
100
AcDbEntity
  8
F.Paste
  6
CONTINUOUS
100
AcDbLine
 10
3.0704166141732281
 20
-3.9702851181102363
 30
0
 11
3.0696183464566928
 21
-3.9697517322834646
 31
0
  0
LINE
  5
29B
330
1A
100
AcDbEntity
  8
F.Paste
  6
CONTINUOUS
100
AcDbLine
 10
3.0696183464566928
 20
-3.9697517322834646
 30
0
 11
3.0690849606299211
 21
-3.9689534645669289
 31
0
  0
LINE
  5
29C
330
1A
100
AcDbEntity
  8
F.Paste
  6
CONTINUOUS
100
AcDbLine
 10
3.0690849606299211
 20
-3.9689534645669289
 30
0
 11
3.0688976377952755
 21
-3.9680118110236218
 31
0
  0
LINE
  5
29D
330
1A
100
AcDbEntity
  8
F.Paste
  6
CONTINUOUS
100
AcDbLine
 10
3.0688976377952755
 20
-3.9680118110236218
 30
0
 11
3.0688976377952755
 21
-3.9463582677165352
 31
0
  0
LINE
  5
29E
330
1A
100
AcDbEntity
  8
F.Paste
  6
CONTINUOUS
100
AcDbLine
 10
3.0688976377952755
 20
-3.9463582677165352
 30
0
 11
3.0690849606299211
 21
-3.9454166141732281
 31
0
  0
LINE
  5
29F
330
1A
100
AcDbEntity
  8
F.Paste
  6
CONTINUOUS
100
AcDbLine
 10
3.0690849606299211
 20
-3.9454166141732281
 30
0
 11
3.0696183464566928
 21
-3.9446183464566928
 31
0
  0
LINE
  5
2A0
330
1A
100
AcDbEntity
  8
F.Paste
  6
CONTINUOUS
100
AcDbLine
 10
3.0696183464566928
 20
-3.9446183464566928
 30
0
 11
3.0704166141732281
 21
-3.9440849606299211
 31
0
  0
LINE
  5
2A1
330
1A
100
AcDbEntity
  8
F.Paste
  6
CONTINUOUS
100
AcDbLine
 10
3.0704166141732281
 20
-3.9440849606299211
 30
0
 11
3.0713582677165352
 21
-3.9438976377952755
 31
0
  0
LINE
  5
2A2
330
1A
100
AcDbEntity
  8
F.Paste
  6
CONTINUOUS
100
AcDbLine
 10
3.0713582677165352
 20
-3.9438976377952755
 30
0
 11
3.0762795275590551
 21
-3.9438976377952755
 31
0
  0
LINE
  5
2A3
330
1A
100
AcDbEntity
  8
F.Paste
  6
CONTINUOUS
100
AcDbLine
 10
3.0762795275590551
 20
-3.9438976377952755
 30
0
 11
3.0772211811023622
 21
-3.9440849606299211
 31
0
  0
LINE
  5
2A4
330
1A
100
AcDbEntity
  8
F.Paste
  6
CONTINUOUS
100
AcDbLine
 10
3.0969062204724409
 20
-3.9440849606299211
 30
0
 11
3.0977044881889761
 21
-3.9446183464566928
 31
0
  0
LINE
  5
2A5
330
1A
100
AcDbEntity
  8
F.Paste
  6
CONTINUOUS
100
AcDbLine
 10
3.0977044881889761
 20
-3.9446183464566928
 30
0
 11
3.0982378740157479
 21
-3.9454166141732281
 31
0
  0
LINE
  5
2A6
330
1A
100
AcDbEntity
  8
F.Paste
  6
CONTINUOUS
100
AcDbLine
 10
3.0982378740157479
 20
-3.9454166141732281
 30
0
 11
3.0984251968503935
 21
-3.9463582677165352
 31
0
  0
LINE
  5
2A7
330
1A
100
AcDbEntity
  8
F.Paste
  6
CONTINUOUS
100
AcDbLine
 10
3.0984251968503935
 20
-3.9463582677165352
 30
0
 11
3.0984251968503935
 21
-3.9680118110236218
 31
0
  0
LINE
  5
2A8
330
1A
100
AcDbEntity
  8
F.Paste
  6
CONTINUOUS
100
AcDbLine
 10
3.0984251968503935
 20
-3.9680118110236218
 30
0
 11
3.0982378740157479
 21
-3.9689534645669289
 31
0
  0
LINE
  5
2A9
330
1A
100
AcDbEntity
  8
F.Paste
  6
CONTINUOUS
100
AcDbLine
 10
3.0982378740157479
 20
-3.9689534645669289
 30
0
 11
3.0977044881889761
 21
-3.9697517322834646
 31
0
  0
LINE
  5
2AA
330
1A
100
AcDbEntity
  8
F.Paste
  6
CONTINUOUS
100
AcDbLine
 10
3.0977044881889761
 20
-3.9697517322834646
 30
0
 11
3.0969062204724409
 21
-3.9702851181102363
 31
0
  0
LINE
  5
2AB
330
1A
100
AcDbEntity
  8
F.Paste
  6
CONTINUOUS
100
AcDbLine
 10
3.0969062204724409
 20
-3.9702851181102363
 30
0
 11
3.0959645669291338
 21
-3.9704724409448819
 31
0
  0
LINE
  5
2AC
330
1A
100
AcDbEntity
  8
F.Paste
  6
CONTINUOUS
100
AcDbLine
 10
3.0959645669291338
 20
-3.9704724409448819
 30
0
 11
3.0910433070866139
 21
-3.9704724409448819
 31
0
  0
LINE
  5
2AD
330
1A
100
AcDbEntity
  8
F.Paste
  6
CONTINUOUS
100
AcDbLine
 10
3.0910433070866139
 20
-3.9704724409448819
 30
0
 11
3.0901016535433072
 21
-3.9702851181102363
 31
0
  0
LINE
  5
2AE
330
1A
100
AcDbEntity
  8
F.Paste
  6
CONTINUOUS
100
AcDbLine
 10
3.0901016535433072
 20
-3.9702851181102363
 30
0
 11
3.0893033858267716
 21
-3.9697517322834646
 31
0
  0
LINE
  5
2AF
330
1A
100
AcDbEntity
  8
F.Paste
  6
CONTINUOUS
100
AcDbLine
 10
3.0893033858267716
 20
-3.9697517322834646
 30
0
 11
3.0887699999999998
 21
-3.9689534645669289
 31
0
  0
LINE
  5
2B0
330
1A
100
AcDbEntity
  8
F.Paste
  6
CONTINUOUS
100
AcDbLine
 10
3.0887699999999998
 20
-3.9689534645669289
 30
0
 11
3.0885826771653542
 21
-3.9680118110236218
 31
0
  0
LINE
  5
2B1
330
1A
100
AcDbEntity
  8
F.Paste
  6
CONTINUOUS
100
AcDbLine
 10
3.0885826771653542
 20
-3.9680118110236218
 30
0
 11
3.0885826771653542
 21
-3.9463582677165352
 31
0
  0
LINE
  5
2B2
330
1A
100
AcDbEntity
  8
F.Paste
  6
CONTINUOUS
100
AcDbLine
 10
3.0885826771653542
 20
-3.9463582677165352
 30
0
 11
3.0887699999999998
 21
-3.9454166141732281
 31
0
  0
LINE
  5
2B3
330
1A
100
AcDbEntity
  8
F.Paste
  6
CONTINUOUS
100
AcDbLine
 10
3.0887699999999998
 20
-3.9454166141732281
 30
0
 11
3.0893033858267716
 21
-3.9446183464566928
 31
0
  0
LINE
  5
2B4
330
1A
100
AcDbEntity
  8
F.Paste
  6
CONTINUOUS
100
AcDbLine
 10
3.0893033858267716
 20
-3.9446183464566928
 30
0
 11
3.0901016535433072
 21
-3.9440849606299211
 31
0
  0
LINE
  5
2B5
330
1A
100
AcDbEntity
  8
F.Paste
  6
CONTINUOUS
100
AcDbLine
 10
3.0901016535433072
 20
-3.9440849606299211
 30
0
 11
3.0910433070866139
 21
-3.9438976377952755
 31
0
  0
LINE
  5
2B6
330
1A
100
AcDbEntity
  8
F.Paste
  6
CONTINUOUS
100
AcDbLine
 10
3.0910433070866139
 20
-3.9438976377952755
 30
0
 11
3.0959645669291338
 21
-3.9438976377952755
 31
0
  0
LINE
  5
2B7
330
1A
100
AcDbEntity
  8
F.Paste
  6
CONTINUOUS
100
AcDbLine
 10
3.0959645669291338
 20
-3.9438976377952755
 30
0
 11
3.0969062204724409
 21
-3.9440849606299211
 31
0
  0
LINE
  5
2B8
330
1A
100
AcDbEntity
  8
F.Paste
  6
CONTINUOUS
100
AcDbLine
 10
2.7714831102362205
 20
-3.9092137795275588
 30
0
 11
2.7746762598425194
 21
-3.9113473622047241
 31
0
  0
LINE
  5
2B9
330
1A
100
AcDbEntity
  8
F.Paste
  6
CONTINUOUS
100
AcDbLine
 10
2.7746762598425194
 20
-3.9113473622047241
 30
0
 11
2.7768098425196848
 21
-3.9145405118110235
 31
0
  0
LINE
  5
2BA
330
1A
100
AcDbEntity
  8
F.Paste
  6
CONTINUOUS
100
AcDbLine
 10
2.7768098425196848
 20
-3.9145405118110235
 30
0
 11
2.7775590551181102
 21
-3.9183070866141732
 31
0
  0
LINE
  5
2BB
330
1A
100
AcDbEntity
  8
F.Paste
  6
CONTINUOUS
100
AcDbLine
 10
2.7775590551181102
 20
-3.9183070866141732
 30
0
 11
2.7775590551181102
 21
-3.9557086614173227
 31
0
  0
LINE
  5
2BC
330
1A
100
AcDbEntity
  8
F.Paste
  6
CONTINUOUS
100
AcDbLine
 10
2.7775590551181102
 20
-3.9557086614173227
 30
0
 11
2.7768098425196848
 21
-3.9594752362204724
 31
0
  0
LINE
  5
2BD
330
1A
100
AcDbEntity
  8
F.Paste
  6
CONTINUOUS
100
AcDbLine
 10
2.7768098425196848
 20
-3.9594752362204724
 30
0
 11
2.7746762598425194
 21
-3.9626683858267717
 31
0
  0
LINE
  5
2BE
330
1A
100
AcDbEntity
  8
F.Paste
  6
CONTINUOUS
100
AcDbLine
 10
2.7746762598425194
 20
-3.9626683858267717
 30
0
 11
2.7714831102362205
 21
-3.9648019685039371
 31
0
  0
LINE
  5
2BF
330
1A
100
AcDbEntity
  8
F.Paste
  6
CONTINUOUS
100
AcDbLine
 10
2.7714831102362205
 20
-3.9648019685039371
 30
0
 11
2.7677165354330708
 21
-3.965551181102362
 31
0
  0
LINE
  5
2C0
330
1A
100
AcDbEntity
  8
F.Paste
  6
CONTINUOUS
100
AcDbLine
 10
2.7677165354330708
 20
-3.965551181102362
 30
0
 11
2.7480314960629921
 21
-3.965551181102362
 31
0
  0
LINE
  5
2C1
330
1A
100
AcDbEntity
  8
F.Paste
  6
CONTINUOUS
100
AcDbLine
 10
2.7480314960629921
 20
-3.965551181102362
 30
0
 11
2.7442649212598424
 21
-3.9648019685039371
 31
0
  0
LINE
  5
2C2
330
1A
100
AcDbEntity
  8
F.Paste
  6
CONTINUOUS
100
AcDbLine
 10
2.7442649212598424
 20
-3.9648019685039371
 30
0
 11
2.7410717716535431
 21
-3.9626683858267717
 31
0
  0
LINE
  5
2C3
330
1A
100
AcDbEntity
  8
F.Paste
  6
CONTINUOUS
100
AcDbLine
 10
2.7410717716535431
 20
-3.9626683858267717
 30
0
 11
2.7389381889763778
 21
-3.9594752362204724
 31
0
  0
LINE
  5
2C4
330
1A
100
AcDbEntity
  8
F.Paste
  6
CONTINUOUS
100
AcDbLine
 10
2.7389381889763778
 20
-3.9594752362204724
 30
0
 11
2.7381889763779528
 21
-3.9557086614173227
 31
0
  0
LINE
  5
2C5
330
1A
100
AcDbEntity
  8
F.Paste
  6
CONTINUOUS
100
AcDbLine
 10
2.7381889763779528
 20
-3.9557086614173227
 30
0
 11
2.7381889763779528
 21
-3.9183070866141732
 31
0
  0
LINE
  5
2C6
330
1A
100
AcDbEntity
  8
F.Paste
  6
CONTINUOUS
100
AcDbLine
 10
2.7381889763779528
 20
-3.9183070866141732
 30
0
 11
2.7389381889763778
 21
-3.9145405118110235
 31
0
  0
LINE
  5
2C7
330
1A
100
AcDbEntity
  8
F.Paste
  6
CONTINUOUS
100
AcDbLine
 10
2.7389381889763778
 20
-3.9145405118110235
 30
0
 11
2.7410717716535431
 21
-3.9113473622047241
 31
0
  0
LINE
  5
2C8
330
1A
100
AcDbEntity
  8
F.Paste
  6
CONTINUOUS
100
AcDbLine
 10
2.7410717716535431
 20
-3.9113473622047241
 30
0
 11
2.7442649212598424
 21
-3.9092137795275588
 31
0
  0
LINE
  5
2C9
330
1A
100
AcDbEntity
  8
F.Paste
  6
CONTINUOUS
100
AcDbLine
 10
2.7442649212598424
 20
-3.9092137795275588
 30
0
 11
2.7480314960629921
 21
-3.9084645669291338
 31
0
  0
LINE
  5
2CA
330
1A
100
AcDbEntity
  8
F.Paste
  6
CONTINUOUS
100
AcDbLine
 10
2.7480314960629921
 20
-3.9084645669291338
 30
0
 11
2.7677165354330708
 21
-3.9084645669291338
 31
0
  0
LINE
  5
2CB
330
1A
100
AcDbEntity
  8
F.Paste
  6
CONTINUOUS
100
AcDbLine
 10
2.7677165354330708
 20
-3.9084645669291338
 30
0
 11
2.7714831102362205
 21
-3.9092137795275588
 31
0
  0
LINE
  5
2CC
330
1A
100
AcDbEntity
  8
F.Paste
  6
CONTINUOUS
100
AcDbLine
 10
2.8462862598425196
 20
-3.9092137795275588
 30
0
 11
2.8494794094488189
 21
-3.9113473622047241
 31
0
  0
LINE
  5
2CD
330
1A
100
AcDbEntity
  8
F.Paste
  6
CONTINUOUS
100
AcDbLine
 10
2.8494794094488189
 20
-3.9113473622047241
 30
0
 11
2.8516129921259843
 21
-3.9145405118110235
 31
0
  0
LINE
  5
2CE
330
1A
100
AcDbEntity
  8
F.Paste
  6
CONTINUOUS
100
AcDbLine
 10
2.8516129921259843
 20
-3.9145405118110235
 30
0
 11
2.8523622047244093
 21
-3.9183070866141732
 31
0
  0
LINE
  5
2CF
330
1A
100
AcDbEntity
  8
F.Paste
  6
CONTINUOUS
100
AcDbLine
 10
2.8523622047244093
 20
-3.9183070866141732
 30
0
 11
2.8523622047244093
 21
-3.9557086614173227
 31
0
  0
LINE
  5
2D0
330
1A
100
AcDbEntity
  8
F.Paste
  6
CONTINUOUS
100
AcDbLine
 10
2.8523622047244093
 20
-3.9557086614173227
 30
0
 11
2.8516129921259843
 21
-3.9594752362204724
 31
0
  0
LINE
  5
2D1
330
1A
100
AcDbEntity
  8
F.Paste
  6
CONTINUOUS
100
AcDbLine
 10
2.8516129921259843
 20
-3.9594752362204724
 30
0
 11
2.8494794094488189
 21
-3.9626683858267717
 31
0
  0
LINE
  5
2D2
330
1A
100
AcDbEntity
  8
F.Paste
  6
CONTINUOUS
100
AcDbLine
 10
2.8494794094488189
 20
-3.9626683858267717
 30
0
 11
2.8462862598425196
 21
-3.9648019685039371
 31
0
  0
LINE
  5
2D3
330
1A
100
AcDbEntity
  8
F.Paste
  6
CONTINUOUS
100
AcDbLine
 10
2.8462862598425196
 20
-3.9648019685039371
 30
0
 11
2.8425196850393699
 21
-3.965551181102362
 31
0
  0
LINE
  5
2D4
330
1A
100
AcDbEntity
  8
F.Paste
  6
CONTINUOUS
100
AcDbLine
 10
2.8425196850393699
 20
-3.965551181102362
 30
0
 11
2.8228346456692912
 21
-3.965551181102362
 31
0
  0
LINE
  5
2D5
330
1A
100
AcDbEntity
  8
F.Paste
  6
CONTINUOUS
100
AcDbLine
 10
2.8228346456692912
 20
-3.965551181102362
 30
0
 11
2.8190680708661415
 21
-3.9648019685039371
 31
0
  0
LINE
  5
2D6
330
1A
100
AcDbEntity
  8
F.Paste
  6
CONTINUOUS
100
AcDbLine
 10
2.8190680708661415
 20
-3.9648019685039371
 30
0
 11
2.8158749212598426
 21
-3.9626683858267717
 31
0
  0
LINE
  5
2D7
330
1A
100
AcDbEntity
  8
F.Paste
  6
CONTINUOUS
100
AcDbLine
 10
2.8158749212598426
 20
-3.9626683858267717
 30
0
 11
2.8137413385826773
 21
-3.9594752362204724
 31
0
  0
LINE
  5
2D8
330
1A
100
AcDbEntity
  8
F.Paste
  6
CONTINUOUS
100
AcDbLine
 10
2.8137413385826773
 20
-3.9594752362204724
 30
0
 11
2.8129921259842519
 21
-3.9557086614173227
 31
0
  0
LINE
  5
2D9
330
1A
100
AcDbEntity
  8
F.Paste
  6
CONTINUOUS
100
AcDbLine
 10
2.8129921259842519
 20
-3.9557086614173227
 30
0
 11
2.8129921259842519
 21
-3.9183070866141732
 31
0
  0
LINE
  5
2DA
330
1A
100
AcDbEntity
  8
F.Paste
  6
CONTINUOUS
100
AcDbLine
 10
2.8129921259842519
 20
-3.9183070866141732
 30
0
 11
2.8137413385826773
 21
-3.9145405118110235
 31
0
  0
LINE
  5
2DB
330
1A
100
AcDbEntity
  8
F.Paste
  6
CONTINUOUS
100
AcDbLine
 10
2.8137413385826773
 20
-3.9145405118110235
 30
0
 11
2.8158749212598426
 21
-3.9113473622047241
 31
0
  0
LINE
  5
2DC
330
1A
100
AcDbEntity
  8
F.Paste
  6
CONTINUOUS
100
AcDbLine
 10
2.8158749212598426
 20
-3.9113473622047241
 30
0
 11
2.8190680708661415
 21
-3.9092137795275588
 31
0
  0
LINE
  5
2DD
330
1A
100
AcDbEntity
  8
F.Paste
  6
CONTINUOUS
100
AcDbLine
 10
2.8190680708661415
 20
-3.9092137795275588
 30
0
 11
2.8228346456692912
 21
-3.9084645669291338
 31
0
  0
LINE
  5
2DE
330
1A
100
AcDbEntity
  8
F.Paste
  6
CONTINUOUS
100
AcDbLine
 10
2.8228346456692912
 20
-3.9084645669291338
 30
0
 11
2.8425196850393699
 21
-3.9084645669291338
 31
0
  0
LINE
  5
2DF
330
1A
100
AcDbEntity
  8
F.Paste
  6
CONTINUOUS
100
AcDbLine
 10
2.8425196850393699
 20
-3.9084645669291338
 30
0
 11
2.8462862598425196
 21
-3.9092137795275588
 31
0
  0
LINE
  5
2E0
330
1A
100
AcDbEntity
  8
F.Paste
  6
CONTINUOUS
100
AcDbLine
 10
3.2563206692913385
 20
-3.8772235433070867
 30
0
 11
3.2591244094488188
 21
-3.8788422834645671
 31
0
  0
LINE
  5
2E1
330
1A
100
AcDbEntity
  8
F.Paste
  6
CONTINUOUS
100
AcDbLine
 10
3.2591244094488188
 20
-3.8788422834645671
 30
0
 11
3.2614136220472441
 21
-3.8811314960629919
 31
0
  0
LINE
  5
2E2
330
1A
100
AcDbEntity
  8
F.Paste
  6
CONTINUOUS
100
AcDbLine
 10
3.2614136220472441
 20
-3.8811314960629919
 30
0
 11
3.2630323622047244
 21
-3.8839352362204722
 31
0
  0
LINE
  5
2E3
330
1A
100
AcDbEntity
  8
F.Paste
  6
CONTINUOUS
100
AcDbLine
 10
3.2630323622047244
 20
-3.8839352362204722
 30
0
 11
3.2638702755905511
 21
-3.8870623622047242
 31
0
  0
LINE
  5
2E4
330
1A
100
AcDbEntity
  8
F.Paste
  6
CONTINUOUS
100
AcDbLine
 10
3.2638702755905511
 20
-3.8870623622047242
 30
0
 11
3.2639763779527557
 21
-3.8886811023622045
 31
0
  0
LINE
  5
2E5
330
1A
100
AcDbEntity
  8
F.Paste
  6
CONTINUOUS
100
AcDbLine
 10
3.2639763779527557
 20
-3.8886811023622045
 30
0
 11
3.2639763779527557
 21
-3.9373031496062989
 31
0
  0
LINE
  5
2E6
330
1A
100
AcDbEntity
  8
F.Paste
  6
CONTINUOUS
100
AcDbLine
 10
3.2639763779527557
 20
-3.9373031496062989
 30
0
 11
3.2638702755905511
 21
-3.9389218897637792
 31
0
  0
LINE
  5
2E7
330
1A
100
AcDbEntity
  8
F.Paste
  6
CONTINUOUS
100
AcDbLine
 10
3.2638702755905511
 20
-3.9389218897637792
 30
0
 11
3.2630323622047244
 21
-3.9420490157480312
 31
0
  0
LINE
  5
2E8
330
1A
100
AcDbEntity
  8
F.Paste
  6
CONTINUOUS
100
AcDbLine
 10
3.2630323622047244
 20
-3.9420490157480312
 30
0
 11
3.2614136220472441
 21
-3.9448527559055115
 31
0
  0
LINE
  5
2E9
330
1A
100
AcDbEntity
  8
F.Paste
  6
CONTINUOUS
100
AcDbLine
 10
3.2614136220472441
 20
-3.9448527559055115
 30
0
 11
3.2591244094488188
 21
-3.9471419685039368
 31
0
  0
LINE
  5
2EA
330
1A
100
AcDbEntity
  8
F.Paste
  6
CONTINUOUS
100
AcDbLine
 10
3.2591244094488188
 20
-3.9471419685039368
 30
0
 11
3.2563206692913385
 21
-3.9487607086614172
 31
0
  0
LINE
  5
2EB
330
1A
100
AcDbEntity
  8
F.Paste
  6
CONTINUOUS
100
AcDbLine
 10
3.2563206692913385
 20
-3.9487607086614172
 30
0
 11
3.2531935433070864
 21
-3.9495986220472439
 31
0
  0
LINE
  5
2EC
330
1A
100
AcDbEntity
  8
F.Paste
  6
CONTINUOUS
100
AcDbLine
 10
3.2531935433070864
 20
-3.9495986220472439
 30
0
 11
3.2499560629921258
 21
-3.9495986220472439
 31
0
  0
LINE
  5
2ED
330
1A
100
AcDbEntity
  8
F.Paste
  6
CONTINUOUS
100
AcDbLine
 10
3.2499560629921258
 20
-3.9495986220472439
 30
0
 11
3.2468289370078738
 21
-3.9487607086614172
 31
0
  0
LINE
  5
2EE
330
1A
100
AcDbEntity
  8
F.Paste
  6
CONTINUOUS
100
AcDbLine
 10
3.2468289370078738
 20
-3.9487607086614172
 30
0
 11
3.2440251968503935
 21
-3.9471419685039368
 31
0
  0
LINE
  5
2EF
330
1A
100
AcDbEntity
  8
F.Paste
  6
CONTINUOUS
100
AcDbLine
 10
3.2440251968503935
 20
-3.9471419685039368
 30
0
 11
3.2417359842519686
 21
-3.9448527559055115
 31
0
  0
LINE
  5
2F0
330
1A
100
AcDbEntity
  8
F.Paste
  6
CONTINUOUS
100
AcDbLine
 10
3.2417359842519686
 20
-3.9448527559055115
 30
0
 11
3.2401172440944883
 21
-3.9420490157480312
 31
0
  0
LINE
  5
2F1
330
1A
100
AcDbEntity
  8
F.Paste
  6
CONTINUOUS
100
AcDbLine
 10
3.2401172440944883
 20
-3.9420490157480312
 30
0
 11
3.2392793307086611
 21
-3.9389218897637792
 31
0
  0
LINE
  5
2F2
330
1A
100
AcDbEntity
  8
F.Paste
  6
CONTINUOUS
100
AcDbLine
 10
3.2392793307086611
 20
-3.9389218897637792
 30
0
 11
3.2391732283464565
 21
-3.9373031496062989
 31
0
  0
LINE
  5
2F3
330
1A
100
AcDbEntity
  8
F.Paste
  6
CONTINUOUS
100
AcDbLine
 10
3.2391732283464565
 20
-3.9373031496062989
 30
0
 11
3.2391732283464565
 21
-3.8886811023622045
 31
0
  0
LINE
  5
2F4
330
1A
100
AcDbEntity
  8
F.Paste
  6
CONTINUOUS
100
AcDbLine
 10
3.2391732283464565
 20
-3.8886811023622045
 30
0
 11
3.2392793307086611
 21
-3.8870623622047242
 31
0
  0
LINE
  5
2F5
330
1A
100
AcDbEntity
  8
F.Paste
  6
CONTINUOUS
100
AcDbLine
 10
3.2392793307086611
 20
-3.8870623622047242
 30
0
 11
3.2401172440944883
 21
-3.8839352362204722
 31
0
  0
LINE
  5
2F6
330
1A
100
AcDbEntity
  8
F.Paste
  6
CONTINUOUS
100
AcDbLine
 10
3.2401172440944883
 20
-3.8839352362204722
 30
0
 11
3.2417359842519686
 21
-3.8811314960629919
 31
0
  0
LINE
  5
2F7
330
1A
100
AcDbEntity
  8
F.Paste
  6
CONTINUOUS
100
AcDbLine
 10
3.2417359842519686
 20
-3.8811314960629919
 30
0
 11
3.2440251968503935
 21
-3.8788422834645671
 31
0
  0
LINE
  5
2F8
330
1A
100
AcDbEntity
  8
F.Paste
  6
CONTINUOUS
100
AcDbLine
 10
3.2440251968503935
 20
-3.8788422834645671
 30
0
 11
3.2468289370078738
 21
-3.8772235433070867
 31
0
  0
LINE
  5
2F9
330
1A
100
AcDbEntity
  8
F.Paste
  6
CONTINUOUS
100
AcDbLine
 10
3.2468289370078738
 20
-3.8772235433070867
 30
0
 11
3.2499560629921258
 21
-3.8763856299212596
 31
0
  0
LINE
  5
2FA
330
1A
100
AcDbEntity
  8
F.Paste
  6
CONTINUOUS
100
AcDbLine
 10
3.2499560629921258
 20
-3.8763856299212596
 30
0
 11
3.2531935433070864
 21
-3.8763856299212596
 31
0
  0
LINE
  5
2FB
330
1A
100
AcDbEntity
  8
F.Paste
  6
CONTINUOUS
100
AcDbLine
 10
3.2531935433070864
 20
-3.8763856299212596
 30
0
 11
3.2563206692913385
 21
-3.8772235433070867
 31
0
  0
LINE
  5
2FC
330
1A
100
AcDbEntity
  8
F.Paste
  6
CONTINUOUS
100
AcDbLine
 10
3.30671437007874
 20
-3.8772235433070867
 30
0
 11
3.3095181102362203
 21
-3.8788422834645671
 31
0
  0
LINE
  5
2FD
330
1A
100
AcDbEntity
  8
F.Paste
  6
CONTINUOUS
100
AcDbLine
 10
3.3095181102362203
 20
-3.8788422834645671
 30
0
 11
3.3118073228346456
 21
-3.8811314960629919
 31
0
  0
LINE
  5
2FE
330
1A
100
AcDbEntity
  8
F.Paste
  6
CONTINUOUS
100
AcDbLine
 10
3.3118073228346456
 20
-3.8811314960629919
 30
0
 11
3.3134260629921259
 21
-3.8839352362204722
 31
0
  0
LINE
  5
2FF
330
1A
100
AcDbEntity
  8
F.Paste
  6
CONTINUOUS
100
AcDbLine
 10
3.3134260629921259
 20
-3.8839352362204722
 30
0
 11
3.3142639763779527
 21
-3.8870623622047242
 31
0
  0
LINE
  5
300
330
1A
100
AcDbEntity
  8
F.Paste
  6
CONTINUOUS
100
AcDbLine
 10
3.3142639763779527
 20
-3.8870623622047242
 30
0
 11
3.3143700787401573
 21
-3.8886811023622045
 31
0
  0
LINE
  5
301
330
1A
100
AcDbEntity
  8
F.Paste
  6
CONTINUOUS
100
AcDbLine
 10
3.3143700787401573
 20
-3.8886811023622045
 30
0
 11
3.3143700787401573
 21
-3.9373031496062989
 31
0
  0
LINE
  5
302
330
1A
100
AcDbEntity
  8
F.Paste
  6
CONTINUOUS
100
AcDbLine
 10
3.3143700787401573
 20
-3.9373031496062989
 30
0
 11
3.3142639763779527
 21
-3.9389218897637792
 31
0
  0
LINE
  5
303
330
1A
100
AcDbEntity
  8
F.Paste
  6
CONTINUOUS
100
AcDbLine
 10
3.3142639763779527
 20
-3.9389218897637792
 30
0
 11
3.3134260629921259
 21
-3.9420490157480312
 31
0
  0
LINE
  5
304
330
1A
100
AcDbEntity
  8
F.Paste
  6
CONTINUOUS
100
AcDbLine
 10
3.3134260629921259
 20
-3.9420490157480312
 30
0
 11
3.3118073228346456
 21
-3.9448527559055115
 31
0
  0
LINE
  5
305
330
1A
100
AcDbEntity
  8
F.Paste
  6
CONTINUOUS
100
AcDbLine
 10
3.3118073228346456
 20
-3.9448527559055115
 30
0
 11
3.3095181102362203
 21
-3.9471419685039368
 31
0
  0
LINE
  5
306
330
1A
100
AcDbEntity
  8
F.Paste
  6
CONTINUOUS
100
AcDbLine
 10
3.3095181102362203
 20
-3.9471419685039368
 30
0
 11
3.30671437007874
 21
-3.9487607086614172
 31
0
  0
LINE
  5
307
330
1A
100
AcDbEntity
  8
F.Paste
  6
CONTINUOUS
100
AcDbLine
 10
3.30671437007874
 20
-3.9487607086614172
 30
0
 11
3.303587244094488
 21
-3.9495986220472439
 31
0
  0
LINE
  5
308
330
1A
100
AcDbEntity
  8
F.Paste
  6
CONTINUOUS
100
AcDbLine
 10
3.303587244094488
 20
-3.9495986220472439
 30
0
 11
3.3003497637795274
 21
-3.9495986220472439
 31
0
  0
LINE
  5
309
330
1A
100
AcDbEntity
  8
F.Paste
  6
CONTINUOUS
100
AcDbLine
 10
3.3003497637795274
 20
-3.9495986220472439
 30
0
 11
3.2972226377952754
 21
-3.9487607086614172
 31
0
  0
LINE
  5
30A
330
1A
100
AcDbEntity
  8
F.Paste
  6
CONTINUOUS
100
AcDbLine
 10
3.2972226377952754
 20
-3.9487607086614172
 30
0
 11
3.2944188976377951
 21
-3.9471419685039368
 31
0
  0
LINE
  5
30B
330
1A
100
AcDbEntity
  8
F.Paste
  6
CONTINUOUS
100
AcDbLine
 10
3.2944188976377951
 20
-3.9471419685039368
 30
0
 11
3.2921296850393702
 21
-3.9448527559055115
 31
0
  0
LINE
  5
30C
330
1A
100
AcDbEntity
  8
F.Paste
  6
CONTINUOUS
100
AcDbLine
 10
3.2921296850393702
 20
-3.9448527559055115
 30
0
 11
3.2905109448818899
 21
-3.9420490157480312
 31
0
  0
LINE
  5
30D
330
1A
100
AcDbEntity
  8
F.Paste
  6
CONTINUOUS
100
AcDbLine
 10
3.2905109448818899
 20
-3.9420490157480312
 30
0
 11
3.2896730314960627
 21
-3.9389218897637792
 31
0
  0
LINE
  5
30E
330
1A
100
AcDbEntity
  8
F.Paste
  6
CONTINUOUS
100
AcDbLine
 10
3.2896730314960627
 20
-3.9389218897637792
 30
0
 11
3.2895669291338581
 21
-3.9373031496062989
 31
0
  0
LINE
  5
30F
330
1A
100
AcDbEntity
  8
F.Paste
  6
CONTINUOUS
100
AcDbLine
 10
3.2895669291338581
 20
-3.9373031496062989
 30
0
 11
3.2895669291338581
 21
-3.8886811023622045
 31
0
  0
LINE
  5
310
330
1A
100
AcDbEntity
  8
F.Paste
  6
CONTINUOUS
100
AcDbLine
 10
3.2895669291338581
 20
-3.8886811023622045
 30
0
 11
3.2896730314960627
 21
-3.8870623622047242
 31
0
  0
LINE
  5
311
330
1A
100
AcDbEntity
  8
F.Paste
  6
CONTINUOUS
100
AcDbLine
 10
3.2896730314960627
 20
-3.8870623622047242
 30
0
 11
3.2905109448818899
 21
-3.8839352362204722
 31
0
  0
LINE
  5
312
330
1A
100
AcDbEntity
  8
F.Paste
  6
CONTINUOUS
100
AcDbLine
 10
3.2905109448818899
 20
-3.8839352362204722
 30
0
 11
3.2921296850393702
 21
-3.8811314960629919
 31
0
  0
LINE
  5
313
330
1A
100
AcDbEntity
  8
F.Paste
  6
CONTINUOUS
100
AcDbLine
 10
3.2921296850393702
 20
-3.8811314960629919
 30
0
 11
3.2944188976377951
 21
-3.8788422834645671
 31
0
  0
LINE
  5
314
330
1A
100
AcDbEntity
  8
F.Paste
  6
CONTINUOUS
100
AcDbLine
 10
3.2944188976377951
 20
-3.8788422834645671
 30
0
 11
3.2972226377952754
 21
-3.8772235433070867
 31
0
  0
LINE
  5
315
330
1A
100
AcDbEntity
  8
F.Paste
  6
CONTINUOUS
100
AcDbLine
 10
3.2972226377952754
 20
-3.8772235433070867
 30
0
 11
3.3003497637795274
 21
-3.8763856299212596
 31
0
  0
LINE
  5
316
330
1A
100
AcDbEntity
  8
F.Paste
  6
CONTINUOUS
100
AcDbLine
 10
3.3003497637795274
 20
-3.8763856299212596
 30
0
 11
3.303587244094488
 21
-3.8763856299212596
 31
0
  0
LINE
  5
317
330
1A
100
AcDbEntity
  8
F.Paste
  6
CONTINUOUS
100
AcDbLine
 10
3.303587244094488
 20
-3.8763856299212596
 30
0
 11
3.30671437007874
 21
-3.8772235433070867
 31
0
  0
LINE
  5
318
330
1A
100
AcDbEntity
  8
F.Paste
  6
CONTINUOUS
100
AcDbLine
 10
3.3563206692913385
 20
-3.8772235433070867
 30
0
 11
3.3591244094488188
 21
-3.8788422834645671
 31
0
  0
LINE
  5
319
330
1A
100
AcDbEntity
  8
F.Paste
  6
CONTINUOUS
100
AcDbLine
 10
3.3591244094488188
 20
-3.8788422834645671
 30
0
 11
3.3614136220472441
 21
-3.8811314960629919
 31
0
  0
LINE
  5
31A
330
1A
100
AcDbEntity
  8
F.Paste
  6
CONTINUOUS
100
AcDbLine
 10
3.3614136220472441
 20
-3.8811314960629919
 30
0
 11
3.3630323622047245
 21
-3.8839352362204722
 31
0
  0
LINE
  5
31B
330
1A
100
AcDbEntity
  8
F.Paste
  6
CONTINUOUS
100
AcDbLine
 10
3.3630323622047245
 20
-3.8839352362204722
 30
0
 11
3.3638702755905512
 21
-3.8870623622047242
 31
0
  0
LINE
  5
31C
330
1A
100
AcDbEntity
  8
F.Paste
  6
CONTINUOUS
100
AcDbLine
 10
3.3638702755905512
 20
-3.8870623622047242
 30
0
 11
3.3639763779527558
 21
-3.8886811023622045
 31
0
  0
LINE
  5
31D
330
1A
100
AcDbEntity
  8
F.Paste
  6
CONTINUOUS
100
AcDbLine
 10
3.3639763779527558
 20
-3.8886811023622045
 30
0
 11
3.3639763779527558
 21
-3.9373031496062989
 31
0
  0
LINE
  5
31E
330
1A
100
AcDbEntity
  8
F.Paste
  6
CONTINUOUS
100
AcDbLine
 10
3.3639763779527558
 20
-3.9373031496062989
 30
0
 11
3.3638702755905512
 21
-3.9389218897637792
 31
0
  0
LINE
  5
31F
330
1A
100
AcDbEntity
  8
F.Paste
  6
CONTINUOUS
100
AcDbLine
 10
3.3638702755905512
 20
-3.9389218897637792
 30
0
 11
3.3630323622047245
 21
-3.9420490157480312
 31
0
  0
LINE
  5
320
330
1A
100
AcDbEntity
  8
F.Paste
  6
CONTINUOUS
100
AcDbLine
 10
3.3630323622047245
 20
-3.9420490157480312
 30
0
 11
3.3614136220472441
 21
-3.9448527559055115
 31
0
  0
LINE
  5
321
330
1A
100
AcDbEntity
  8
F.Paste
  6
CONTINUOUS
100
AcDbLine
 10
3.3614136220472441
 20
-3.9448527559055115
 30
0
 11
3.3591244094488188
 21
-3.9471419685039368
 31
0
  0
LINE
  5
322
330
1A
100
AcDbEntity
  8
F.Paste
  6
CONTINUOUS
100
AcDbLine
 10
3.3591244094488188
 20
-3.9471419685039368
 30
0
 11
3.3563206692913385
 21
-3.9487607086614172
 31
0
  0
LINE
  5
323
330
1A
100
AcDbEntity
  8
F.Paste
  6
CONTINUOUS
100
AcDbLine
 10
3.3563206692913385
 20
-3.9487607086614172
 30
0
 11
3.3531935433070865
 21
-3.9495986220472439
 31
0
  0
LINE
  5
324
330
1A
100
AcDbEntity
  8
F.Paste
  6
CONTINUOUS
100
AcDbLine
 10
3.3531935433070865
 20
-3.9495986220472439
 30
0
 11
3.3499560629921259
 21
-3.9495986220472439
 31
0
  0
LINE
  5
325
330
1A
100
AcDbEntity
  8
F.Paste
  6
CONTINUOUS
100
AcDbLine
 10
3.3499560629921259
 20
-3.9495986220472439
 30
0
 11
3.3468289370078739
 21
-3.9487607086614172
 31
0
  0
LINE
  5
326
330
1A
100
AcDbEntity
  8
F.Paste
  6
CONTINUOUS
100
AcDbLine
 10
3.3468289370078739
 20
-3.9487607086614172
 30
0
 11
3.3440251968503936
 21
-3.9471419685039368
 31
0
  0
LINE
  5
327
330
1A
100
AcDbEntity
  8
F.Paste
  6
CONTINUOUS
100
AcDbLine
 10
3.3440251968503936
 20
-3.9471419685039368
 30
0
 11
3.3417359842519683
 21
-3.9448527559055115
 31
0
  0
LINE
  5
328
330
1A
100
AcDbEntity
  8
F.Paste
  6
CONTINUOUS
100
AcDbLine
 10
3.3417359842519683
 20
-3.9448527559055115
 30
0
 11
3.340117244094488
 21
-3.9420490157480312
 31
0
  0
LINE
  5
329
330
1A
100
AcDbEntity
  8
F.Paste
  6
CONTINUOUS
100
AcDbLine
 10
3.340117244094488
 20
-3.9420490157480312
 30
0
 11
3.3392793307086612
 21
-3.9389218897637792
 31
0
  0
LINE
  5
32A
330
1A
100
AcDbEntity
  8
F.Paste
  6
CONTINUOUS
100
AcDbLine
 10
3.3392793307086612
 20
-3.9389218897637792
 30
0
 11
3.3391732283464566
 21
-3.9373031496062989
 31
0
  0
LINE
  5
32B
330
1A
100
AcDbEntity
  8
F.Paste
  6
CONTINUOUS
100
AcDbLine
 10
3.3391732283464566
 20
-3.9373031496062989
 30
0
 11
3.3391732283464566
 21
-3.8886811023622045
 31
0
  0
LINE
  5
32C
330
1A
100
AcDbEntity
  8
F.Paste
  6
CONTINUOUS
100
AcDbLine
 10
3.3391732283464566
 20
-3.8886811023622045
 30
0
 11
3.3392793307086612
 21
-3.8870623622047242
 31
0
  0
LINE
  5
32D
330
1A
100
AcDbEntity
  8
F.Paste
  6
CONTINUOUS
100
AcDbLine
 10
3.3392793307086612
 20
-3.8870623622047242
 30
0
 11
3.340117244094488
 21
-3.8839352362204722
 31
0
  0
LINE
  5
32E
330
1A
100
AcDbEntity
  8
F.Paste
  6
CONTINUOUS
100
AcDbLine
 10
3.340117244094488
 20
-3.8839352362204722
 30
0
 11
3.3417359842519683
 21
-3.8811314960629919
 31
0
  0
LINE
  5
32F
330
1A
100
AcDbEntity
  8
F.Paste
  6
CONTINUOUS
100
AcDbLine
 10
3.3417359842519683
 20
-3.8811314960629919
 30
0
 11
3.3440251968503936
 21
-3.8788422834645671
 31
0
  0
LINE
  5
330
330
1A
100
AcDbEntity
  8
F.Paste
  6
CONTINUOUS
100
AcDbLine
 10
3.3440251968503936
 20
-3.8788422834645671
 30
0
 11
3.3468289370078739
 21
-3.8772235433070867
 31
0
  0
LINE
  5
331
330
1A
100
AcDbEntity
  8
F.Paste
  6
CONTINUOUS
100
AcDbLine
 10
3.3468289370078739
 20
-3.8772235433070867
 30
0
 11
3.3499560629921259
 21
-3.8763856299212596
 31
0
  0
LINE
  5
332
330
1A
100
AcDbEntity
  8
F.Paste
  6
CONTINUOUS
100
AcDbLine
 10
3.3499560629921259
 20
-3.8763856299212596
 30
0
 11
3.3531935433070865
 21
-3.8763856299212596
 31
0
  0
LINE
  5
333
330
1A
100
AcDbEntity
  8
F.Paste
  6
CONTINUOUS
100
AcDbLine
 10
3.3531935433070865
 20
-3.8763856299212596
 30
0
 11
3.3563206692913385
 21
-3.8772235433070867
 31
0
  0
LINE
  5
334
330
1A
100
AcDbEntity
  8
F.Paste
  6
CONTINUOUS
100
AcDbLine
 10
3.4063206692913384
 20
-3.8772235433070867
 30
0
 11
3.4091244094488187
 21
-3.8788422834645671
 31
0
  0
LINE
  5
335
330
1A
100
AcDbEntity
  8
F.Paste
  6
CONTINUOUS
100
AcDbLine
 10
3.4091244094488187
 20
-3.8788422834645671
 30
0
 11
3.411413622047244
 21
-3.8811314960629919
 31
0
  0
LINE
  5
336
330
1A
100
AcDbEntity
  8
F.Paste
  6
CONTINUOUS
100
AcDbLine
 10
3.411413622047244
 20
-3.8811314960629919
 30
0
 11
3.4130323622047243
 21
-3.8839352362204722
 31
0
  0
LINE
  5
337
330
1A
100
AcDbEntity
  8
F.Paste
  6
CONTINUOUS
100
AcDbLine
 10
3.4130323622047243
 20
-3.8839352362204722
 30
0
 11
3.413870275590551
 21
-3.8870623622047242
 31
0
  0
LINE
  5
338
330
1A
100
AcDbEntity
  8
F.Paste
  6
CONTINUOUS
100
AcDbLine
 10
3.413870275590551
 20
-3.8870623622047242
 30
0
 11
3.4139763779527557
 21
-3.8886811023622045
 31
0
  0
LINE
  5
339
330
1A
100
AcDbEntity
  8
F.Paste
  6
CONTINUOUS
100
AcDbLine
 10
3.4139763779527557
 20
-3.8886811023622045
 30
0
 11
3.4139763779527557
 21
-3.9373031496062989
 31
0
  0
LINE
  5
33A
330
1A
100
AcDbEntity
  8
F.Paste
  6
CONTINUOUS
100
AcDbLine
 10
3.4139763779527557
 20
-3.9373031496062989
 30
0
 11
3.413870275590551
 21
-3.9389218897637792
 31
0
  0
LINE
  5
33B
330
1A
100
AcDbEntity
  8
F.Paste
  6
CONTINUOUS
100
AcDbLine
 10
3.413870275590551
 20
-3.9389218897637792
 30
0
 11
3.4130323622047243
 21
-3.9420490157480312
 31
0
  0
LINE
  5
33C
330
1A
100
AcDbEntity
  8
F.Paste
  6
CONTINUOUS
100
AcDbLine
 10
3.4130323622047243
 20
-3.9420490157480312
 30
0
 11
3.411413622047244
 21
-3.9448527559055115
 31
0
  0
LINE
  5
33D
330
1A
100
AcDbEntity
  8
F.Paste
  6
CONTINUOUS
100
AcDbLine
 10
3.411413622047244
 20
-3.9448527559055115
 30
0
 11
3.4091244094488187
 21
-3.9471419685039368
 31
0
  0
LINE
  5
33E
330
1A
100
AcDbEntity
  8
F.Paste
  6
CONTINUOUS
100
AcDbLine
 10
3.4091244094488187
 20
-3.9471419685039368
 30
0
 11
3.4063206692913384
 21
-3.9487607086614172
 31
0
  0
LINE
  5
33F
330
1A
100
AcDbEntity
  8
F.Paste
  6
CONTINUOUS
100
AcDbLine
 10
3.4063206692913384
 20
-3.9487607086614172
 30
0
 11
3.4031935433070863
 21
-3.9495986220472439
 31
0
  0
LINE
  5
340
330
1A
100
AcDbEntity
  8
F.Paste
  6
CONTINUOUS
100
AcDbLine
 10
3.4031935433070863
 20
-3.9495986220472439
 30
0
 11
3.3999560629921257
 21
-3.9495986220472439
 31
0
  0
LINE
  5
341
330
1A
100
AcDbEntity
  8
F.Paste
  6
CONTINUOUS
100
AcDbLine
 10
3.3999560629921257
 20
-3.9495986220472439
 30
0
 11
3.3968289370078741
 21
-3.9487607086614172
 31
0
  0
LINE
  5
342
330
1A
100
AcDbEntity
  8
F.Paste
  6
CONTINUOUS
100
AcDbLine
 10
3.3968289370078741
 20
-3.9487607086614172
 30
0
 11
3.3940251968503938
 21
-3.9471419685039368
 31
0
  0
LINE
  5
343
330
1A
100
AcDbEntity
  8
F.Paste
  6
CONTINUOUS
100
AcDbLine
 10
3.3940251968503938
 20
-3.9471419685039368
 30
0
 11
3.3917359842519685
 21
-3.9448527559055115
 31
0
  0
LINE
  5
344
330
1A
100
AcDbEntity
  8
F.Paste
  6
CONTINUOUS
100
AcDbLine
 10
3.3917359842519685
 20
-3.9448527559055115
 30
0
 11
3.3901172440944882
 21
-3.9420490157480312
 31
0
  0
LINE
  5
345
330
1A
100
AcDbEntity
  8
F.Paste
  6
CONTINUOUS
100
AcDbLine
 10
3.3901172440944882
 20
-3.9420490157480312
 30
0
 11
3.3892793307086615
 21
-3.9389218897637792
 31
0
  0
LINE
  5
346
330
1A
100
AcDbEntity
  8
F.Paste
  6
CONTINUOUS
100
AcDbLine
 10
3.3892793307086615
 20
-3.9389218897637792
 30
0
 11
3.3891732283464564
 21
-3.9373031496062989
 31
0
  0
LINE
  5
347
330
1A
100
AcDbEntity
  8
F.Paste
  6
CONTINUOUS
100
AcDbLine
 10
3.3891732283464564
 20
-3.9373031496062989
 30
0
 11
3.3891732283464564
 21
-3.8886811023622045
 31
0
  0
LINE
  5
348
330
1A
100
AcDbEntity
  8
F.Paste
  6
CONTINUOUS
100
AcDbLine
 10
3.3891732283464564
 20
-3.8886811023622045
 30
0
 11
3.3892793307086615
 21
-3.8870623622047242
 31
0
  0
LINE
  5
349
330
1A
100
AcDbEntity
  8
F.Paste
  6
CONTINUOUS
100
AcDbLine
 10
3.3892793307086615
 20
-3.8870623622047242
 30
0
 11
3.3901172440944882
 21
-3.8839352362204722
 31
0
  0
LINE
  5
34A
330
1A
100
AcDbEntity
  8
F.Paste
  6
CONTINUOUS
100
AcDbLine
 10
3.3901172440944882
 20
-3.8839352362204722
 30
0
 11
3.3917359842519685
 21
-3.8811314960629919
 31
0
  0
LINE
  5
34B
330
1A
100
AcDbEntity
  8
F.Paste
  6
CONTINUOUS
100
AcDbLine
 10
3.3917359842519685
 20
-3.8811314960629919
 30
0
 11
3.3940251968503938
 21
-3.8788422834645671
 31
0
  0
LINE
  5
34C
330
1A
100
AcDbEntity
  8
F.Paste
  6
CONTINUOUS
100
AcDbLine
 10
3.3940251968503938
 20
-3.8788422834645671
 30
0
 11
3.3968289370078741
 21
-3.8772235433070867
 31
0
  0
LINE
  5
34D
330
1A
100
AcDbEntity
  8
F.Paste
  6
CONTINUOUS
100
AcDbLine
 10
3.3968289370078741
 20
-3.8772235433070867
 30
0
 11
3.3999560629921257
 21
-3.8763856299212596
 31
0
  0
LINE
  5
34E
330
1A
100
AcDbEntity
  8
F.Paste
  6
CONTINUOUS
100
AcDbLine
 10
3.3999560629921257
 20
-3.8763856299212596
 30
0
 11
3.4031935433070863
 21
-3.8763856299212596
 31
0
  0
LINE
  5
34F
330
1A
100
AcDbEntity
  8
F.Paste
  6
CONTINUOUS
100
AcDbLine
 10
3.4031935433070863
 20
-3.8763856299212596
 30
0
 11
3.4063206692913384
 21
-3.8772235433070867
 31
0
  0
LINE
  5
350
330
1A
100
AcDbEntity
  8
F.Paste
  6
CONTINUOUS
100
AcDbLine
 10
3.1616141732283465
 20
-3.9153543307086611
 30
0
 11
3.1360236220472442
 21
-3.9153543307086611
 31
0
  0
LINE
  5
351
330
1A
100
AcDbEntity
  8
F.Paste
  6
CONTINUOUS
100
AcDbLine
 10
3.1360236220472442
 20
-3.9153543307086611
 30
0
 11
3.1360236220472442
 21
-3.8877952755905509
 31
0
  0
LINE
  5
352
330
1A
100
AcDbEntity
  8
F.Paste
  6
CONTINUOUS
100
AcDbLine
 10
3.1360236220472442
 20
-3.8877952755905509
 30
0
 11
3.1616141732283465
 21
-3.8877952755905509
 31
0
  0
LINE
  5
353
330
1A
100
AcDbEntity
  8
F.Paste
  6
CONTINUOUS
100
AcDbLine
 10
3.1616141732283465
 20
-3.8877952755905509
 30
0
 11
3.1616141732283465
 21
-3.9153543307086611
 31
0
  0
LINE
  5
354
330
1A
100
AcDbEntity
  8
F.Paste
  6
CONTINUOUS
100
AcDbLine
 10
3.1986220472440943
 20
-3.9153543307086611
 30
0
 11
3.173031496062992
 21
-3.9153543307086611
 31
0
  0
LINE
  5
355
330
1A
100
AcDbEntity
  8
F.Paste
  6
CONTINUOUS
100
AcDbLine
 10
3.173031496062992
 20
-3.9153543307086611
 30
0
 11
3.173031496062992
 21
-3.8877952755905509
 31
0
  0
LINE
  5
356
330
1A
100
AcDbEntity
  8
F.Paste
  6
CONTINUOUS
100
AcDbLine
 10
3.173031496062992
 20
-3.8877952755905509
 30
0
 11
3.1986220472440943
 21
-3.8877952755905509
 31
0
  0
LINE
  5
357
330
1A
100
AcDbEntity
  8
F.Paste
  6
CONTINUOUS
100
AcDbLine
 10
3.1986220472440943
 20
-3.8877952755905509
 30
0
 11
3.1986220472440943
 21
-3.9153543307086611
 31
0
  0
LINE
  5
358
330
1A
100
AcDbEntity
  8
F.Paste
  6
CONTINUOUS
100
AcDbLine
 10
2.9251968503937009
 20
-3.8287401574803148
 30
0
 11
2.8464566929133857
 21
-3.8287401574803148
 31
0
  0
LINE
  5
359
330
1A
100
AcDbEntity
  8
F.Paste
  6
CONTINUOUS
100
AcDbLine
 10
2.8464566929133857
 20
-3.8287401574803148
 30
0
 11
2.8464566929133857
 21
-3.7893700787401574
 31
0
  0
LINE
  5
35A
330
1A
100
AcDbEntity
  8
F.Paste
  6
CONTINUOUS
100
AcDbLine
 10
2.8464566929133857
 20
-3.7893700787401574
 30
0
 11
2.9251968503937009
 21
-3.7893700787401574
 31
0
  0
LINE
  5
35B
330
1A
100
AcDbEntity
  8
F.Paste
  6
CONTINUOUS
100
AcDbLine
 10
2.9251968503937009
 20
-3.7893700787401574
 30
0
 11
2.9251968503937009
 21
-3.8287401574803148
 31
0
  0
LINE
  5
35C
330
1A
100
AcDbEntity
  8
F.Paste
  6
CONTINUOUS
100
AcDbLine
 10
3.2992125984251968
 20
-3.8287401574803148
 30
0
 11
3.2204724409448819
 21
-3.8287401574803148
 31
0
  0
LINE
  5
35D
330
1A
100
AcDbEntity
  8
F.Paste
  6
CONTINUOUS
100
AcDbLine
 10
3.2204724409448819
 20
-3.8287401574803148
 30
0
 11
3.2204724409448819
 21
-3.7893700787401574
 31
0
  0
LINE
  5
35E
330
1A
100
AcDbEntity
  8
F.Paste
  6
CONTINUOUS
100
AcDbLine
 10
3.2204724409448819
 20
-3.7893700787401574
 30
0
 11
3.2992125984251968
 21
-3.7893700787401574
 31
0
  0
LINE
  5
35F
330
1A
100
AcDbEntity
  8
F.Paste
  6
CONTINUOUS
100
AcDbLine
 10
3.2992125984251968
 20
-3.7893700787401574
 30
0
 11
3.2992125984251968
 21
-3.8287401574803148
 31
0
  0
LINE
  5
360
330
1A
100
AcDbEntity
  8
F.Paste
  6
CONTINUOUS
100
AcDbLine
 10
2.9251968503937009
 20
-3.6712598425196847
 30
0
 11
2.8464566929133857
 21
-3.6712598425196847
 31
0
  0
LINE
  5
361
330
1A
100
AcDbEntity
  8
F.Paste
  6
CONTINUOUS
100
AcDbLine
 10
2.8464566929133857
 20
-3.6712598425196847
 30
0
 11
2.8464566929133857
 21
-3.6318897637795273
 31
0
  0
LINE
  5
362
330
1A
100
AcDbEntity
  8
F.Paste
  6
CONTINUOUS
100
AcDbLine
 10
2.8464566929133857
 20
-3.6318897637795273
 30
0
 11
2.9251968503937009
 21
-3.6318897637795273
 31
0
  0
LINE
  5
363
330
1A
100
AcDbEntity
  8
F.Paste
  6
CONTINUOUS
100
AcDbLine
 10
2.9251968503937009
 20
-3.6318897637795273
 30
0
 11
2.9251968503937009
 21
-3.6712598425196847
 31
0
  0
LINE
  5
364
330
1A
100
AcDbEntity
  8
F.Paste
  6
CONTINUOUS
100
AcDbLine
 10
3.2992125984251968
 20
-3.6712598425196847
 30
0
 11
3.2204724409448819
 21
-3.6712598425196847
 31
0
  0
LINE
  5
365
330
1A
100
AcDbEntity
  8
F.Paste
  6
CONTINUOUS
100
AcDbLine
 10
3.2204724409448819
 20
-3.6712598425196847
 30
0
 11
3.2204724409448819
 21
-3.6318897637795273
 31
0
  0
LINE
  5
366
330
1A
100
AcDbEntity
  8
F.Paste
  6
CONTINUOUS
100
AcDbLine
 10
3.2204724409448819
 20
-3.6318897637795273
 30
0
 11
3.2992125984251968
 21
-3.6318897637795273
 31
0
  0
LINE
  5
367
330
1A
100
AcDbEntity
  8
F.Paste
  6
CONTINUOUS
100
AcDbLine
 10
3.2992125984251968
 20
-3.6318897637795273
 30
0
 11
3.2992125984251968
 21
-3.6712598425196847
 31
0
  0
ENDSEC
  0
SECTION
  2
OBJECTS
  0
DICTIONARY
  5
20
330
0
100
AcDbDictionary
281
1
  3
ACAD_GROUP
350
368
  3
ACAD_LAYOUT
350
21
  3
ACAD_PLOTSTYLENAME
350
11
  0
DICTIONARY
  5
368
330
20
100
AcDbDictionary
281
1
  0
ACDBDICTIONARYWDFLT
  5
11
330
20
100
AcDbDictionary
281
1
  3
Normal
350
10
100
AcDbDictionaryWithDefault
340
10
  0
ACDBPLACEHOLDER
  5
10
330
11
  0
DICTIONARY
  5
21
330
20
100
AcDbDictionary
281
1
  3
Model
350
1D
  3
Layout1
350
1E
  3
Layout2
350
1F
  0
LAYOUT
  5
1D
330
21
100
AcDbPlotSettings
  1

  2
none_device
  4
A3
  6

 40
0.0
 41
0.0
 42
0.0
 43
0.0
 44
420.0
 45
297.0
 46
0.0
 47
0.0
 48
0.0
 49
0.0
140
0.0
141
0.0
142
1.0
143
1.0
 70
1024
 72
1
 73
0
 74
5
  7

 75
16
 76
0
 77
2
 78
300
147
1.0
148
0.0
149
0.0
100
AcDbLayout
  1
Model
 70
1
 71
0
 10
0.0
 20
0.0
 11
420.0
 21
297.0
 12
0.0
 22
0.0
 32
0.0
 14
1e+20
 24
1e+20
 34
1e+20
 15
-1e+20
 25
-1e+20
 35
-1e+20
146
0.0
 13
0.0
 23
0.0
 33
0.0
 16
1.0
 26
0.0
 36
0.0
 17
0.0
 27
1.0
 37
0.0
 76
0
330
1A
  0
LAYOUT
  5
1E
330
21
100
AcDbPlotSettings
  1

  2
none_device
  4
A3
  6

 40
0.0
 41
0.0
 42
0.0
 43
0.0
 44
420.0
 45
297.0
 46
0.0
 47
0.0
 48
0.0
 49
0.0
140
0.0
141
0.0
142
1.0
143
1.0
 70
0
 72
1
 73
0
 74
5
  7

 75
16
 76
0
 77
2
 78
300
147
1.0
148
0.0
149
0.0
100
AcDbLayout
  1
Layout1
 70
1
 71
1
 10
0.0
 20
0.0
 11
420.0
 21
297.0
 12
0.0
 22
0.0
 32
0.0
 14
1e+20
 24
1e+20
 34
1e+20
 15
-1e+20
 25
-1e+20
 35
-1e+20
146
0.0
 13
0.0
 23
0.0
 33
0.0
 16
1.0
 26
0.0
 36
0.0
 17
0.0
 27
1.0
 37
0.0
 76
0
330
1B
  0
LAYOUT
  5
1F
330
21
100
AcDbPlotSettings
  1

  2
none_device
  4
A3
  6

 40
0.0
 41
0.0
 42
0.0
 43
0.0
 44
420.0
 45
297.0
 46
0.0
 47
0.0
 48
0.0
 49
0.0
140
0.0
141
0.0
142
1.0
143
1.0
 70
0
 72
1
 73
0
 74
5
  7

 75
16
 76
0
 77
2
 78
300
147
1.0
148
0.0
149
0.0
100
AcDbLayout
  1
Layout2
 70
1
 71
2
 10
0.0
 20
0.0
 11
420.0
 21
297.0
 12
0.0
 22
0.0
 32
0.0
 14
1e+20
 24
1e+20
 34
1e+20
 15
-1e+20
 25
-1e+20
 35
-1e+20
146
0.0
 13
0.0
 23
0.0
 33
0.0
 16
1.0
 26
0.0
 36
0.0
 17
0.0
 27
1.0
 37
0.0
 76
0
330
1C
  0
ENDSEC
  0
EOF
